<?xml version="1.0" encoding="utf-8"?>
<!-- Generator: Adobe Illustrator 16.0.0, SVG Export Plug-In . SVG Version: 6.00 Build 0)  -->
<!DOCTYPE svg PUBLIC "-//W3C//DTD SVG 1.1//EN" "http://www.w3.org/Graphics/SVG/1.1/DTD/svg11.dtd">
<svg version="1.1" id="Layer_1" xmlns="http://www.w3.org/2000/svg" xmlns:xlink="http://www.w3.org/1999/xlink" x="0px" y="0px"
	 width="100px" height="100px" viewBox="0 0 100 100" enable-background="new 0 0 100 100" xml:space="preserve">
<g>
	<g>
		<radialGradient id="SVGID_1_" cx="48.1558" cy="32.1523" r="79.4137" gradientUnits="userSpaceOnUse">
			<stop  offset="0" style="stop-color:#FFF23A"/>
			<stop  offset="0.0401" style="stop-color:#FEE62D"/>
			<stop  offset="0.1171" style="stop-color:#FED41A"/>
			<stop  offset="0.1964" style="stop-color:#FDC90F"/>
			<stop  offset="0.2809" style="stop-color:#FDC60B"/>
			<stop  offset="0.6685" style="stop-color:#F28F3F"/>
			<stop  offset="0.8876" style="stop-color:#ED693C"/>
			<stop  offset="1" style="stop-color:#E83E39"/>
		</radialGradient>
		<path fill="url(#SVGID_1_)" d="M47.621,21.71c7.953-1.91,16.524-1.13,23.987,2.214c5.888,2.638,11.125,6.801,14.898,12.033
			c-0.016,0.406-0.222,0.634-0.624,0.684c-0.684,0.145-1.424,0.406-2.097,0.128c-6.501-6.806-15.773-10.919-25.212-10.891
			c-8.716-0.162-17.354,3.233-23.815,9.038c-0.162,0.044-0.484,0.117-0.651,0.156c-0.072-0.373-0.133-0.729-0.206-1.102
			c-0.033,0.284-0.072,0.568-0.1,0.852c-0.1-0.351-0.2-0.707-0.289-1.058c-0.98-1.007-2.221-1.708-3.546-2.148
			c0.857-0.946,1.803-1.809,2.811-2.593c0.312-0.328,0.763-0.339,1.175-0.245c0.256-0.206,0.245-0.551,0.206-0.845
			C38.193,25.016,42.768,22.845,47.621,21.71z"/>
		<radialGradient id="SVGID_2_" cx="48.1543" cy="32.1528" r="79.4122" gradientUnits="userSpaceOnUse">
			<stop  offset="0" style="stop-color:#FFF23A"/>
			<stop  offset="0.0401" style="stop-color:#FEE62D"/>
			<stop  offset="0.1171" style="stop-color:#FED41A"/>
			<stop  offset="0.1964" style="stop-color:#FDC90F"/>
			<stop  offset="0.2809" style="stop-color:#FDC60B"/>
			<stop  offset="0.6685" style="stop-color:#F28F3F"/>
			<stop  offset="0.8876" style="stop-color:#ED693C"/>
			<stop  offset="1" style="stop-color:#E83E39"/>
		</radialGradient>
		<path fill="url(#SVGID_2_)" d="M36.496,35.768c5.365-4.669,12.311-7.536,19.429-7.841c1.765-0.272,3.528,0.044,5.293,0.122
			c6.399,0.668,12.556,3.351,17.437,7.536c1.069,0.918,2.148,1.848,2.972,3c-1.547,1.007-3.072,2.054-4.569,3.128
			c-0.367,0.261-0.846,0.189-1.263,0.267c-0.028-0.718,0.267-1.581-0.334-2.132c-0.356-0.127-0.74-0.133-1.108-0.094
			c-0.951-0.005-1.291,1.396-2.304,1.124c-3.817-1.107-7.603-2.365-11.414-3.512c-0.702-0.239-1.397,0.145-1.737,0.757
			c0.451,0.529,1.152,0.729,1.73,1.091c0.479,0.217,0.519,0.868,0.991,1.091c3.089,1.558,6.161,3.155,9.272,4.68
			c-0.98,1.136-2.171,2.076-3.429,2.9c-0.211,0.045-0.646,0.134-0.863,0.179c-0.589-0.401-1.269-1.553-2.031-0.813
			c-0.906,0.495-0.434,1.641-0.512,2.459c-1.452,0.095-2.788-0.574-4.19-0.802c-0.479-0.1-0.891,0.211-1.302,0.384
			c0.99,0.657,2.131,1.036,3.188,1.574c-0.952,0.697-2.043,1.143-3.084,1.688c-5.498,2.827-11.242,5.154-16.991,7.419
			c-3.756,1.186-7.53,2.388-11.404,3.15c0.1-0.033,0.295-0.096,0.396-0.129c-0.106-2.928-0.19-5.895,0.4-8.776
			c0.679-4.291,2.154-8.399,3.701-12.445c0.355,0.94,0.69,1.893,0.996,2.855c0.161-0.039,0.329-0.078,0.495-0.112
			c0.2,0.734,0.078,1.687,0.83,2.132c0.034,0.545-0.25,1.046-0.379,1.564c1.097,0.262,0.462,1.836,1.286,2.421
			c1.019-1.274,1.125-3.006,1.331-4.57c0.145-0.802-0.295-1.658,0.111-2.41c0.473,0.367,0.979,0.712,1.603,0.685
			c0.011-0.234,0.033-0.69,0.05-0.924c0.167,0.378,0.323,0.757,0.551,1.107c0.312,0.579,1.035,0.284,1.564,0.345
			c0.184,0.523,0.362,1.041,0.54,1.569c1.019-0.172,1.647,0.83,2.482,1.219c-0.105-0.923-0.467-1.787-0.813-2.644
			c-1.124-3.083-3.879-5.314-6.839-6.544c0.74-0.334,1.502-0.624,2.287-0.84c-0.011-0.128-0.033-0.384-0.039-0.512
			c-0.1-0.095-0.3-0.278-0.4-0.368c0.523,0.195,1.052,0.362,1.598,0.462c-0.162-0.267-0.329-0.528-0.501-0.79
			c0.55,0.295,1.118,0.551,1.692,0.79c-0.223-0.435-0.445-0.863-0.657-1.302c0.718,0.223,1.385,0.567,1.998,1.002
			c-0.011-0.178-0.017-0.356-0.022-0.54c-0.101-0.089-0.301-0.273-0.401-0.362c1.014,0.151,2.043,0.062,2.984-0.378
			c-0.406-0.334-0.824-0.668-1.331-0.835c-1.708-0.518-3.506-0.863-5.292-0.618c-1.854,0.501-3.04,2.099-4.498,3.223
			c-0.278,0.284-0.695,0.317-1.063,0.3C35.109,36.825,35.877,36.324,36.496,35.768z"/>
		<radialGradient id="SVGID_3_" cx="48.1436" cy="32.1553" r="79.365" gradientUnits="userSpaceOnUse">
			<stop  offset="0" style="stop-color:#FFF23A"/>
			<stop  offset="0.0401" style="stop-color:#FEE62D"/>
			<stop  offset="0.1171" style="stop-color:#FED41A"/>
			<stop  offset="0.1964" style="stop-color:#FDC90F"/>
			<stop  offset="0.2809" style="stop-color:#FDC60B"/>
			<stop  offset="0.6685" style="stop-color:#F28F3F"/>
			<stop  offset="0.8876" style="stop-color:#ED693C"/>
			<stop  offset="1" style="stop-color:#E83E39"/>
		</radialGradient>
		<path fill="url(#SVGID_3_)" d="M28.442,33.002c0.256-0.184,0.506-0.373,0.79-0.523c0.579-0.022,0.985,0.25,0.874,0.875
			c0.122,0.011,0.373,0.033,0.501,0.043c0.028,0.379,0.145,0.725,0.545,0.852c0.011,0.134,0.022,0.273,0.039,0.412
			c0.4,0.072,0.791,0.15,1.191,0.234c-0.284,0.044-0.563,0.083-0.846,0.133c0.295,0.573,0.685,1.085,1.097,1.581
			c-0.763,0.083-1.592-0.195-1.953-0.919C30.095,34.666,29.277,33.82,28.442,33.002z"/>
		<radialGradient id="SVGID_4_" cx="48.1567" cy="32.1553" r="79.4118" gradientUnits="userSpaceOnUse">
			<stop  offset="0" style="stop-color:#FFF23A"/>
			<stop  offset="0.0401" style="stop-color:#FEE62D"/>
			<stop  offset="0.1171" style="stop-color:#FED41A"/>
			<stop  offset="0.1964" style="stop-color:#FDC90F"/>
			<stop  offset="0.2809" style="stop-color:#FDC60B"/>
			<stop  offset="0.6685" style="stop-color:#F28F3F"/>
			<stop  offset="0.8876" style="stop-color:#ED693C"/>
			<stop  offset="1" style="stop-color:#E83E39"/>
		</radialGradient>
		<path fill="url(#SVGID_4_)" d="M26.25,38.189c0.573,0.045,1.024-0.312,1.463-0.618c-0.028,0.284-0.05,0.568-0.073,0.857
			c0.584,0.073,1.798-0.384,1.681,0.602c0.356-0.039,0.712-0.067,1.069-0.101c0.094,0.211,0.183,0.423,0.267,0.645
			c-1.514,1.069-2.972,2.26-4.09,3.757c-0.011,0.161-0.034,0.484-0.045,0.645c-0.223,0.034-0.44,0.062-0.651,0.095
			c-0.468-1.108-0.918-2.22-1.225-3.378c-0.172-0.267-0.306-0.557-0.395-0.852c-0.005-0.049-0.011-0.139-0.017-0.183
			c-0.123-0.518-0.062-1.113,0.439-1.391C25.198,38.217,25.727,38.25,26.25,38.189z"/>
		<radialGradient id="SVGID_5_" cx="28.4365" cy="38.1274" r="0" gradientUnits="userSpaceOnUse">
			<stop  offset="0" style="stop-color:#FFF23A"/>
			<stop  offset="0.0401" style="stop-color:#FEE62D"/>
			<stop  offset="0.1171" style="stop-color:#FED41A"/>
			<stop  offset="0.1964" style="stop-color:#FDC90F"/>
			<stop  offset="0.2809" style="stop-color:#FDC60B"/>
			<stop  offset="0.6685" style="stop-color:#F28F3F"/>
			<stop  offset="0.8876" style="stop-color:#ED693C"/>
			<stop  offset="1" style="stop-color:#E83E39"/>
		</radialGradient>
		<path fill="url(#SVGID_5_)" d="M28.437,38.127"/>
		<radialGradient id="SVGID_6_" cx="48.1274" cy="32.1523" r="79.4472" gradientUnits="userSpaceOnUse">
			<stop  offset="0" style="stop-color:#FFF23A"/>
			<stop  offset="0.0401" style="stop-color:#FEE62D"/>
			<stop  offset="0.1171" style="stop-color:#FED41A"/>
			<stop  offset="0.1964" style="stop-color:#FDC90F"/>
			<stop  offset="0.2809" style="stop-color:#FDC60B"/>
			<stop  offset="0.6685" style="stop-color:#F28F3F"/>
			<stop  offset="0.8876" style="stop-color:#ED693C"/>
			<stop  offset="1" style="stop-color:#E83E39"/>
		</radialGradient>
		<path fill="url(#SVGID_6_)" d="M86.94,40.137c0.445-0.423,0.896-0.841,1.353-1.247c0.14,0.155,0.418,0.473,0.553,0.629
			c4.172,7.157,5.793,15.756,4.607,23.948c0.329-7.931-1.721-16.04-6.34-22.558C87.07,40.716,86.985,40.331,86.94,40.137z"/>
		<radialGradient id="SVGID_7_" cx="48.1606" cy="32.1582" r="79.4049" gradientUnits="userSpaceOnUse">
			<stop  offset="0" style="stop-color:#FFF23A"/>
			<stop  offset="0.0401" style="stop-color:#FEE62D"/>
			<stop  offset="0.1171" style="stop-color:#FED41A"/>
			<stop  offset="0.1964" style="stop-color:#FDC90F"/>
			<stop  offset="0.2809" style="stop-color:#FDC60B"/>
			<stop  offset="0.6685" style="stop-color:#F28F3F"/>
			<stop  offset="0.8876" style="stop-color:#ED693C"/>
			<stop  offset="1" style="stop-color:#E83E39"/>
		</radialGradient>
		<path fill="url(#SVGID_7_)" d="M22.743,40.949c0.863,2.705,1.625,5.465,2.004,8.287c0.006,0.534,0.117,1.091-0.044,1.619
			c-0.596,2.099-1.035,4.241-1.28,6.405c-0.083-0.121-0.261-0.366-0.345-0.494c-1.658,0.244-2.538,1.947-3.807,2.889
			c-0.101-0.028-0.301-0.085-0.401-0.116c-0.156-3.714,0.384-7.409,1.191-11.026c0.74-2.382,1.558-4.742,2.688-6.974
			C22.743,41.395,22.743,41.094,22.743,40.949z"/>
		<radialGradient id="SVGID_8_" cx="48.1558" cy="32.1567" r="79.4029" gradientUnits="userSpaceOnUse">
			<stop  offset="0" style="stop-color:#FFF23A"/>
			<stop  offset="0.0401" style="stop-color:#FEE62D"/>
			<stop  offset="0.1171" style="stop-color:#FED41A"/>
			<stop  offset="0.1964" style="stop-color:#FDC90F"/>
			<stop  offset="0.2809" style="stop-color:#FDC60B"/>
			<stop  offset="0.6685" style="stop-color:#F28F3F"/>
			<stop  offset="0.8876" style="stop-color:#ED693C"/>
			<stop  offset="1" style="stop-color:#E83E39"/>
		</radialGradient>
		<path fill="url(#SVGID_8_)" d="M29.823,44.606c1.364-0.262,2.371-1.358,3.54-2.042c-0.039,0.284-0.078,0.568-0.117,0.852
			c-0.685,0.84-1.024,1.892-1.503,2.85c-1.441,3.078-2.265,6.384-3.061,9.668c-0.122-0.022-0.367-0.073-0.49-0.101
			c-0.094-2.287-0.535-4.553-1.019-6.785c0.701-1.024,0.93-2.287,1.653-3.306c0.512-0.596,0.807-1.336,1.029-2.082
			C29.839,43.977,29.828,44.289,29.823,44.606z"/>
		<radialGradient id="SVGID_9_" cx="48.1543" cy="32.1538" r="79.4104" gradientUnits="userSpaceOnUse">
			<stop  offset="0" style="stop-color:#FFF23A"/>
			<stop  offset="0.0401" style="stop-color:#FEE62D"/>
			<stop  offset="0.1171" style="stop-color:#FED41A"/>
			<stop  offset="0.1964" style="stop-color:#FDC90F"/>
			<stop  offset="0.2809" style="stop-color:#FDC60B"/>
			<stop  offset="0.6685" style="stop-color:#F28F3F"/>
			<stop  offset="0.8876" style="stop-color:#ED693C"/>
			<stop  offset="1" style="stop-color:#E83E39"/>
		</radialGradient>
		<path fill="url(#SVGID_9_)" d="M81.064,44.389c1.264-0.563,2.236-1.792,3.645-1.992c2.238,3.539,4.103,7.468,4.619,11.66
			c0.43,0.823,0.374,1.769,0.468,2.659c0.378,1.949,0.246,3.952,0.189,5.917c-0.2,1.186-0.328,2.375-0.344,3.578
			c-0.101,0.139-0.302,0.411-0.402,0.552c-2.377,0.267-4.763,0.36-7.146,0.566c-10.168,1.181-20.325,2.483-30.477,3.841
			c-3.996,0.695-8.025,1.225-12.021,1.937c-3.289,0.501-6.54,1.214-9.834,1.726c-0.384-0.194-0.791-0.345-1.224-0.373
			c8.265-1.737,16.64-2.761,24.972-4.096c8.266-1.297,16.496-3.017,24.861-3.589c1.313-0.034,2.644,0.016,3.936-0.307
			c-1.509-1.531-3.774-1.677-5.794-1.82c-4.046,0.218-8.031,1.035-12.021,1.714c-6.773,1.197-13.569,2.305-20.337,3.534
			c-3.612,0.551-7.129,1.552-10.724,2.176c-1.18,0.179-2.321,0.563-3.523,0.557c0.133-0.105,0.406-0.317,0.539-0.428
			c6.151-1.415,12.323-2.733,18.54-3.847c8.515-1.357,16.807-3.956,25.406-4.848c0.346-0.067,0.691-0.166,1.035-0.262
			c-1.297-0.801-2.732-1.469-4.285-1.491c-1.797-0.016-3.589,0.25-5.326,0.702c-6.35,1.353-12.656,2.904-19,4.274
			c-4.296,1.028-8.588,2.063-12.851,3.227c-1.987,0.579-3.968,1.286-6.044,1.431c-0.094-0.016-0.273-0.049-0.367-0.066l0.272-0.117
			c4.636-1.652,9.439-2.776,14.187-4.063c8.727-2.254,17.509-4.302,26.224-6.596c-0.256-0.623-0.957-0.706-1.502-0.9
			c-1.113-0.291-2.199-0.747-3.345-0.858c-1.992,0.357-3.902,1.068-5.85,1.581c-3.685,1.001-7.28,2.31-10.981,3.217
			c0.095-0.128,0.29-0.378,0.384-0.506c0.178-0.006,0.529-0.018,0.707-0.022c0.506-0.361,1.063-0.635,1.642-0.852
			c0.056-0.089,0.162-0.272,0.212-0.362c3.879-1.453,7.841-2.649,11.737-4.051c-0.801-0.128-1.597-0.284-2.393-0.445
			c2.493-1.068,4.714-2.721,7.207-3.796c0.24,0.306,0.49,0.605,0.741,0.912c0.456-0.056,0.912-0.11,1.374-0.166
			c0.05-0.652-0.066-1.292-0.439-1.842c2.287-1.91,5.114-2.934,7.719-4.32c0.69-0.445,1.364,0.095,1.893,0.523
			c1.592,1.259,3.061,2.661,4.625,3.962c0.567,0.47,1.063,1.058,1.758,1.353c0.469-0.228,0.847-0.59,1.236-0.923
			c-0.602-1.465-1.77-2.728-1.954-4.324c0.272-0.15,0.546-0.301,0.818-0.445c-0.022-0.495-0.045-0.986-0.061-1.476
			c-0.657-0.032-1.314-0.049-1.97-0.061C81.432,45.998,81.042,45.241,81.064,44.389z"/>
		<radialGradient id="SVGID_10_" cx="48.1675" cy="32.1616" r="79.4041" gradientUnits="userSpaceOnUse">
			<stop  offset="0" style="stop-color:#FFF23A"/>
			<stop  offset="0.0401" style="stop-color:#FEE62D"/>
			<stop  offset="0.1171" style="stop-color:#FED41A"/>
			<stop  offset="0.1964" style="stop-color:#FDC90F"/>
			<stop  offset="0.2809" style="stop-color:#FDC60B"/>
			<stop  offset="0.6685" style="stop-color:#F28F3F"/>
			<stop  offset="0.8876" style="stop-color:#ED693C"/>
			<stop  offset="1" style="stop-color:#E83E39"/>
		</radialGradient>
		<path fill="url(#SVGID_10_)" d="M20.962,70.273c1.225,0.022,2.455-0.045,3.685,0c0.29,1.013,0.529,2.043,0.886,3.039l0.322-0.045
			c0.173-0.022,0.512-0.072,0.685-0.094c-0.195,0.039-0.59,0.122-0.785,0.161c0.022,0.228,0.078,0.679,0.105,0.902
			c-0.15,0.327-0.367,0.617-0.579,0.901c0.329-0.045,0.663-0.085,0.997-0.139c0.038,0.161,0.105,0.479,0.144,0.633
			c-0.445,0.141-0.896,0.262-1.353,0.38c-0.044,0.416-0.083,0.834-0.122,1.257c0.779-0.022,1.553-0.038,2.332-0.061
			c-0.05,0.188-0.14,0.567-0.184,0.756c-0.201,0.012-0.601,0.045-0.801,0.056c-0.785-0.011-1.687,0.134-2.232-0.567
			c-0.395-1.096-1.174-1.997-1.603-3.083C21.953,73.013,21.141,71.738,20.962,70.273z"/>
		<radialGradient id="SVGID_11_" cx="48.1577" cy="32.2144" r="79.3168" gradientUnits="userSpaceOnUse">
			<stop  offset="0" style="stop-color:#FFF23A"/>
			<stop  offset="0.0401" style="stop-color:#FEE62D"/>
			<stop  offset="0.1171" style="stop-color:#FED41A"/>
			<stop  offset="0.1964" style="stop-color:#FDC90F"/>
			<stop  offset="0.2809" style="stop-color:#FDC60B"/>
			<stop  offset="0.6685" style="stop-color:#F28F3F"/>
			<stop  offset="0.8876" style="stop-color:#ED693C"/>
			<stop  offset="1" style="stop-color:#E83E39"/>
		</radialGradient>
		<path fill="url(#SVGID_11_)" d="M28.27,72.739c0.512-0.161,1.035-0.295,1.564-0.378c0.011,0.116,0.033,0.35,0.044,0.468
			c-0.584,0.172-1.191,0.272-1.787,0.416C28.136,73.117,28.225,72.867,28.27,72.739z"/>
		<radialGradient id="SVGID_12_" cx="48.1543" cy="32.1353" r="79.4301" gradientUnits="userSpaceOnUse">
			<stop  offset="0" style="stop-color:#FFF23A"/>
			<stop  offset="0.0401" style="stop-color:#FEE62D"/>
			<stop  offset="0.1171" style="stop-color:#FED41A"/>
			<stop  offset="0.1964" style="stop-color:#FDC90F"/>
			<stop  offset="0.2809" style="stop-color:#FDC60B"/>
			<stop  offset="0.6685" style="stop-color:#F28F3F"/>
			<stop  offset="0.8876" style="stop-color:#ED693C"/>
			<stop  offset="1" style="stop-color:#E83E39"/>
		</radialGradient>
		<path fill="url(#SVGID_12_)" d="M84.66,76.04c0.266-0.251,0.539-0.501,0.834-0.718l0.572-0.067
			c0.04,1.203-1.145,1.876-1.462,2.911c-2.1-0.329-4.241-0.272-6.323-0.702c-2.109-0.438-4.279,0.018-6.4-0.345
			c-0.501-0.094-1.002-0.172-1.508-0.172c-9.283-0.134-18.561-0.101-27.838-0.051c-1.881,0.062-3.774-0.017-5.632,0.313
			c-1.642,0.005-3.268,0.239-4.903,0.25c-0.601-0.149-1.197-0.283-1.787-0.434c2.488-0.362,5.015-0.212,7.497-0.597
			c1.704,0.012,3.39-0.288,5.099-0.255c6.055,0,12.111,0.005,18.171,0.005c3.389,0.028,6.801-0.144,10.162,0.418
			c2.454,0.378,4.959,0.145,7.396,0.657c1.363,0.306,2.761,0.161,4.142,0.177c0.723-0.244,1.219-0.901,1.863-1.29l0.066-0.052
			L84.66,76.04z"/>
		<radialGradient id="SVGID_13_" cx="48.1553" cy="32.1846" r="79.3785" gradientUnits="userSpaceOnUse">
			<stop  offset="0" style="stop-color:#FFF23A"/>
			<stop  offset="0.0401" style="stop-color:#FEE62D"/>
			<stop  offset="0.1171" style="stop-color:#FED41A"/>
			<stop  offset="0.1964" style="stop-color:#FDC90F"/>
			<stop  offset="0.2809" style="stop-color:#FDC60B"/>
			<stop  offset="0.6685" style="stop-color:#F28F3F"/>
			<stop  offset="0.8876" style="stop-color:#ED693C"/>
			<stop  offset="1" style="stop-color:#E83E39"/>
		</radialGradient>
		<path fill="url(#SVGID_13_)" d="M31.882,79.602c2.126-0.012,4.247-0.244,6.372-0.222c8.198-0.012,16.402,0.016,24.605,0.022
			c2.321,0.021,4.647-0.056,6.963,0.127c2.844,0.146,5.699-0.033,8.526,0.317c1.585,0.057,3.177,0.045,4.769,0.09
			c-0.101,0.628-0.59,1.067-1.028,1.48c-0.523,0.217-1.131,0.087-1.682,0.139c-4.853-0.541-9.717-0.901-14.593-1.08
			c-4.914-0.094-9.822-0.028-14.737-0.045c-4.146-0.056-8.292,0.083-12.433,0.334c-1.814,0.268-3.657,0.261-5.477,0.467
			C32.661,80.748,32.333,80.125,31.882,79.602z"/>
		<radialGradient id="SVGID_14_" cx="48.1567" cy="32.1372" r="79.4353" gradientUnits="userSpaceOnUse">
			<stop  offset="0" style="stop-color:#FFF23A"/>
			<stop  offset="0.0401" style="stop-color:#FEE62D"/>
			<stop  offset="0.1171" style="stop-color:#FED41A"/>
			<stop  offset="0.1964" style="stop-color:#FDC90F"/>
			<stop  offset="0.2809" style="stop-color:#FDC60B"/>
			<stop  offset="0.6685" style="stop-color:#F28F3F"/>
			<stop  offset="0.8876" style="stop-color:#ED693C"/>
			<stop  offset="1" style="stop-color:#E83E39"/>
		</radialGradient>
		<path fill="url(#SVGID_14_)" d="M25.971,80.229c0.835-0.355,1.775-0.404,2.666-0.25c0.685,0.246,0.919,1.013,1.242,1.592
			c-0.562,0.067-1.125,0.151-1.687,0.224C27.134,81.9,26.528,80.954,25.971,80.229z"/>
	</g>
	<g>
		<g>
			<radialGradient id="SVGID_15_" cx="40.1274" cy="56.0723" r="74.5113" gradientUnits="userSpaceOnUse">
				<stop  offset="0.0121" style="stop-color:#26A9E0"/>
				<stop  offset="0.0861" style="stop-color:#239CD7"/>
				<stop  offset="0.2235" style="stop-color:#1C79BE"/>
				<stop  offset="0.2364" style="stop-color:#1B75BB"/>
				<stop  offset="1" style="stop-color:#120742"/>
			</radialGradient>
			<path fill="url(#SVGID_15_)" d="M22.604,22.11c1.725-1.091,3.646-2.132,5.738-2.176c-0.69,1.029-1.597,1.942-2.889,2.087
				c0.239,0.021,0.724,0.061,0.963,0.078c-0.306,0.773-1.37,0.461-2.031,0.663c0.4,0.211,0.968,0.278,1.085,0.796
				c-0.629,0.122-1.269,0.184-1.904,0.167c0.418,0.178,1.091,0.078,1.269,0.59c-0.518,0.088-1.03,0.184-1.547,0.278
				c0.301,0.117,0.601,0.234,0.908,0.356c-0.768,0.974-1.542,1.954-2.46,2.793l0.056,0.084c1.731-1.091,3.601-2.321,5.744-2.16
				c2.343,0.306,4.597,1.174,6.584,2.449c-0.156,0.156-0.311,0.312-0.468,0.462c-0.612-0.005-1.218,0.045-1.825,0.045
				c-0.557-0.178-1.058-0.507-1.57-0.774c0.223,0.312,0.446,0.618,0.663,0.935c-0.941,0.139-1.492-0.785-2.249-1.163
				c0.207,0.467,0.412,0.929,0.607,1.402c-0.824,0.044-1.353-0.707-1.992-1.102c0.289,0.428,0.573,0.851,0.856,1.291
				c-0.74-0.078-1.286-0.624-1.886-0.997c0.194,0.362,0.395,0.729,0.606,1.096c-1.168,0.196-2.337,0.362-3.522,0.312
				c1.848,0.88,3.662,1.904,5.104,3.378c0.835,0.818,1.653,1.664,2.238,2.688c0.361,0.724,1.19,1.002,1.953,0.919
				c-0.412-0.495-0.802-1.007-1.097-1.581c0.284-0.05,0.562-0.089,0.846-0.133c-0.4-0.084-0.791-0.162-1.191-0.234
				c-0.017-0.139-0.028-0.278-0.039-0.412c-0.401-0.127-0.518-0.473-0.545-0.852c-0.128-0.011-0.379-0.032-0.501-0.043
				c0.111-0.624-0.295-0.896-0.874-0.875c-0.344-0.396-0.69-0.779-1.024-1.174c0.601-0.022,1.208,0.044,1.758,0.311
				c1.325,0.44,2.566,1.142,3.546,2.148c0.089,0.351,0.189,0.707,0.289,1.058c0.028-0.284,0.067-0.568,0.1-0.852
				c0.073,0.373,0.134,0.729,0.206,1.102c0.167-0.039,0.49-0.112,0.651-0.156c-0.123,0.095-0.368,0.278-0.49,0.373
				c0.256,0.791,0.445,1.603,0.662,2.41c0.368,0.017,0.785-0.017,1.063-0.3c1.458-1.125,2.644-2.722,4.498-3.223
				c1.786-0.245,3.584,0.101,5.292,0.618c0.507,0.167,0.924,0.501,1.331,0.835c-0.94,0.439-1.97,0.529-2.984,0.378
				c0.101,0.089,0.301,0.273,0.401,0.362c0.006,0.184,0.011,0.362,0.022,0.54c-0.613-0.435-1.28-0.779-1.998-1.002
				c0.211,0.439,0.434,0.868,0.657,1.302c-0.574-0.239-1.142-0.495-1.692-0.79c0.172,0.262,0.339,0.523,0.501,0.79
				c-0.545-0.1-1.074-0.267-1.598-0.462c0.1,0.089,0.301,0.273,0.4,0.368c0.006,0.128,0.028,0.384,0.039,0.512
				c-0.785,0.217-1.547,0.506-2.287,0.84c2.96,1.23,5.716,3.461,6.839,6.544c0.346,0.857,0.708,1.721,0.813,2.644
				c-0.834-0.389-1.463-1.391-2.482-1.219c-0.178-0.529-0.356-1.046-0.54-1.569c-0.529-0.062-1.252,0.233-1.564-0.345
				c-0.228-0.351-0.384-0.729-0.551-1.107c-0.017,0.234-0.039,0.69-0.05,0.924c-0.623,0.028-1.129-0.317-1.603-0.685
				c-0.407,0.751,0.034,1.608-0.111,2.41c-0.206,1.564-0.312,3.295-1.331,4.57c-0.824-0.585-0.189-2.16-1.286-2.421
				c0.128-0.518,0.413-1.019,0.379-1.564c-0.751-0.445-0.629-1.397-0.83-2.132c-0.167,0.034-0.334,0.073-0.495,0.112
				c-0.306-0.963-0.641-1.915-0.996-2.855c-1.547,4.046-3.022,8.154-3.701,12.445c-0.59,2.882-0.506,5.849-0.4,8.776
				c-0.101,0.033-0.295,0.096-0.396,0.129c-1.77,0.322-3.584,0.517-5.388,0.383c0.301-2.855,0.707-5.722,0.507-8.599
				c-0.139-1.896-0.234-3.817-0.646-5.671c-0.379-2.822-1.141-5.582-2.004-8.287c-0.868-2.61-1.686-5.26-2.827-7.764
				c-0.333,1.302-0.74,2.588-1.213,3.846c-0.439-0.311-0.857-0.651-1.252-1.019c0.434,0.918,0.879,1.848,1.23,2.811
				c-0.634-0.556-1.225-1.157-1.792-1.775c0.457,0.969,1.007,1.893,1.492,2.85c-0.763-0.395-1.469-0.879-2.209-1.313
				c0.518,1.068,1.458,2.048,1.508,3.268c-0.629-0.435-1.03-1.103-1.553-1.643c0.223,0.624,0.484,1.235,0.656,1.876
				c-0.145,0.901-0.479,1.77-0.617,2.682c-0.93-0.701-1.191-1.925-1.475-2.988c-0.407-2.07-0.874-4.291-0.089-6.334
				c-0.773,0.429-1.514,0.902-2.287,1.336c-0.089-0.545-0.151-1.091-0.173-1.636c-0.412,0.862-0.506,1.853-1.007,2.671
				c-0.066-0.623-0.116-1.252-0.206-1.87c-0.367,0.829-0.451,1.736-0.673,2.604c-0.396-0.684-0.512-1.475-0.74-2.22
				c-0.574,1.035-0.25,2.499-1.158,3.317c-0.056-0.645,0.034-1.308-0.161-1.925c-0.234,0.534-0.384,1.102-0.668,1.613
				c-0.773,0.579-1.564,1.147-2.37,1.681c0.929-2.371,1.536-4.948,3.166-6.968c1.876-2.199,4.264-3.958,6.935-5.071
				c-1.035-0.355-2.108-0.583-3.133-0.968c-0.123-0.467,0.496-0.829,0.712-1.224c-0.83,0.351-1.625,0.779-2.46,1.113
				c0.345-0.624,0.896-1.097,1.364-1.625c-0.912,0.39-1.719,0.985-2.632,1.375c0.384-0.74,0.829-1.447,1.263-2.16
				c-1.09,0.507-2.042,1.508-3.272,1.581c0.439-0.641,1.074-1.097,1.691-1.564c-0.712,0.167-1.368,0.568-2.086,0.662
				c-0.824-0.189-1.637-0.411-2.472-0.528c0.59-1.03,1.909-1.253,2.956-1.592c2.142-0.429,4.519-1.074,6.595-0.05
				c2.226,1.069,3.696,3.178,5.75,4.502C20.506,26.362,20.556,23.618,22.604,22.11z M21.251,33.82
				c0.629,1.313,1.586,2.521,1.92,3.945c0.25-0.006,0.507-0.021,0.763-0.038c0.295-0.557,1.135-0.585,1.391-1.091
				C23.901,35.796,22.537,34.861,21.251,33.82z M26.25,38.189c0.044-0.072,0.15-0.222,0.2-0.295
				c-1.013,0.317-2.064,0.245-3.094,0.062c0.423,0.557,0.473,1.352,0.896,1.886c0.088,0.295,0.223,0.585,0.395,0.852
				c0.307,1.158,0.757,2.271,1.225,3.378c0.211-0.034,0.429-0.062,0.651-0.095c0.011-0.161,0.034-0.484,0.045-0.645
				c1.118-1.497,2.577-2.688,4.09-3.757c-0.084-0.222-0.173-0.434-0.267-0.645c-0.356,0.034-0.712,0.062-1.069,0.101
				c0.117-0.986-1.097-0.529-1.681-0.602c0.022-0.29,0.045-0.573,0.073-0.857C27.274,37.877,26.823,38.234,26.25,38.189z
				 M28.437,38.127 M29.823,44.606c0.005-0.317,0.017-0.629,0.033-0.946c-0.222,0.746-0.518,1.486-1.029,2.082
				c0.373-0.534,0.194-1.214,0.222-1.82c-0.245,0.667-0.396,1.363-0.562,2.053c-0.334-0.451-0.428-1.007-0.545-1.542
				c-0.389,0.801-0.29,1.781-0.824,2.504c-0.078-0.49-0.139-0.974-0.245-1.458c-0.634,1.168,0.207,2.37,0.301,3.567
				c0.484,2.232,0.924,4.498,1.019,6.785c0.123,0.027,0.368,0.078,0.49,0.101c0.796-3.284,1.62-6.59,3.061-9.668
				c0.479-0.958,0.818-2.01,1.503-2.85c0.039-0.284,0.078-0.567,0.117-0.852C32.194,43.248,31.187,44.344,29.823,44.606z"/>
		</g>
		<radialGradient id="SVGID_16_" cx="40.124" cy="56.0723" r="74.5081" gradientUnits="userSpaceOnUse">
			<stop  offset="0.0121" style="stop-color:#26A9E0"/>
			<stop  offset="0.0861" style="stop-color:#239CD7"/>
			<stop  offset="0.2235" style="stop-color:#1C79BE"/>
			<stop  offset="0.2364" style="stop-color:#1B75BB"/>
			<stop  offset="1" style="stop-color:#120742"/>
		</radialGradient>
		<path fill="url(#SVGID_16_)" d="M86.507,35.958c0.116,0.195,0.234,0.389,0.355,0.589c0.791-0.105,1.994-0.64,2.377,0.396
			c-0.34,0.623-0.707,1.235-0.962,1.897c0.188,0.223,0.378,0.451,0.568,0.68c-0.135-0.157-0.413-0.474-0.553-0.629
			c-0.456,0.406-0.907,0.824-1.353,1.247c0.045,0.194,0.13,0.579,0.173,0.773c-0.05-0.127-0.161-0.378-0.211-0.506
			c-0.919,0.412-1.62,1.158-2.455,1.698l-0.033,0.161c0.072,0.034,0.217,0.101,0.295,0.134c-1.408,0.2-2.381,1.43-3.645,1.992
			c-0.022,0.852,0.367,1.608,0.729,2.354c0.655,0.011,1.313,0.028,1.97,0.061c0.016,0.49,0.038,0.98,0.061,1.476
			c-0.272,0.145-0.546,0.295-0.818,0.445c0.185,1.597,1.353,2.859,1.954,4.324c-0.39,0.333-0.768,0.695-1.236,0.923
			c-0.695-0.295-1.19-0.883-1.758-1.353c-1.564-1.301-3.033-2.703-4.625-3.962c-0.373-0.306-0.729-0.623-1.085-0.94
			c-1.759,0.729-3.39,1.736-5.143,2.465c-1.381,0.563-2.75,1.147-4.152,1.659c0.507,0.747,1.086,1.525,0.996,2.478
			c-0.184-0.007-0.545-0.018-0.723-0.022c-0.924-0.675-1.826-1.381-2.761-2.037c-2.728,1.669-5.505,3.267-8.394,4.631
			c0.947-0.007,1.849,0.267,2.767,0.456c0.796,0.161,1.592,0.317,2.393,0.445c-3.896,1.401-7.857,2.598-11.737,4.051
			c-2.277,0.77-4.536,1.586-6.84,2.276c0.011-0.429,0.223-0.807,0.384-1.191c-0.902,0.324-1.771,0.73-2.694,1.008
			c-0.701,0.312-1.43,0.557-2.16,0.796c-1.492,0.68-3.116,1.007-4.658,1.559c-1.002,0.367-2.054,0.584-3.09,0.852
			c-0.784,0.233-1.597,0.34-2.354,0.657c-0.457,0.038-0.93,0.043-1.33,0.282c-0.54,0.045-1.113-0.016-1.598,0.269
			c-0.979,0.145-2.037-0.146-2.956,0.272c-0.206,0-0.617,0.005-0.823,0.005c-0.624-0.378-1.403-0.099-2.048-0.428
			c-0.713-0.234-1.335-0.662-1.814-1.236c-0.05-0.918-0.089-1.875,0.439-2.671c1.291-2.271,3.133-4.208,5.204-5.782
			c0.584-0.34,0.718,0.583,0.328,0.874c-0.99,1.162-2.009,2.627-1.658,4.246c0.339,0.54,0.873,0.907,1.402,1.236
			c0.54,0.094,1.063,0.311,1.614,0.321c1.976,0.034,4.002,0.072,5.911-0.474c0.451-0.043,0.924-0.049,1.341-0.262
			c0.445-0.049,0.902-0.076,1.313-0.266c1.364-0.273,2.672-0.735,4.023-1.035c0.262-0.112,0.529-0.213,0.796-0.307
			c2.188-0.534,4.269-1.431,6.401-2.159c1.09-0.383,2.165-0.813,3.211-1.313c5.098-1.849,9.874-4.514,14.76-6.856
			c0.233-0.3,0.461-0.602,0.695-0.901c-0.529-0.224-1.047-0.479-1.553-0.747c-1.058-0.539-2.198-0.917-3.188-1.574
			c0.411-0.173,0.823-0.484,1.302-0.384c1.402,0.228,2.738,0.896,4.19,0.802c0.078-0.818-0.395-1.964,0.512-2.459
			c0.763-0.74,1.442,0.411,2.031,0.813c0.14,0.155,0.307,0.277,0.501,0.367c0.095-0.139,0.273-0.412,0.362-0.545
			c1.258-0.824,2.448-1.764,3.429-2.9c-3.111-1.525-6.184-3.122-9.272-4.68c-0.473-0.224-0.512-0.874-0.991-1.091
			c-0.578-0.362-1.279-0.562-1.73-1.091c0.34-0.612,1.035-0.996,1.737-0.757c3.812,1.147,7.597,2.404,11.414,3.512
			c1.013,0.272,1.353-1.129,2.304-1.124c0.368-0.039,0.752-0.033,1.108,0.094c0.601,0.551,0.306,1.414,0.334,2.132
			c0.417-0.078,0.896-0.006,1.263-0.267c1.497-1.074,3.022-2.121,4.569-3.128c0.829-0.546,1.76-0.901,2.582-1.453
			c-0.104-0.095-0.317-0.272-0.422-0.362c0.673,0.278,1.413,0.017,2.097-0.128C86.285,36.592,86.491,36.363,86.507,35.958z"/>
		<radialGradient id="SVGID_17_" cx="40.1255" cy="56.0723" r="74.5026" gradientUnits="userSpaceOnUse">
			<stop  offset="0.0121" style="stop-color:#26A9E0"/>
			<stop  offset="0.0861" style="stop-color:#239CD7"/>
			<stop  offset="0.2235" style="stop-color:#1C79BE"/>
			<stop  offset="0.2364" style="stop-color:#1B75BB"/>
			<stop  offset="1" style="stop-color:#120742"/>
		</radialGradient>
		<path fill="url(#SVGID_17_)" d="M57.539,60.367c1.947-0.513,3.857-1.224,5.85-1.581c1.146,0.111,2.231,0.567,3.345,0.858
			c0.545,0.194,1.246,0.277,1.502,0.9c-8.715,2.294-17.497,4.342-26.224,6.596c-4.748,1.286-9.55,2.41-14.187,4.063l-0.272,0.117
			c-0.345,0.145-0.691,0.272-1.046,0.384c0.339-1.073,1.28-1.764,2.198-2.327c2.244-0.935,4.581-1.612,6.907-2.292
			c3.657-1.141,7.246-2.511,10.948-3.501C50.259,62.677,53.854,61.368,57.539,60.367z"/>
		<radialGradient id="SVGID_18_" cx="40.1245" cy="56.0723" r="74.506" gradientUnits="userSpaceOnUse">
			<stop  offset="0.0121" style="stop-color:#26A9E0"/>
			<stop  offset="0.0861" style="stop-color:#239CD7"/>
			<stop  offset="0.2235" style="stop-color:#1C79BE"/>
			<stop  offset="0.2364" style="stop-color:#1B75BB"/>
			<stop  offset="1" style="stop-color:#120742"/>
		</radialGradient>
		<path fill="url(#SVGID_18_)" d="M65.814,62.455c1.737-0.452,3.529-0.718,5.326-0.702c1.553,0.022,2.988,0.69,4.285,1.491
			c-0.344,0.096-0.689,0.194-1.035,0.262c-8.599,0.892-16.891,3.49-25.406,4.848c-6.217,1.113-12.389,2.432-18.54,3.847
			c-0.133,0.11-0.406,0.322-0.539,0.428c1.202,0.007,2.343-0.378,3.523-0.557c3.595-0.624,7.112-1.625,10.724-2.176
			c6.768-1.229,13.563-2.337,20.337-3.534c3.99-0.679,7.976-1.496,12.021-1.714c2.02,0.144,4.285,0.289,5.794,1.82
			c-1.292,0.322-2.622,0.272-3.936,0.307c-8.365,0.572-16.596,2.292-24.861,3.589c-8.332,1.335-16.707,2.358-24.972,4.096
			c-0.746,0.212-1.497,0.407-2.259,0.541c-0.334,0.054-0.668,0.094-0.997,0.139c0.212-0.284,0.429-0.574,0.579-0.901
			c0.708-0.418,1.464-0.725,2.232-0.992c0.595-0.144,1.202-0.244,1.787-0.416c-0.011-0.118-0.033-0.352-0.044-0.468
			c-0.529,0.083-1.052,0.217-1.564,0.378c-0.574,0.168-1.147,0.317-1.731,0.435c-0.173,0.021-0.512,0.071-0.685,0.094
			c0.185-1.029,1.208-1.508,2.065-1.881c2.076-0.145,4.058-0.852,6.044-1.431c4.263-1.163,8.554-2.198,12.851-3.227
			C53.158,65.359,59.465,63.808,65.814,62.455z"/>
		<radialGradient id="SVGID_19_" cx="40.1235" cy="56.0723" r="74.5035" gradientUnits="userSpaceOnUse">
			<stop  offset="0.0121" style="stop-color:#26A9E0"/>
			<stop  offset="0.0861" style="stop-color:#239CD7"/>
			<stop  offset="0.2235" style="stop-color:#1C79BE"/>
			<stop  offset="0.2364" style="stop-color:#1B75BB"/>
			<stop  offset="1" style="stop-color:#120742"/>
		</radialGradient>
		<path fill="url(#SVGID_19_)" d="M82.094,67.329c2.383-0.206,4.769-0.3,7.146-0.566c2.188-0.111,4.38-0.073,6.573-0.066
			c-3.395,2.927-6.891,5.737-10.318,8.626c-0.295,0.217-0.568,0.467-0.834,0.718c-0.029,0.022-0.085,0.071-0.118,0.101
			c-0.645,0.389-1.141,1.046-1.863,1.29c-1.381-0.016-2.778,0.129-4.142-0.177c-2.438-0.513-4.942-0.279-7.396-0.657
			c-3.361-0.562-6.773-0.39-10.162-0.418c-6.061,0-12.117-0.005-18.171-0.005c-1.709-0.033-3.395,0.267-5.099,0.255
			c-2.482,0.385-5.008,0.234-7.497,0.597c-0.979,0.083-1.959,0.139-2.933,0.184c-0.779,0.022-1.553,0.038-2.332,0.061
			c0.039-0.423,0.078-0.841,0.122-1.257c0.457-0.118,0.908-0.239,1.353-0.38c1.097-0.333,2.215-0.579,3.339-0.801
			c3.294-0.512,6.545-1.225,9.834-1.726c3.996-0.712,8.025-1.241,12.021-1.937C61.769,69.813,71.926,68.51,82.094,67.329z"/>
		<radialGradient id="SVGID_20_" cx="40.127" cy="56.0566" r="74.513" gradientUnits="userSpaceOnUse">
			<stop  offset="0.0121" style="stop-color:#26A9E0"/>
			<stop  offset="0.0861" style="stop-color:#239CD7"/>
			<stop  offset="0.2235" style="stop-color:#1C79BE"/>
			<stop  offset="0.2364" style="stop-color:#1B75BB"/>
			<stop  offset="1" style="stop-color:#120742"/>
		</radialGradient>
		<path fill="url(#SVGID_20_)" d="M36.902,77.209c1.858-0.329,3.751-0.251,5.632-0.313c9.278-0.05,18.555-0.083,27.838,0.051
			c0.506,0,1.007,0.078,1.508,0.172c2.121,0.362,4.291-0.094,6.4,0.345c2.082,0.43,4.224,0.373,6.323,0.702
			c3.4,0.528,6.922,0.706,10.14,2.025c-3.88,0.095-7.752-0.212-11.627-0.255c-1.592-0.045-3.184-0.033-4.769-0.09
			c-2.827-0.351-5.683-0.172-8.526-0.317c-2.315-0.183-4.642-0.106-6.963-0.127c-8.203-0.007-16.407-0.034-24.605-0.022
			c-2.125-0.022-4.246,0.21-6.372,0.222c-5.738,0.201-11.477,0.534-17.219,0.624c1.101-0.591,2.354-0.796,3.562-1.064
			c2.672-0.517,5.376-0.794,8.07-1.141c0.2-0.011,0.601-0.044,0.801-0.056c1.636-0.166,3.267-0.295,4.903-0.506
			C33.635,77.448,35.26,77.214,36.902,77.209z"/>
		<radialGradient id="SVGID_21_" cx="40.1279" cy="56.0664" r="74.5074" gradientUnits="userSpaceOnUse">
			<stop  offset="0.0121" style="stop-color:#26A9E0"/>
			<stop  offset="0.0861" style="stop-color:#239CD7"/>
			<stop  offset="0.2235" style="stop-color:#1C79BE"/>
			<stop  offset="0.2364" style="stop-color:#1B75BB"/>
			<stop  offset="1" style="stop-color:#120742"/>
		</radialGradient>
		<path fill="url(#SVGID_21_)" d="M38.644,80.765c4.141-0.251,8.287-0.39,12.433-0.334c4.915,0.017,9.823-0.049,14.737,0.045
			c4.876,0.179,9.74,0.539,14.593,1.08c2.739,0.384,5.571,0.572,8.17,1.603c-3.05,0.116-6.095-0.111-9.144-0.134
			c-3.479-0.229-6.968-0.156-10.446-0.367c-7.392-0.189-14.788-0.084-22.185-0.129c-7.407-0.121-14.799,0.429-22.195,0.635
			c-0.901,0.012-1.825,0.123-2.715-0.061c2.031-0.702,4.185-0.968,6.3-1.308c0.562-0.072,1.125-0.156,1.687-0.224
			c1.096-0.071,2.192-0.217,3.289-0.34C34.987,81.025,36.83,81.032,38.644,80.765z"/>
	</g>
</g>
</svg>
