<?xml version="1.0" encoding="utf-8"?>
<!-- Generator: Adobe Illustrator 16.0.0, SVG Export Plug-In . SVG Version: 6.00 Build 0)  -->
<!DOCTYPE svg PUBLIC "-//W3C//DTD SVG 1.1//EN" "http://www.w3.org/Graphics/SVG/1.1/DTD/svg11.dtd">
<svg version="1.1" id="Layer_1" xmlns="http://www.w3.org/2000/svg" xmlns:xlink="http://www.w3.org/1999/xlink" x="0px" y="0px"
	 width="100px" height="100px" viewBox="0 0 100 100" enable-background="new 0 0 100 100" xml:space="preserve">
<g>
	<radialGradient id="SVGID_1_" cx="40.9209" cy="37.5869" r="66.7556" gradientUnits="userSpaceOnUse">
		<stop  offset="0" style="stop-color:#00ADEE"/>
		<stop  offset="0.0016" style="stop-color:#01ADEE"/>
		<stop  offset="0.0526" style="stop-color:#15ABE6"/>
		<stop  offset="0.1029" style="stop-color:#22A9E2"/>
		<stop  offset="0.1515" style="stop-color:#26A9E0"/>
		<stop  offset="0.3273" style="stop-color:#1B75BB"/>
		<stop  offset="0.5212" style="stop-color:#2B388F"/>
		<stop  offset="0.7576" style="stop-color:#1C1651"/>
		<stop  offset="1" style="stop-color:#120742"/>
	</radialGradient>
	<path fill="url(#SVGID_1_)" d="M74.477,31.472c-5.445,0.1-10.891,0.343-16.295,1.139c-6.856,1.028-13.773,2.399-20.438,4.325
		c-4.205,1.251-8.419,2.723-12.231,4.911c-5.344,2.823-10.854,7.573-11.162,14.046c1.417-0.635,2.848-1.241,4.305-1.805
		c4.568-1.261,9.428-1.825,14.106-0.746c1.26,0.291,2.511,0.665,3.781,0.998c2.864,1.079,5.656,2.369,8.147,4.164
		c2.541-1.593,5.152-3.056,7.946-4.144c2.035-0.656,4.093-1.23,6.19-1.705c3.479-0.503,7.037-0.463,10.445,0.475
		c2.108,0.534,3.912,1.825,5.99,2.409c1.411-1.4,3.115-2.682,5.151-2.884c-2.047-0.423-4.285-0.816-5.767-2.459
		c-1.543-1.715-1.805-4.104-1.401-6.191c0.433-2.199,2.057-3.902,3.831-5.253c-1.956,0.251-3.912,0.523-5.889,0.474
		c-2.137-0.303-4.557-1.14-5.324-3.116c-0.322-0.887-0.06-1.886-0.1-2.823c5.041-0.948,10.173-1.16,15.285-1.392
		C78.872,31.492,76.674,31.482,74.477,31.472z"/>
	<radialGradient id="SVGID_2_" cx="40.9209" cy="37.5874" r="66.7484" gradientUnits="userSpaceOnUse">
		<stop  offset="0" style="stop-color:#00ADEE"/>
		<stop  offset="0.0016" style="stop-color:#01ADEE"/>
		<stop  offset="0.0526" style="stop-color:#15ABE6"/>
		<stop  offset="0.1029" style="stop-color:#22A9E2"/>
		<stop  offset="0.1515" style="stop-color:#26A9E0"/>
		<stop  offset="0.3273" style="stop-color:#1B75BB"/>
		<stop  offset="0.5212" style="stop-color:#2B388F"/>
		<stop  offset="0.7576" style="stop-color:#1C1651"/>
		<stop  offset="1" style="stop-color:#120742"/>
	</radialGradient>
	<path fill="url(#SVGID_2_)" d="M5.599,56.195c0.801-5.122,4.209-9.428,8.263-12.473c6.383-4.81,14.152-7.27,21.835-9.105
		c10.042-2.258,20.317-3.548,30.612-3.862c0.695-1.693,1.291-3.438,2.138-5.061c-1.714,1.229-3.186,2.854-5.213,3.599
		c-1.482,0.716-3.479,0.867-4.729-0.373c-2.521-2.077-2.38-5.656-2.3-8.621c-1.472,2.641-4.013,5.535-7.39,4.83
		c-3.388-0.787-4.79-4.417-5.496-7.441c-0.443,1.855-0.948,3.73-1.946,5.375c-0.917,1.432-2.631,2.46-4.355,2.127
		c-2.258-0.404-3.821-2.249-5.152-3.953c0.222,2.772-0.283,6.09-2.914,7.623c-2.703,2.168-6.398,0.353-8.389-1.916
		c0.681,2.228,1.578,4.487,1.376,6.867c-0.115,1.573-0.634,3.307-2.076,4.164c-2.335,1.624-5.324,0.856-7.845,0.162
		c0.716,0.786,1.422,1.583,2.122,2.39C8.336,44.59,3.804,51.063,3.668,58.333c-0.231,7.863,3.998,15.003,8.898,20.831
		c1.734,1.704,3.024,3.882,5.117,5.193c-2.914-2.894-5.324-6.263-7.511-9.73C7.021,69.091,4.454,62.668,5.599,56.195z"/>
	<radialGradient id="SVGID_3_" cx="40.9033" cy="37.5869" r="66.7748" gradientUnits="userSpaceOnUse">
		<stop  offset="0" style="stop-color:#00ADEE"/>
		<stop  offset="0.0016" style="stop-color:#01ADEE"/>
		<stop  offset="0.0526" style="stop-color:#15ABE6"/>
		<stop  offset="0.1029" style="stop-color:#22A9E2"/>
		<stop  offset="0.1515" style="stop-color:#26A9E0"/>
		<stop  offset="0.3273" style="stop-color:#1B75BB"/>
		<stop  offset="0.5212" style="stop-color:#2B388F"/>
		<stop  offset="0.7576" style="stop-color:#1C1651"/>
		<stop  offset="1" style="stop-color:#120742"/>
	</radialGradient>
	<path fill="url(#SVGID_3_)" d="M92.271,30.705c1.383-1.643,2.914-3.186,4.135-4.961c-0.253,0.03-0.746,0.091-0.998,0.111
		c-2.158,1.674-3.67,4.084-5.909,5.687c-0.766-0.12-1.593-0.241-2.077-0.938c-1.431,1.271-2.258-1.22-3.801-1.108
		c0.414,1.059,0.877,2.086,1.361,3.115c-0.686,0.686-1.331,1.421-1.875,2.229c1.461-0.534,2.61-2.39,4.314-1.664
		c-1.148,1.553-2.772,2.683-3.932,4.225c3.044-0.05,4.275-4.527,7.683-3.649c1.694-0.646,4.154-0.515,5.103-2.289
		c0-0.232-1.181-0.192-1.573-0.253C94.048,30.554,93.088,30.715,92.271,30.705z"/>
	<radialGradient id="SVGID_4_" cx="41.6641" cy="47.5742" r="64.8946" gradientUnits="userSpaceOnUse">
		<stop  offset="0" style="stop-color:#00A69C"/>
		<stop  offset="1" style="stop-color:#00423D"/>
	</radialGradient>
	<path fill="url(#SVGID_4_)" d="M27.59,55.218c-1.634,0.05-3.268,0.21-4.88,0.503c-3.061,0.856-6.267,1.704-8.813,3.69
		c4.325-0.948,9.039-1.553,13.168,0.454c3.569,1.926,6.826,4.436,10.668,5.808c3.084,1.23,6.493,1.502,9.739,0.867
		c0.888-0.182,1.775-0.384,2.642-0.604c-0.907-1.342-2.48-2.714-3.428-3.479C41.343,58.102,34.607,55.065,27.59,55.218z"/>
	<radialGradient id="SVGID_5_" cx="41.666" cy="47.5728" r="64.915" gradientUnits="userSpaceOnUse">
		<stop  offset="0" style="stop-color:#00A69C"/>
		<stop  offset="1" style="stop-color:#00423D"/>
	</radialGradient>
	<path fill="url(#SVGID_5_)" d="M65.18,54.914c-2.793-0.343-5.597,0.011-8.339,0.523c-3.317,0.899-6.665,2.067-9.508,4.044
		c0.766,0.816,1.049,1.079,1.572,1.574c0.394,0.372,0.787,0.746,1.18,1.13c0.837,0.927,1.604,1.896,2.359,2.894
		c3.963-3.49,8.702-6.282,13.985-7.1c3.177-0.323,6.393,0.293,9.226,1.755c-2.107-2.058-4.91-3.6-7.733-4.195
		C67.034,55.218,66.107,55.046,65.18,54.914z"/>
	<radialGradient id="SVGID_6_" cx="41.6538" cy="47.5688" r="64.9362" gradientUnits="userSpaceOnUse">
		<stop  offset="0" style="stop-color:#00A69C"/>
		<stop  offset="1" style="stop-color:#00423D"/>
	</radialGradient>
	<path fill="url(#SVGID_6_)" d="M63.788,60.753c-4.325,1.976-8.349,4.547-12.181,7.35c2.157,0,4.296-0.021,6.434,0.191
		c0.686,0.142,1.351,0.293,2.036,0.444c2.723,0.615,5.313,1.785,7.502,3.519c2.954-2.107,5.041-5.183,6.695-8.358
		c0.423-0.727,0.625-1.543,0.786-2.37C71.955,59.653,66.066,59.704,63.788,60.753z"/>
	<radialGradient id="SVGID_7_" cx="41.6606" cy="47.5776" r="64.8945" gradientUnits="userSpaceOnUse">
		<stop  offset="0" style="stop-color:#00A69C"/>
		<stop  offset="1" style="stop-color:#00423D"/>
	</radialGradient>
	<path fill="url(#SVGID_7_)" d="M31.321,73.266c1.069-0.111,2.107-0.313,3.166-0.474c3.691-0.677,7.059-2.39,10.607-3.499
		c-4.002-0.463-7.985-1.32-11.636-3.097c-3.146-1.34-5.848-3.649-9.215-4.466c-2.48-0.665-5.148-0.756-7.588-0.07
		c-0.65,0.191-1.628,0.635-2.521,0.998c0.187,0.635,0.293,1.301,0.565,1.916c0.933,2.077,3.312,5.403,6.04,6.846
		C23.93,73.266,27.731,73.498,31.321,73.266z"/>
	<radialGradient id="SVGID_8_" cx="41.6665" cy="47.5674" r="64.9186" gradientUnits="userSpaceOnUse">
		<stop  offset="0" style="stop-color:#00A69C"/>
		<stop  offset="1" style="stop-color:#00423D"/>
	</radialGradient>
	<path fill="url(#SVGID_8_)" d="M58.837,70.745l-0.03-0.101c-7.956-1.504-15.467,2.318-23.08,3.973
		c-5.818,1.259-12.216,0.847-17.59-2.007c2.234,2.602,5.037,4.688,7.981,6.433c1.341,0.826,2.742,1.582,4.194,2.198
		c1.371,0.585,2.762,1.109,4.214,1.472c11.435,3.489,23.876-1.009,32.407-8.854c-0.282-0.149-0.847-0.452-1.129-0.604
		C63.627,72.045,61.268,71.208,58.837,70.745z"/>
</g>
</svg>
