<?xml version="1.0" encoding="utf-8"?>
<!-- Generator: Adobe Illustrator 16.0.0, SVG Export Plug-In . SVG Version: 6.00 Build 0)  -->
<!DOCTYPE svg PUBLIC "-//W3C//DTD SVG 1.1//EN" "http://www.w3.org/Graphics/SVG/1.1/DTD/svg11.dtd">
<svg version="1.1" id="Layer_1" xmlns="http://www.w3.org/2000/svg" xmlns:xlink="http://www.w3.org/1999/xlink" x="0px" y="0px"
	 width="100px" height="100px" viewBox="0 0 100 100" enable-background="new 0 0 100 100" xml:space="preserve">
<g>
	<radialGradient id="SVGID_1_" cx="55.9688" cy="32.1494" r="59.7587" gradientUnits="userSpaceOnUse">
		<stop  offset="0" style="stop-color:#44C7F4"/>
		<stop  offset="0.1775" style="stop-color:#22BAF1"/>
		<stop  offset="0.3758" style="stop-color:#00ADEE"/>
		<stop  offset="0.4645" style="stop-color:#00A6E6"/>
		<stop  offset="0.6041" style="stop-color:#0092CF"/>
		<stop  offset="0.7772" style="stop-color:#0072AA"/>
		<stop  offset="0.9754" style="stop-color:#004678"/>
		<stop  offset="1" style="stop-color:#004071"/>
	</radialGradient>
	<path fill="url(#SVGID_1_)" d="M95.328,66.772c0.139-2.548-1.725-4.531-2.936-6.577c0.087-1.054-0.102-2.083-0.477-3.063
		c-0.773-1.682-1.84-3.207-3.039-4.612c-3.563-4.104-7.769-7.593-12.086-10.87c3,3.214,6.105,6.477,7.995,10.494
		c0.734,1.574,1.179,3.834-0.396,5.063c-2.146,1.544-4.95,1.205-7.442,1.111c-2.29-0.2-4.53-0.778-6.797-1.062l0.133-0.093
		c-2.83-0.553-5.566-1.5-8.365-2.19l-0.276,0.056l0.02-0.182c-2.485-0.848-4.971-1.67-7.438-2.566
		c-3.019-1.147-6.024-2.341-8.999-3.608c-1.732-0.784-3.489-1.519-5.203-2.36c-1.901-0.878-3.784-1.813-5.632-2.793
		c-1.239-0.652-2.431-1.38-3.665-2.033c-1.816-1.261-3.982-2.214-5.274-4.079l0.417,0.012l0.041-0.163
		c1.067-1.311,2.087-2.667,3.232-3.916l0.084,0.025c0.434-0.439,0.866-0.885,1.306-1.324c0.765,0.602,1.512,1.242,2.255,1.869
		l0.12-0.019c1.066,0.903,2.221,1.694,3.386,2.466l0.069-0.012c0.851,0.584,1.735,1.117,2.627,1.65
		c-0.502,0.709-0.979,1.443-1.252,2.278c-0.421,0.878-0.563,1.851-0.732,2.805c1.124-1.418,2.191-2.887,3.377-4.261
		c1.833,0.878,3.602,1.901,5.484,2.673c1.519,0.703,3.076,1.349,4.632,1.952c3.363,1.236,6.784,2.334,10.292,3.05
		c-0.903,2.196-2.209,4.186-3.652,6.057c2.623-0.948,4.293-3.29,5.592-5.63c1.794,0.195,3.59,0.49,5.403,0.515
		c1.493,0.013,2.861-0.691,4.123-1.418c-2.881,0.194-5.755-0.201-8.554-0.822c0.377-0.941,0.753-1.876,1.136-2.817
		c0.396-1.111,0.722-2.253,1.022-3.395c0.101-0.357,0.201-0.716,0.302-1.073c1.154,0.357,2.322,0.721,3.502,1.023
		c-0.948-0.892-1.983-1.689-2.943-2.561l-0.245,0.006c0.057-0.583,0.113-1.161,0.17-1.732l0.063,0.019
		c0.106-0.389,0.22-0.778,0.332-1.161c0.992,1.6,2.335,2.956,3.264,4.6c2.887,4.719,3.941,10.374,3.615,15.853
		c0.288,0.075,0.859,0.227,1.142,0.302c0.954-8.441-2.146-17.177-8.184-23.145c-2.517-2.454-5.459-4.443-8.672-5.874
		c-3.163-1.349-6.552-2.115-9.979-2.285c-3.703-0.207-7.38,0.458-10.894,1.594l0.002,0.095c-4.625,1.581-8.758,4.524-11.911,8.246
		h-0.078c-1.08,1.462-2.24,2.88-3.047,4.524l-0.087,0.006c-0.753,1.5-1.465,3.025-2.033,4.613c0.314,0.289,0.63,0.571,0.944,0.86
		c1.208,1.079,2.485,2.077,3.778,3.043c1.469,1.073,2.93,2.159,4.461,3.138c1.579,1.116,3.213,2.145,4.842,3.181
		c2.158,1.336,4.301,2.705,6.529,3.916l-0.025,0.031c2.869,1.626,5.736,3.244,8.673,4.751c2.692,1.412,5.435,2.736,8.196,4.017
		c2.735,1.224,5.466,2.447,8.277,3.471c2.705,1.054,5.466,2.001,8.277,2.741c2.284,0.654,4.606,1.188,6.966,1.507
		c3.678,0.414,7.669,0.576,11.032-1.224C93.817,70.525,95.518,68.874,95.328,66.772z M33.854,29.797
		c1.581-1.23,3.442-2.015,5.31-2.699c1.267-0.37,2.56-0.665,3.853-0.954c0.772,0.584,1.55,1.161,2.354,1.701
		c0.759,0.521,1.512,1.048,2.259,1.594c-0.364,0.251-0.734,0.515-1.099,0.778c-1.192,0.86-2.353,1.77-3.407,2.799
		c-0.671,0.653-1.312,1.349-1.946,2.04c-0.816-0.533-1.625-1.067-2.428-1.613C37.066,32.294,35.463,31.045,33.854,29.797z
		 M64.303,31.409c-0.125,0.999-0.226,2.002-0.339,3.007c-0.025,0.188-0.082,0.571-0.113,0.759c-1.412-0.678-2.812-1.38-4.198-2.127
		c-1.726-1.003-3.451-2.008-5.14-3.063c-0.226-0.15-0.665-0.446-0.891-0.589c1.437-0.747,2.999-1.212,4.556-1.625
		C60.349,28.743,62.426,29.935,64.303,31.409z M50.916,27.55c-0.319-0.245-0.646-0.49-0.965-0.741
		c-0.396-0.32-0.785-0.659-1.161-0.998c1.594-0.019,3.169,0.214,4.707,0.653C52.617,26.772,51.764,27.161,50.916,27.55z
		 M63.567,37.07c-0.112,0.603-0.231,1.205-0.363,1.807c-0.27,1.243-0.577,2.479-0.947,3.703c-0.214,0.697-0.465,1.38-0.716,2.064
		c-2.283-0.715-4.55-1.494-6.759-2.403c-1.299-0.571-2.604-1.142-3.884-1.764c-1.757-0.922-3.565-1.763-5.291-2.749
		c-0.885-0.496-1.739-1.054-2.599-1.601c1.136-0.916,2.229-1.889,3.395-2.755c1.237-0.866,2.523-1.657,3.753-2.51
		c1.983,1.111,3.978,2.203,6.049,3.138c2.184,0.979,4.368,1.951,6.627,2.749C63.017,36.826,63.387,36.989,63.567,37.07z
		 M86.086,66.91c-2.895,0.753-5.932,0.747-8.887,0.446c-2.906-0.314-5.768-0.923-8.573-1.713c-2.817-0.81-5.604-1.776-8.315-2.899
		c-2.843-1.161-5.629-2.479-8.358-3.897c-3-1.563-5.937-3.244-8.811-5.046c-1.738-1.08-3.464-2.185-5.152-3.351
		c-1.515-1.018-3-2.072-4.474-3.145c-1.255-0.903-2.498-1.826-3.718-2.768c-0.518-0.401-1.033-0.796-1.538-1.205
		c1.318,0.785,2.591,1.638,3.907,2.429c1.601,0.948,3.216,1.876,4.857,2.755c1.726,0.936,3.47,1.833,5.228,2.698
		c2.887,1.418,5.798,2.773,8.76,4.029c2.416,1.042,4.863,2.021,7.336,2.938c2.743,1.017,5.504,1.971,8.303,2.799
		c2.284,0.678,4.594,1.28,6.922,1.775c4.581,0.91,9.357,1.677,13.988,0.746c0.754-0.182,1.507-0.389,2.26-0.576
		C90.146,65.179,87.923,66.402,86.086,66.91z"/>
	<g>
		<radialGradient id="SVGID_2_" cx="7.1748" cy="31.9463" r="57.4044" gradientUnits="userSpaceOnUse">
			<stop  offset="0" style="stop-color:#929497"/>
			<stop  offset="0.6727" style="stop-color:#404041"/>
			<stop  offset="1" style="stop-color:#231F20"/>
		</radialGradient>
		<path fill="url(#SVGID_2_)" d="M53.069,68.253c-3.25-1.567-6.42-3.288-9.564-5.045c-2.573-1.538-5.146-3.043-7.641-4.7
			c-1.281-0.816-2.542-1.664-3.788-2.529c-2.089-1.449-4.142-2.949-6.156-4.499c-2.178-1.601-4.151-3.458-6.292-5.103
			c-1.911-1.951-3.989-3.746-5.92-5.691l0.015-0.082c-3.991-4.167-7.434-8.873-9.931-14.076c-0.167,1.845-0.016,3.709,0.398,5.517
			c0.352,1.694,1.497,3.043,2.353,4.499c2.083,3.163,4.372,6.2,6.954,8.975c1.81,2.177,3.853,4.16,5.899,6.118
			c1.999,1.895,4.007,3.796,6.2,5.473l-0.006,0.057c2.122,1.649,4.107,3.481,6.348,4.976l-0.003,0.095
			c1.255,0.859,2.432,1.832,3.706,2.667l-0.009,0.076c2.539,1.668,4.929,3.563,7.559,5.096l-0.019,0.105
			c0.546,0.326,1.085,0.659,1.62,1.004c-0.446-0.125-0.878-0.257-1.312-0.389c-1.267-0.608-2.522-1.236-3.803-1.832v-0.039
			c-2.143-1.103-4.226-2.333-6.288-3.576c-4.801-3.03-9.476-6.251-14.088-9.551c1.158,8.497,6.486,16.335,14,20.477v0.056
			c1.99,1.099,4.096,1.971,6.27,2.618c1.261,0.319,2.542,0.59,3.834,0.784c3.213,0.427,6.488,0.314,9.664-0.333
			c1.394-0.307,2.761-0.708,4.104-1.179c3.137-1.23,6.112-2.918,8.622-5.185c-2.975-0.646-5.824-1.757-8.629-2.924
			C55.793,69.521,54.438,68.861,53.069,68.253z"/>
	</g>
</g>
</svg>
