<?xml version="1.0" encoding="utf-8"?>
<!-- Generator: Adobe Illustrator 16.0.0, SVG Export Plug-In . SVG Version: 6.00 Build 0)  -->
<!DOCTYPE svg PUBLIC "-//W3C//DTD SVG 1.1//EN" "http://www.w3.org/Graphics/SVG/1.1/DTD/svg11.dtd">
<svg version="1.1" id="Layer_1" xmlns="http://www.w3.org/2000/svg" xmlns:xlink="http://www.w3.org/1999/xlink" x="0px" y="0px"
	 width="100px" height="100px" viewBox="0 0 100 100" enable-background="new 0 0 100 100" xml:space="preserve">
<g>
	<path fill="#26A9E0" d="M80.429,41.674l-0.161-0.042c-5.423-1.348-11.001-2.193-16.634-2.431c-5.63-0.227-11.313,0.147-16.868,1.23
		c-3.775,0.737-7.486,1.817-11.056,3.238c0.861-1.524,1.858-2.973,3.007-4.283c1.225-1.403,2.624-2.652,4.183-3.671
		c1.556-1.021,3.274-1.808,5.095-2.318c1.819-0.512,3.734-0.75,5.671-0.741c1.938,0.007,3.893,0.257,5.822,0.68
		c3.864,0.857,7.604,2.395,11.166,4.251c-3.357-2.207-6.949-4.139-10.841-5.427c-1.944-0.642-3.97-1.114-6.044-1.333
		c-2.076-0.22-4.206-0.18-6.311,0.188c-2.101,0.365-4.168,1.063-6.088,2.06c-1.922,0.995-3.693,2.278-5.272,3.749
		c-1.583,1.474-2.979,3.13-4.201,4.903c-0.61,0.888-1.176,1.805-1.698,2.752c-0.262,0.475-0.512,0.956-0.751,1.45
		c-0.119,0.247-0.236,0.496-0.349,0.752c-0.024,0.053-0.047,0.106-0.07,0.16c-0.678,0.381-1.347,0.777-2.007,1.188
		c0.012-0.268,0.031-0.536,0.061-0.807c0.214-1.947,0.823-3.927,1.687-5.829c0.863-1.906,1.979-3.741,3.246-5.486
		c1.269-1.746,2.689-3.405,4.203-4.985c-1.781,1.274-3.501,2.653-5.119,4.179c-1.616,1.526-3.129,3.199-4.446,5.072
		c-1.313,1.874-2.435,3.954-3.15,6.272c-0.356,1.158-0.607,2.375-0.707,3.643c-0.024,0.311-0.033,0.626-0.036,0.948
		c-0.815,0.644-1.614,1.308-2.373,2.012c-0.512,0.477-1.011,0.962-1.486,1.474c-0.475,0.512-0.945,1.024-1.359,1.584
		c1.119-0.814,2.293-1.524,3.472-2.21c1.183-0.68,2.383-1.318,3.598-1.915c2.427-1.2,4.916-2.233,7.435-3.146
		c5.046-1.808,10.242-3.066,15.503-3.848c5.263-0.782,10.593-1.078,15.934-0.963c4.604,0.086,9.214,0.468,13.821,1.071
		c-0.01,0.019-0.016,0.038-0.025,0.056c-0.356,0.725-0.797,1.441-1.271,2.145c-0.964,1.4-2.104,2.727-3.365,3.942
		c-1.259,1.217-2.646,2.326-4.151,3.282c-1.505,0.952-3.132,1.762-4.892,2.326c1.85-0.04,3.72-0.441,5.493-1.103
		c1.779-0.654,3.475-1.563,5.059-2.641c1.578-1.089,3.057-2.349,4.369-3.813c0.663-0.729,1.273-1.516,1.83-2.376
		c0.551-0.866,1.063-1.792,1.398-2.917c0.01-0.025,0.018-0.058,0.024-0.084C82.023,42.922,81.422,41.921,80.429,41.674z"/>
	<path fill="#58595B" d="M6.005,66.027c1.61-0.882,3.282-1.654,4.979-2.354c1.698-0.704,3.427-1.334,5.18-1.908
		c3.507-1.132,7.117-2.006,10.817-2.548c0.926-0.133,1.855-0.245,2.79-0.336c0.936-0.087,1.877-0.143,2.824-0.18
		c1.891-0.077,3.801-0.018,5.72,0.173c1.918,0.193,3.841,0.557,5.744,1.11c0.948,0.283,1.887,0.623,2.81,1.019l2.499,1.094
		c1.639,0.732,3.285,1.441,4.924,2.11c1.634,0.685,3.275,1.304,4.906,1.849c1.632,0.547,3.269,0.973,4.9,1.248
		c0.816,0.136,1.639,0.219,2.458,0.261c0.821,0.045,1.646,0.038,2.479-0.021c3.323-0.215,6.722-1.223,10.103-2.399
		c3.391-1.178,6.763-2.554,10.209-3.806c-1.474,1.093-2.973,2.146-4.509,3.141c-1.536,1.002-3.107,1.955-4.724,2.85
		c-1.621,0.888-3.292,1.72-5.054,2.421c-0.881,0.356-1.785,0.666-2.713,0.938c-0.927,0.271-1.876,0.506-2.849,0.662
		c-0.971,0.162-1.957,0.266-2.952,0.305c-0.993,0.038-1.987,0-2.971-0.084c-1.969-0.166-3.879-0.583-5.719-1.089
		c-1.839-0.506-3.608-1.143-5.348-1.799c-1.729-0.672-3.423-1.389-5.104-2.115l-2.479-1.112c-0.738-0.331-1.506-0.611-2.29-0.867
		c-1.567-0.517-3.216-0.865-4.897-1.124c-1.683-0.262-3.403-0.388-5.14-0.462c-0.869-0.033-1.742-0.041-2.618-0.033
		c-0.877,0-1.756,0.024-2.637,0.065c-3.525,0.149-7.079,0.543-10.635,1.064C13.15,64.622,9.59,65.274,6.005,66.027z"/>
	<path fill="#58595B" d="M51.503,56.682c1.768,1.024,3.564,1.771,5.378,2.325c1.81,0.55,3.63,0.89,5.438,1.006
		c3.614,0.246,7.172-0.349,10.632-1.512c3.463-1.16,6.816-2.859,10.135-4.786c1.669-0.961,3.313-1.992,4.981-3.045l2.521-1.597
		c0.845-0.537,1.696-1.077,2.586-1.592c-0.501,0.898-1.06,1.75-1.648,2.58c-0.592,0.832-1.224,1.631-1.878,2.413
		c-1.315,1.563-2.765,3.015-4.322,4.366c-3.124,2.682-6.758,4.929-10.827,6.292c-2.032,0.681-4.169,1.127-6.342,1.256
		c-2.174,0.134-4.379-0.055-6.483-0.602c-2.101-0.548-4.096-1.436-5.845-2.637c-0.875-0.601-1.689-1.271-2.426-2.015
		C52.674,58.388,52.003,57.587,51.503,56.682z"/>
</g>
</svg>
