<?xml version="1.0" encoding="utf-8"?>
<!-- Generator: Adobe Illustrator 18.1.0, SVG Export Plug-In . SVG Version: 6.00 Build 0)  -->
<svg version="1.1" id="Layer_1" xmlns="http://www.w3.org/2000/svg" xmlns:xlink="http://www.w3.org/1999/xlink" x="0px" y="0px"
	 viewBox="0 0 150 150" enable-background="new 0 0 150 150" xml:space="preserve">
<g>
	<g>
		<path fill-rule="evenodd" clip-rule="evenodd" fill="#56BAE0" d="M127.2,116.5l-0.6-0.5l-1-0.5l-1.2-0.4l-1.3-0.4l-1.3-0.2
			l-1.1-0.2l-0.7,0l-0.1-0.2l-0.2-0.3l-0.2-0.3l-0.2-0.4l-0.3-0.5l-0.4-0.6l-1.2-1.7l-1.3-1.4l-1.5-1.2l-1.6-1.1l-1.7-0.9l-1.7-0.8
			l-1.8-0.7l-1.8-0.5l-0.5-0.7l-0.4-0.6l-0.5-0.7l-0.4-0.6l-0.4-0.6l-0.4-0.6l-0.5-0.6l-0.5-0.5l-0.6-0.4l-1.1-0.7l-0.5-0.3
			l-0.5-0.3l-0.6-0.2l-0.6-0.2L98,96.7l-0.6-0.4L96.9,96l-0.6-0.3l-0.5-0.2l-0.6-0.2l-0.6-0.2l-0.6-0.2l-0.5-0.2v-0.1l0.3-0.4v-0.9
			l-0.3-1.3l-0.1-0.3c-2.6,0-5.3-0.4-7.9-1.2c-1.1,0.2-2.2,0.3-3.3,0.3c-0.2,0-0.4,0-0.6,0l-0.1,0.4l-0.2,0.7l-0.1,0.6h-2.6
			l-0.9,0.1l-0.8,0.1l-0.9,0.2l-0.8,0.2l-0.8,0.2l-0.8,0.2l-0.8,0.2L71.9,94l-1.3,0.4l-1.2,0.5l-1.2,0.5l-1.1,0.6L66,96.4L64.9,97
			l-1.1,0.6l-1.1,0.7l-1.1,0.2l-1,0.3l-1,0.3l-0.9,0.4l-0.9,0.4l-0.9,0.5l-0.9,0.4l-0.9,0.5l-0.3,0.2l-0.3,0.2l-0.3,0.2l-0.3,0.2
			l-1.6,0.1l-1.5,0.2l-1.5,0.3l-1.4,0.4l-1.5,0.4L45,104l-1.4,0.5l-1.3,0.7l-0.9,0.5l-0.8,0.6l-0.8,0.6l-0.7,0.6l-0.8,0.6l-0.7,0.6
			l-0.8,0.6l-0.8,0.6l-0.5,0.2l-0.5,0.2l-0.5,0.2l-0.4,0.3l-0.5,0.2l-0.4,0.4l-0.4,0.3l-0.4,0.4l-0.9,0.2l-1.1,0.2l-1.4,0.2
			l-1.4,0.2l-1.5,0.2l-1.2,0.3l-0.9,0.4l-0.5,0.5l0.4,0.9l1.1,0.7l1.6,0.6l1.9,0.5l2,0.3l2,0.2l1.7,0.2l1.3,0.2h-0.1l-0.2,0.1h-0.2
			l-0.2,0.1l-0.4,0.1l-0.4,0.2l-0.5,0.1l-0.5,0.2l-0.6,0.2l-0.6,0.2l-0.6,0.2l-0.5,0.3l-0.5,0.3l-0.3,0.4v0.5l0.2,0.4l0.2,0.4
			l0.3,0.3l0.3,0.2l0.5,0.2l0.5,0.2l0.6,0.2l2.4,0.4l2.5,0.3l2.5,0.2l2.5,0.2l2.5,0.1l2.6,0.1l2.5,0.2l2.6,0.2l0.5,0H54l1,0l1.1,0
			h1.1l1,0.1l0.7,0.1l0.4,0.2h-0.1l0,0l-0.2,0l-0.3,0.2l-0.2,0l-0.3,0.2l-0.2,0.1l-0.2,0.1l-0.2,0.1l-0.2,0.1l-0.3,0.4l-0.3,0.3
			l-0.4,0.3l-0.3,0.4l0.3,0.6l0.7,0.5l1.1,0.4l1.4,0.3l2.7,0.3l1.1,0l0.9,0l3.1-0.2l3.1,0l3.1,0l3.2,0.1H80l3.2,0.1l3.2,0.1l3.2,0.1
			l2.2,0h2.4l2.4,0l2.4-0.1l2.4-0.2l2.4-0.3l2.3-0.4l2.2-0.5l1.3-0.9l0.5-0.8l-0.2-0.8l-0.6-0.7l-0.9-0.8l-1-0.7l-1-0.7l-0.8-0.6
			l-0.5-0.3l-0.5-0.3l-0.5-0.3l-0.5-0.3l-0.6-0.4l-0.6-0.2l-0.5-0.2l-0.4-0.1v-0.1l0.1,0h0.5l0.5,0l0.6,0l0.6,0.1l0.5,0l0.6,0.1
			l0.6,0l0.6,0.1l1.2-0.2l1.3-0.2l1.3-0.1l1.3-0.1l1.3-0.1l1.3-0.1l1.3-0.1h1.3l1.3-0.2l1.4-0.1l1.4-0.1l1.5-0.1l1.4-0.2l1.4-0.3
			l1.3-0.5l1.2-0.6L127.2,116.5z"/>
	</g>
	<path fill-rule="evenodd" clip-rule="evenodd" fill="#BFD140" d="M144.7,55.4l0.3-0.3l-0.1-0.3l-1-0.5l-3-1.1l-1.8-0.8l-2-0.5
		l-1.7-0.3l-1.9-0.1l-2-0.1l-1.7,0.2l-0.9,0.3l-0.9,0.4l-0.9,0.5l-0.9,0.3l-0.4,0.2l0.5-1.6l-1.6-3.7l2.6,1.5l0.6-2.1l-0.9-2.9
		l3.2,1.8l0.8-1.7l-0.5-0.9l-0.9-1.6l3.2-0.1l0.4-3l-0.1-0.4l-0.3-0.3h-0.4l-0.5,0.2l-2.3,1.1l-1.6,0.8l-1.4,1l-0.9,0.7l-0.7,0.8
		l-1.3,1.7l-1.3,2.2l-1,2.3l-1.2,4.8l-0.7,2.8l-0.4-2.1l-0.4-2.4l-0.3-2l-0.2-0.9l-0.3-0.9l-0.8-1.6l-1.1-1.5l-2.4-2.8l-1.6-1.3
		l-1.6-1.2l-2.7-1.8l-0.6-0.3l-0.5-0.2l-0.3,0.1v0.4l0.3,1.8l3.4,1.2h-2.3l-1.8-0.3l-2-0.4h-2l-2.4,0.4l-2.3,0.6l-2.7,1.2l-2.4,1.6
		l-2.2,1.6l-0.3,0.3l0.3-0.6h-3.5l4.8-1.9l1-2.5L88.7,41l4.7-1.4l1.2-2.2L91,36.5l5.5-1l1.4-2.3L94.6,33l3.9-1.3l0.4-2l0.1-0.4
		l-0.3-0.2l-0.5,0.2l-0.8,0.3l-2.9,2l-2,1.2l-1.7,1.4l-2.8,3L86.7,39l-0.9,1.7l-0.4,1l-0.2,0.9l-0.4,2.2l-0.6,2.6l-0.5,2.4l-0.7-3.3
		L82.3,44l-0.7-2.7l-1-2.7l-1.2-2.6l-1.5-2l-0.7-0.9l-0.9-0.9l-1.6-1.2L73,30.3l-2.6-1.4l-0.6-0.3h-0.4l-0.3,0.3L69,29.4l0.4,3.4
		L73,33l-1,1.7l-0.8,1l0.9,2l3.5-2l-1,3.4l0.5,2.3l3-1.6l-2,4.1l0.6,1.8l-0.6-0.2l-1-0.4l-0.9-0.5l-0.9-0.5l-1-0.3l-2.1-0.3
		l-2.1-0.1l-2.2,0.1l-2,0.3l-2.2,0.4l-2.2,0.9L56.4,46l-1.2,0.7v0.3l0.3,0.3l1.7,0.9l3.4-2.2l-1.9,2.7l2.7,0.3l4.2-3.5l-1.6,3.3
		l2.5,0.4l4-2.9l-1.9,3.3l2.7,0.8l4.4-2.7l-2.1,2.9l2,0.3L76,51l-1.1,0.1L71,51.7l-2,0.3l-2,0.4l-4,2l-1.8,1.2l-1.6,1.4l-1.9,1.8
		l-0.7,1L56.4,61l-0.3,1.5l-0.3,1.8v1.5l0.3,0.3l0.4-0.3l4.2-3.4l0.4-3l1.7,2.2l1.6-0.9l0.8-3.6l1.5,2.7l2.4-0.6l0.4-3.5l1.8,2.4
		l2.9-0.9l0.6-3.3l1.8,2.3l1.8-1.1l-0.7,0.5L76.1,57l-0.9,0.5l-0.8,0.8l-1.1,1.6l-1,1.9l-0.9,1.9l-0.8,1.7l-0.6,2.2l-0.3,2.3
		L69,73.4l-0.1,0.8l0.1,0.6l0.1,0.2h0.2l0.4-0.2l1.6-1.2L71,69.5l1.5,2.9l1.5-2.2l-1.3-5.4l2.3,2.9l1.6-1.9L75.7,61l2.1,3.2l1.9-2
		L79.5,57l1.4,3.2l1.4-1.6l1.6-1.1L84,56l0.4,0.5l1.6,2.7l1.6,2.5l0.9,2.1l0.6,2.2l1.1,4.3l0.6,2.6l0.3,2.6l0.6,5l0.5,5.3l0.3,5.4
		v6.5l-0.3,6.5l-0.1,5l-0.2,2.5l-0.3,1.1l-0.4,1.2l-0.3,0.9l-0.6,0.9l-0.6,1l1.9,0.3l1.8,0.3h0.9l0.9,0.1l0.7-0.1l0.9-0.1l1.8-0.3
		l2.2-0.3l-0.9-0.9l-1-1.6l-0.4-2.9l-0.4-3.3l-0.3-4.7L97.7,99l-0.4-6.5l-0.5-6.7l-0.9-6.6l-1.2-6.4l-1.3-5.3l-0.8-2.7L91.5,62
		l-0.6-1.4l-1.4-2l-0.5-1l-0.2-0.9l1.1,0.1l1.9,1l-0.3-3.5l2.3,4.6l2.6,0.9l0.3-3.7l1.6,4.6l2.4,1l0.7-3.6l1.1,4.1l-1.1,0.9
		l-1.4,1.4l-1.4,1.6l-2,2.4L96,69.4l0.1,0.3h0.4l1.7-0.2l1.6-3.3l-0.3,2.8l2.2-0.9l1.4-4.6l0.1,0l0.4,3.1l2.2-0.9l0.6-1.3l0.2,0.5
		l2,0.3h0.5l0.1-0.3l-0.1-0.3l0.8-0.3l2.2-4l-0.3,3.2l1.7-0.8l1-0.1l-0.3,0.8l-0.4,0.9l-1.3,1.7l-0.7,1.2l-0.9,2.5l-0.9,2.4
		l-1.3,4.7l-1.3,5.6l-0.9,5.8l-0.7,6l-0.6,5.8l-0.3,3.6l-0.5,4.1l-0.4,2.9l-0.4,2.6l-1,1.4l-0.8,0.8l1.7,0.5l1.6,0.3l1.5,0.2h0.7
		l0.9-0.1l1.7-0.2l2-0.3l-0.5-0.9l-0.5-0.8l-0.3-0.8l-0.3-1.1l-0.3-1l-0.1-2.2l0.2-4.5l-0.2-5.8l0.2-5.8l0.4-4.8l0.7-4.6l0.7-4.5
		l0.3-2.3l0.6-2.2l1.2-3.9l0.5-1.9l0.9-1.8l1.6-2.2l1.6-2.2l0.4-0.4l0.1,1.2l1.4,1l1.2,1.6l1.4-2.8l-0.3,4.5l1.6,1.9l1.9-2.8
		l-0.8,4.3l1.3,1.8l2.2-2.5l-1.4,4.7l1.4,2.1l1.4-2.6l-0.4,3.6l1.4,1l0.3,0.3l0.2-0.1l0.1-0.2l0.1-0.4v-0.8l-0.4-3.1l-0.3-2.1
		l-0.4-1.9l-0.6-1.6l-0.8-1.7l-0.9-1.6l-1-1.6l-0.8-0.6l-0.7-0.6l-1.6-1.1l-0.8-0.7l1.9,1.2l1.6-2l0.4,2.9l2.8,1l1.6-2.1l0.3,3.1
		l2.2,0.6l1.4-2.2l0.5,3.2l1.4,0.8l1.7-1.8l0.3,2.7l3.6,3.2l0.3,0.3l0.3-0.3l0.1-1.2l-0.2-1.7l-0.2-1.4l-0.5-1l-0.7-0.9l-1.5-1.6
		l-1.4-1.3l-1.7-1.2l-1.7-1l-1.7-0.9l-1.7-0.5l-1.7-0.3l-3.7-0.6L126,58l0.4-0.2l2-0.3l-1.9-2.5l4,2.4l2.3-0.5l-1.6-3l3.5,2.7
		l2.2-0.3l-1.3-3.1l3.7,3.4l2.3-0.2l-1.6-2.4l2.8,2.2L144.7,55.4z M79.4,47l-0.6-0.3l-1.6-0.7l2.8-0.9L79.4,47z M81.3,50.4l-0.2-0.1
		l0.2-0.1L81.3,50.4z M82.3,52.3l-0.5,0.4L82,52l0.6,0.1L83,52L82.3,52.3z M84.9,52.5l-0.4-0.3l0,0l0.1-0.1l0.2,0.2L84.9,52.5
		l0.1,0.1L84.9,52.5z M87.1,51.4l0.8-1.1l0.5,1.2L87.1,51.4z M107.4,62.2l0.2-0.4l0,0.7L107.4,62.2z M111.6,58.6l-2.1,0.2l-0.9,0.1
		l-1,0.2l-1.6,0.7l-0.3,0.2l-0.6-0.8l-1.6-1.6l-1.6-1.3l-1.7-1.2l-1.8-1.2l-1.7-0.9l-1.1-0.3l-1-0.2l-2.2-0.3l-2.5-0.5l0.2-0.2
		l1.2-3.1l1.7,2.9l2.1-1.3l0.9-4.5l1.3,2.8l-0.4,0l-0.5,0.2L96,48.8v0.3l0.3,0.4l2,2.3l2.8-1.7l0.2,1.9v1l1.7,1l1.6-3.3l1.1,3
		l1.6,1.4l1.4-2.7l0.8,4l1.8,1.2l1.6-2.6l0.9,2.8l0.2,0.2L111.6,58.6z M115.1,58.2l0.5-1.1l0.6,1L115.1,58.2z M113.7,52.9l0.3,0.6
		l-0.3-0.2l-1.9-1.6l-2.2-1.5l-2.3-1.2l-2.1-0.6l-2.2-0.4h-1.8l-1.7,0.3l-2,0.2l1.7-1.2l1.3-3.3l1.6,3.6l2-1.1v-1l0.3-2.1l3,2
		l1.5-1.6l4.3,0.9l-3.4,0.7l1.1,1.9l4.1,1.4l-3.4,0.3l0.9,2.2l4.3,1.9L113.7,52.9z M118.5,58.9l-0.4,0.3l-0.2,0.1l0.2-0.3l0.3-0.3
		l0.1,0L118.5,58.9L118.5,58.9z M120.4,59l-0.3-0.2l0.6-0.1l0.2,0.7L120.4,59z M121.6,57.3l-0.2,0l0-0.2l0.6,0.3L121.6,57.3z
		 M123.9,54.2l-0.6,0.2l-0.5-1.7l2.4,0.9L123.9,54.2z"/>
	<path fill-rule="evenodd" clip-rule="evenodd" fill="#F8991D" d="M38.5,62.8C36.7,59.2,38,53.5,38,50c-0.1-2.7-4-4.2-6.9-2.4
		c-3.4,2.2,1.2,14.5,5.6,15.8C38.5,63.9,38,63.3,38.5,62.8L38.5,62.8z M16.8,70.8C14.6,70.5,6.6,67.2,4.3,73
		c-2.3,5.8,13.1,6.6,19.1,7.1C28.5,80.4,20.7,71.4,16.8,70.8L16.8,70.8z M22.3,56.2c5,2.6,9.9,15.7,5,13.2
		C14.4,62.8,11,50.4,22.3,56.2L22.3,56.2z M24,86.6c-2.4-0.2-14.8,2.6-14.3,4.7C13.4,105.2,25.3,88.7,24,86.6L24,86.6z M31.5,96.2
		c2.4,2.1,1.6,7.7-1.3,9.2C16.3,112.8,29.6,94.5,31.5,96.2L31.5,96.2z M45.1,59.7c0.5-1.8-3.5-4.9-2.3-8.1c0.4-1,2.1-3.9,3.6-3.1
		C53.1,52.6,48,62,45.1,59.7L45.1,59.7z M53.1,55.4c-2.4,2.8-1.6,8.4,1,5.4c0.8-0.9,2.5-2.4,2.5-3.4c0-1.2,0.3-1.5-0.8-2.4
		C55.3,54.7,53.4,55,53.1,55.4L53.1,55.4z M38.1,99.8c1.9-3.5,6.7,2.6,3.6,5.7C36.9,110.3,37.2,100.4,38.1,99.8z"/>
	<path fill="#F8991D" d="M34.8,74.1c1.5-2.1,3.4-3.4,5.8-4c9-2.1,16.3,0.9,21.7,9c1.2-0.1,2.2-0.8,2.8-2c0.9-1.6,0.5-3.2-1.1-4.6
		c-1.5-1.3-2.9-2.6-4.4-3.9c-3.9-2.7-8.3-3.8-13-3.2c-7.6,0.9-13.1,4.9-16.6,12c-0.8,1.7-1.2,3.5-1,5.4c0.5,7.9,4.7,13,12.7,15
		c7,1.8,13.1,0.5,18.4-4c1.1-0.9,1.8-2,2.2-3.3c1.9-6.2-0.1-11.1-6-14.7c-6-3.6-11.5-3.3-16.6,1c-1.6,1.3-2.4,3-2.4,5
		c0,5.2,2.6,8,8,8.7c4.4,0.5,7.2-1.2,8.2-5.1c-2.6,1.2-5.2,1.4-8,0.3c-2.6-0.9-4-2.6-4.3-5.1c-0.2-2.4,1.2-3.6,4.1-3.4
		c7.1,0.3,11.8,4.1,14,11.1c0.3,0.9,0.2,1.8-0.3,2.6c-1.5,2.4-3.8,3.7-7,3.9c-6.4,0.3-11.7-1.9-16-6.7
		C31.9,83.3,31.5,78.7,34.8,74.1L34.8,74.1z"/>
</g>
</svg>
