<?xml version="1.0" encoding="utf-8"?>
<!-- Generator: Adobe Illustrator 16.0.0, SVG Export Plug-In . SVG Version: 6.00 Build 0)  -->
<!DOCTYPE svg PUBLIC "-//W3C//DTD SVG 1.1//EN" "http://www.w3.org/Graphics/SVG/1.1/DTD/svg11.dtd">
<svg version="1.1" id="Layer_1" xmlns="http://www.w3.org/2000/svg" xmlns:xlink="http://www.w3.org/1999/xlink" x="0px" y="0px"
	 width="100px" height="100px" viewBox="0 0 100 100" enable-background="new 0 0 100 100" xml:space="preserve">
<g>
	<path fill="#009345" d="M6.109,65.868c2.305,0.863,4.623,1.579,6.983,1.937c2.355,0.375,4.719,0.443,7.061,0.239
		c4.694-0.395,9.259-1.849,13.934-3.236c4.667-1.397,9.536-2.717,14.572-2.971c5.018-0.276,10.109,0.599,14.578,2.671
		c-2.429-0.427-4.832-0.747-7.236-0.802c-2.392-0.068-4.777,0.067-7.126,0.405c-4.715,0.648-9.283,2.084-13.961,3.477
		c-2.342,0.69-4.722,1.376-7.169,1.887c-2.444,0.513-4.962,0.85-7.501,0.845c-2.537-0.013-5.083-0.37-7.48-1.141
		C10.368,68.407,8.116,67.299,6.109,65.868z"/>
	<path fill="#009345" d="M5.89,70.652c2.321,0.82,4.651,1.49,7.019,1.806c2.357,0.34,4.728,0.364,7.063,0.116
		c4.685-0.479,9.225-2.009,13.876-3.481c4.635-1.479,9.48-2.885,14.51-3.23c5.018-0.362,10.121,0.42,14.621,2.411
		c-2.429-0.383-4.833-0.659-7.236-0.672c-2.404-0.024-4.784,0.153-7.126,0.529c-4.697,0.734-9.24,2.25-13.894,3.729
		c-2.333,0.728-4.694,1.454-7.135,2.009c-2.432,0.555-4.946,0.944-7.486,0.981c-2.536,0.035-5.088-0.284-7.499-1.006
		C10.196,73.118,7.924,72.045,5.89,70.652z"/>
	<rect x="38.877" y="50.508" fill="#004A8E" width="1.849" height="1.855"/>
	<rect x="35.961" y="50.508" fill="#004A8E" width="1.855" height="1.855"/>
	<rect x="38.877" y="53.424" fill="#004A8E" width="1.849" height="1.85"/>
	<rect x="35.961" y="53.424" fill="#004A8E" width="1.855" height="1.85"/>
	<linearGradient id="SVGID_1_" gradientUnits="userSpaceOnUse" x1="5.228" y1="39.5361" x2="82.0098" y2="39.5361">
		<stop  offset="0" style="stop-color:#FFCA05"/>
		<stop  offset="0.46" style="stop-color:#FFF100"/>
		<stop  offset="1" style="stop-color:#F9A64A"/>
	</linearGradient>
	<path fill="url(#SVGID_1_)" d="M5.394,59.797C4.882,54.786,5.57,49.607,7.258,44.732c1.704-4.87,4.478-9.413,8.06-13.24
		c3.578-3.828,7.982-6.929,12.839-9.031c2.425-1.054,4.968-1.843,7.563-2.386c2.602-0.529,5.252-0.789,7.902-0.801
		c2.645,0.006,5.301,0.271,7.896,0.795c2.595,0.548,5.141,1.331,7.563,2.386c4.857,2.101,9.265,5.202,12.846,9.036
		c3.581,3.821,6.355,8.365,8.057,13.24c1.688,4.875,2.373,10.054,1.854,15.064c-0.504-4.999-1.781-9.831-3.938-14.202
		c-2.126-4.376-5.035-8.303-8.531-11.552c-3.494-3.248-7.563-5.831-11.952-7.556c-2.194-0.863-4.463-1.536-6.779-1.961
		c-2.306-0.444-4.661-0.666-7.016-0.659c-4.715-0.012-9.415,0.881-13.801,2.613c-4.392,1.732-8.463,4.309-11.958,7.558
		c-3.499,3.248-6.405,7.181-8.531,11.557C7.178,49.966,5.899,54.798,5.394,59.797z"/>
	<path fill="#1B1464" d="M73.31,63.94l-2.36-2.104c-1.585-1.387-3.15-2.798-4.753-4.16c-3.169-2.768-6.386-5.479-9.604-8.186
		c-4.463-3.735-4.949-4.105-9.486-7.779v-5.431h-2.002v3.828c-2.707-2.164-5.419-4.327-8.155-6.453l-1.47-1.147l-0.768,1.664
		c-1.214,2.62-2.41,5.252-3.584,7.897c-1.183,2.638-2.314,5.294-3.476,7.945c-1.119,2.668-2.265,5.326-3.338,8.014
		c-1.097,2.68-2.154,5.374-3.157,8.098c1.474-2.496,2.897-5.023,4.282-7.563c1.408-2.532,2.74-5.096,4.102-7.648
		c1.319-2.577,2.667-5.135,3.963-7.718c1.026-2.028,2.034-4.062,3.033-6.102c2.799,2.268,5.609,4.512,8.433,6.744
		c3.316,2.588,6.632,5.165,10.003,7.692c3.372,2.515,6.75,5.023,10.189,7.458c1.714,1.233,3.459,2.416,5.19,3.612l2.638,1.757
		c0.432,0.29,0.888,0.574,1.332,0.851c0.449,0.278,0.888,0.58,1.368,0.795C74.863,65.369,74.099,64.63,73.31,63.94z"/>
	<path fill="#004A8E" d="M68.821,59.07c7.823,2.354,12.712,5.695,12.712,9.405c0,7.127-17.976,12.896-40.153,12.896
		c-15.774,0-29.421-2.921-35.986-7.175c5.865,5.098,23.451,8.803,44.234,8.803c25.581,0,46.317-5.609,46.317-12.525
		C95.944,65.406,84.823,61.042,68.821,59.07z"/>
	<path fill="#004A8E" d="M44.905,78.326c-1.517,0.104-3.008,0.186-4.481,0.24c-0.771,0.05-1.553,0.092-2.343,0.123
		c-12.26,0.519-22.964-1.306-28.203-4.399c4.725,3.771,18.511,6.077,34.663,5.398c19.879-0.833,35.82-5.867,35.591-11.243
		c-0.012-0.32-0.093-0.641-0.216-0.949C77.809,72.396,63.064,77.074,44.905,78.326z"/>
</g>
</svg>
