<?xml version="1.0" encoding="utf-8"?>
<!-- Generator: Adobe Illustrator 16.0.0, SVG Export Plug-In . SVG Version: 6.00 Build 0)  -->
<!DOCTYPE svg PUBLIC "-//W3C//DTD SVG 1.1//EN" "http://www.w3.org/Graphics/SVG/1.1/DTD/svg11.dtd">
<svg version="1.1" id="Layer_1" xmlns="http://www.w3.org/2000/svg" xmlns:xlink="http://www.w3.org/1999/xlink" x="0px" y="0px"
	 width="100px" height="100px" viewBox="0 0 100 100" enable-background="new 0 0 100 100" xml:space="preserve">
<g>
	<g>
		<g>
			<radialGradient id="SVGID_1_" cx="41.3745" cy="30.0327" r="48.7937" gradientUnits="userSpaceOnUse">
				<stop  offset="0" style="stop-color:#44C7F4"/>
				<stop  offset="0.1775" style="stop-color:#22BAF1"/>
				<stop  offset="0.3758" style="stop-color:#00ADEE"/>
				<stop  offset="0.4645" style="stop-color:#00A6E6"/>
				<stop  offset="0.6041" style="stop-color:#0092CF"/>
				<stop  offset="0.7772" style="stop-color:#0072AA"/>
				<stop  offset="0.9754" style="stop-color:#004678"/>
				<stop  offset="1" style="stop-color:#004071"/>
			</radialGradient>
			<path fill="url(#SVGID_1_)" d="M22.436,9.916C31.26,3.492,42.707,0.777,53.46,2.755c8.589,1.491,16.566,5.963,22.52,12.316
				c2.104-1.128,4.224-2.236,6.425-3.168c-1.385,1.925-2.857,3.78-4.304,5.678c3.105,4.011,5.458,8.589,6.947,13.434
				c0.516,1.873,1.694,3.621,1.456,5.635c-1.421-4.428-3.124-8.838-5.769-12.698c-5.377-8.039-14.09-13.735-23.602-15.483
				c-11.659-2.245-24.313,1.659-32.618,10.168c-8.225,8.19-12.161,20.453-10.071,31.89c0.777,5.528,3.354,10.595,6.513,15.12
				c1.681,2.343,4.068,4.019,6.477,5.554c4.268-0.754,5.173-5.395,6.797-8.695c3.372-8.651,6.682-17.71,6.469-27.125
				c-2.679,1.412-3.815,4.215-4.773,6.903c-1.269-2.893-1.109-6.034-0.328-9.033c-2.564,0.861-4.943,2.121-7.197,3.603
				c0.373-1.802,0.444-3.869,1.882-5.2c1.517-1.402,3.602-1.899,5.447-2.724c-3.584-1.65-7.329-0.32-10.718,1.135
				c0.998-2.022,2.041-4.276,4.232-5.252c2.99-1.446,6.273-0.098,9.263,0.621c-1.357-2.875-3.984-4.703-6.575-6.354
				c2.032-0.204,4.312-0.763,6.185,0.391c2.201,1.305,2.831,3.958,3.691,6.185c2.352-1.694,4.916-3.797,8.013-3.39
				c2.253,0.258,3.69,2.21,5.182,3.691c-3.479-0.24-7.01,0.302-9.894,2.36c2.494,0.79,5.227,1.198,7.365,2.813
				c1.481,0.994,1.729,2.893,2.315,4.446c-2.928-1.323-5.856-2.644-8.926-3.621c1.552,2.006,2.875,4.18,3.726,6.575
				c1.358,0.958,2.724,1.908,4.135,2.822c-0.515-2.378-1.704-4.499-3.07-6.478c1.401,0.532,3.053,0.736,4.152,1.872
				c1.375,1.544,0.967,3.763,1.082,5.661c2.255-0.443,4.863-1.251,6.948,0.159c1.198,0.985,1.713,2.521,2.476,3.816
				c-2.521-0.905-5.174-1.491-7.862-1.208c2.539,2.085,5.769,4.365,4.935,8.19c-1.793-1.739-3.567-3.487-5.387-5.182
				c0.656,2.431,0.79,4.969,0.099,7.409c-1.048-2.245-2.308-4.393-3.958-6.247c-1.357,2.778-2.645,5.591-4.241,8.235
				c-3.141,5.377-7.542,9.849-11.428,14.675c0.843,0.17,1.677,0.356,2.52,0.543c-0.639,0.735-1.261,1.489-1.882,2.243
				c2.911,0.985,6.016,1.793,9.051,0.729c0.212-1.242,0.443-2.493,0.683-3.728c-0.488-0.336-1.463-1.003-1.952-1.349
				c0.737-1.268,1.447-2.554,2.103-3.858c-0.159-1.881-0.097-3.834,1.349-5.218c-0.026-0.24-0.088-0.692-0.125-0.924
				c0.32-0.327,0.959-0.976,1.278-1.303c1.624,1.205,3.425,2.119,5.324,2.829c-0.745,0.24-1.473,0.479-2.2,0.737
				c-0.125,1.517,0.283,3.496-1.73,3.878c-0.036,0.832-0.08,1.676-0.106,2.519c0.904,1.767,1.694,3.612,2.342,5.493
				c3.079-0.905,6.282-0.347,9.423-0.533c4.145-0.078,7.445-2.874,11.109-4.409c-3.221,3.461-7.604,5.493-11.898,7.268
				c4.286-0.781,8.128-3.08,11.659-5.528l-0.958,2.405c1.047-0.8,2.094-1.607,3.079-2.478c0.665,0.161,1.34,0.259,2.014,0.054
				l1.021,0.587c-2.015,2.537-6.415,2.635-7.24,6.122c-2.901,1.775-6.078,3.424-9.529,3.629c-0.977-0.399-1.979-0.719-2.991-0.976
				c-2.413-0.497-4.809-1.057-7.249-1.412c-2.2-0.611-4.498-0.646-6.77-0.514l0.009-0.746c-4.57-0.044-9.131,0.009-13.691,0.035
				l0.08,0.896c-0.631-0.08-1.908-0.222-2.547-0.302c0.053,0.213,0.168,0.621,0.222,0.835c1.349-0.055,2.706-0.063,4.055-0.027
				c0.799,0.488,1.686,0.737,2.645,0.746L36.371,81.3c1.064-0.081,2.138-0.151,3.212-0.213l-0.098,0.967
				c-2.821-0.063-5.652-0.089-8.474,0.052c-1.384,0.587-2.893,0.719-4.378,0.826c-5.715,1.473-11.354,3.416-16.442,6.46
				c4.871-4.641,10.714-9.175,17.644-9.761c0.018-0.328,0.07-0.984,0.088-1.322c-2.018-1.048-3.953-2.253-5.798-3.585
				c-2.018,0.986-4.006,2.023-6.033,2.991c1.171-1.651,2.422-3.256,3.669-4.854C11.895,65.869,6.779,55.843,6.118,45.31
				c-1.043-12.476,4.343-25.128,13.735-33.336c-1.127-2.2-2.285-4.383-3.363-6.601C18.522,6.818,20.475,8.372,22.436,9.916z
				 M42.076,35.328c0.116,1.845-0.097,3.859,1.039,5.448c0.621-1.571,2.324-1.997,3.682-2.671
				C45.368,36.942,43.806,35.975,42.076,35.328z M42.103,41.025c-0.524,10.319-5.093,19.768-7.844,29.582
				c3.621-1.5,5.999-4.782,8.714-7.452c3.637-4.242,7.541-8.669,9.067-14.17c-2.174,0.567-3.815,2.067-5.217,3.727
				c-0.16-2.494,1.002-4.668,2.342-6.665c-2.041,0-4.064,0.16-6.087,0.506c0.746-1.118,1.296-2.547,2.626-3.087
				c1.544-0.612,3.239-0.329,4.854-0.444C48.296,40.776,45.084,40.581,42.103,41.025z M50.178,72.63
				c-0.32,0.913-0.622,1.837-0.942,2.77c0.897-0.116,1.802-0.205,2.69-0.356C51.375,74.219,50.78,73.419,50.178,72.63z"/>
		</g>
		<radialGradient id="SVGID_2_" cx="41.3726" cy="30.0356" r="48.7908" gradientUnits="userSpaceOnUse">
			<stop  offset="0" style="stop-color:#44C7F4"/>
			<stop  offset="0.1775" style="stop-color:#22BAF1"/>
			<stop  offset="0.3758" style="stop-color:#00ADEE"/>
			<stop  offset="0.4645" style="stop-color:#00A6E6"/>
			<stop  offset="0.6041" style="stop-color:#0092CF"/>
			<stop  offset="0.7772" style="stop-color:#0072AA"/>
			<stop  offset="0.9754" style="stop-color:#004678"/>
			<stop  offset="1" style="stop-color:#004071"/>
		</radialGradient>
		<path fill="url(#SVGID_2_)" d="M8.984,95.31c6.424-7.108,16.109-10.737,25.594-10.603c2.68,0.149,5.52-0.399,8.066,0.665
			c2.369,0.079,4.747,0.168,7.071,0.7c0.995,0.196,2.006,0.392,2.982,0.691c1.402,0.224,2.839,0.41,4.232,0.711
			c0.984,0.248,1.987,0.497,3.008,0.675c0.932,0.284,1.89,0.576,2.866,0.789c0.993,0.178,1.978,0.408,2.945,0.737
			c1.198,0.203,2.396,0.398,3.594,0.63c0.941,0.311,1.907,0.63,2.857,0.967c0.869,0.009,1.748,0.018,2.626,0.044l-0.124,0.889
			c1.012-0.107,2.031-0.205,3.053-0.311l-0.142,1.064c0.575-0.098,1.721-0.275,2.298-0.373l-0.099,1.1
			c0.577-0.097,1.739-0.302,2.309-0.399l-0.179,1.1c1.029-0.113,2.041-0.229,3.07-0.327l-0.151,1.092
			c0.577-0.098,1.739-0.319,2.315-0.427l-0.159,1.146c0.586-0.098,1.739-0.303,2.315-0.408L89.2,96.409
			c1.705-0.043,3.594-0.239,4.81,1.234c-4.331,0.16-8.714,0.55-12.999-0.258c-1.49-0.195-2.99-0.363-4.464-0.639
			c-3.407-0.523-6.76-1.26-10.079-2.164c-10.719-2.557-21.438-5.609-32.537-5.725C25.222,88.992,16.686,91.281,8.984,95.31z"/>
	</g>
	<g>
		<g>
			<radialGradient id="SVGID_3_" cx="40.8447" cy="30.3853" r="80.8312" gradientUnits="userSpaceOnUse">
				<stop  offset="0" style="stop-color:#FFF23A"/>
				<stop  offset="0.0401" style="stop-color:#FEE62D"/>
				<stop  offset="0.1171" style="stop-color:#FED41A"/>
				<stop  offset="0.1964" style="stop-color:#FDC90F"/>
				<stop  offset="0.2809" style="stop-color:#FDC60B"/>
				<stop  offset="0.6685" style="stop-color:#F28F3F"/>
				<stop  offset="0.8876" style="stop-color:#ED693C"/>
				<stop  offset="1" style="stop-color:#E83E39"/>
			</radialGradient>
			<path fill="url(#SVGID_3_)" d="M24.516,18.638c8.305-8.509,20.958-12.414,32.618-10.168c9.512,1.748,18.225,7.445,23.602,15.483
				c2.645,3.86,4.348,8.27,5.769,12.698c1.205,4.303-1.013,8.873,0.479,13.088c-0.514,6.069-3.337,11.773-7.107,16.469
				c0.062-0.578,0.187-1.722,0.24-2.299c-1.634,2.147-3.213,4.455-5.458,5.998c-3.664,1.535-6.965,4.331-11.109,4.409
				c-3.141,0.187-6.344-0.372-9.423,0.533c-0.647-1.881-1.438-3.727-2.342-5.493c0.026-0.843,0.07-1.687,0.106-2.519
				c2.014-0.382,1.605-2.361,1.73-3.878c0.728-0.259,1.455-0.497,2.2-0.737c-1.899-0.71-3.7-1.624-5.324-2.829
				c-0.318,0.327-0.958,0.976-1.278,1.303c0.036,0.231,0.099,0.684,0.125,0.924c-1.446,1.384-1.508,3.337-1.349,5.218
				c-0.656,1.305-1.366,2.591-2.103,3.858c0.489,0.346,1.464,1.013,1.952,1.349c-0.239,1.234-0.47,2.485-0.683,3.728
				c-3.035,1.064-6.14,0.257-9.051-0.729c0.621-0.754,1.243-1.508,1.882-2.243c-0.843-0.187-1.677-0.373-2.52-0.543
				c3.886-4.826,8.287-9.298,11.428-14.675c1.597-2.645,2.884-5.457,4.241-8.235c1.65,1.854,2.91,4.002,3.958,6.247
				c0.691-2.439,0.558-4.978-0.099-7.409c1.819,1.695,3.594,3.443,5.387,5.182c0.834-3.825-2.396-6.105-4.935-8.19
				c2.688-0.284,5.342,0.302,7.862,1.208c-0.763-1.296-1.277-2.832-2.476-3.816c-2.085-1.411-4.693-0.603-6.948-0.159
				c-0.115-1.898,0.293-4.117-1.082-5.661c-1.1-1.136-2.751-1.34-4.152-1.872c1.366,1.979,2.556,4.099,3.07,6.478
				c-1.411-0.914-2.777-1.864-4.135-2.822c-0.852-2.396-2.174-4.569-3.726-6.575c3.069,0.977,5.998,2.298,8.926,3.621
				c-0.586-1.553-0.834-3.452-2.315-4.446c-2.139-1.615-4.872-2.023-7.365-2.813c2.884-2.058,6.415-2.6,9.894-2.36
				c-1.491-1.481-2.929-3.434-5.182-3.691c-3.097-0.408-5.661,1.695-8.013,3.39c-0.86-2.227-1.49-4.88-3.691-6.185
				c-1.873-1.154-4.153-0.594-6.185-0.391c2.591,1.651,5.217,3.479,6.575,6.354c-2.99-0.719-6.273-2.067-9.263-0.621
				c-2.191,0.977-3.234,3.23-4.232,5.252c3.389-1.455,7.134-2.786,10.718-1.135c-1.845,0.825-3.93,1.322-5.447,2.724
				c-1.438,1.331-1.509,3.398-1.882,5.2c2.254-1.482,4.632-2.742,7.197-3.603c-0.781,2.999-0.94,6.14,0.328,9.033
				c0.958-2.688,2.094-5.492,4.773-6.903c0.213,9.415-3.097,18.474-6.469,27.125c-1.624,3.301-2.529,7.941-6.797,8.695
				c-2.409-1.535-4.796-3.211-6.477-5.554c-3.159-4.525-5.736-9.592-6.513-15.12C12.355,39.09,16.291,26.828,24.516,18.638z
				 M68.847,26.925c-2.521,1.749-5.503,3.736-5.378,7.197c-1.207,0.08-2.396,0.15-3.603,0.222c1.242,0.222,2.502,0.39,3.691,0.798
				c1.455,0.771,2.591,2.253,4.321,2.36c1.766-0.142,3.309-1.145,4.942-1.757c1.171,0.532,2.351,1.597,3.726,1.118
				c1.137-0.825,1.864-2.094,2.929-3.007c1.598,0.142,3.213,0.257,4.437-0.985c-0.834-0.746-1.739-1.393-2.732-1.89
				c-0.648-0.95-0.977-2.547-2.414-2.484c-1.704,0.878-3.062,2.28-4.613,3.39c-0.516-1.58-0.364-3.656-1.898-4.686
				C71.26,26.579,69.893,26.348,68.847,26.925z"/>
		</g>
		<radialGradient id="SVGID_4_" cx="40.8418" cy="30.3823" r="80.8282" gradientUnits="userSpaceOnUse">
			<stop  offset="0" style="stop-color:#FFF23A"/>
			<stop  offset="0.0401" style="stop-color:#FEE62D"/>
			<stop  offset="0.1171" style="stop-color:#FED41A"/>
			<stop  offset="0.1964" style="stop-color:#FDC90F"/>
			<stop  offset="0.2809" style="stop-color:#FDC60B"/>
			<stop  offset="0.6685" style="stop-color:#F28F3F"/>
			<stop  offset="0.8876" style="stop-color:#ED693C"/>
			<stop  offset="1" style="stop-color:#E83E39"/>
		</radialGradient>
		<path fill="url(#SVGID_4_)" d="M42.076,35.328c1.73,0.647,3.292,1.614,4.72,2.777c-1.357,0.674-3.061,1.1-3.682,2.671
			C41.979,39.188,42.191,37.173,42.076,35.328z"/>
		<radialGradient id="SVGID_5_" cx="40.8447" cy="30.3857" r="80.8352" gradientUnits="userSpaceOnUse">
			<stop  offset="0" style="stop-color:#FFF23A"/>
			<stop  offset="0.0401" style="stop-color:#FEE62D"/>
			<stop  offset="0.1171" style="stop-color:#FED41A"/>
			<stop  offset="0.1964" style="stop-color:#FDC90F"/>
			<stop  offset="0.2809" style="stop-color:#FDC60B"/>
			<stop  offset="0.6685" style="stop-color:#F28F3F"/>
			<stop  offset="0.8876" style="stop-color:#ED693C"/>
			<stop  offset="1" style="stop-color:#E83E39"/>
		</radialGradient>
		<path fill="url(#SVGID_5_)" d="M42.103,41.025c2.981-0.444,6.193-0.249,8.456,1.996c-1.615,0.116-3.31-0.168-4.854,0.444
			c-1.331,0.541-1.881,1.97-2.626,3.087c2.023-0.346,4.046-0.506,6.087-0.506c-1.34,1.996-2.502,4.17-2.342,6.665
			c1.402-1.659,3.043-3.159,5.217-3.727c-1.526,5.501-5.43,9.928-9.067,14.17c-2.715,2.67-5.093,5.952-8.714,7.452
			C37.009,60.793,41.579,51.344,42.103,41.025z"/>
		<radialGradient id="SVGID_6_" cx="40.8604" cy="30.3774" r="80.813" gradientUnits="userSpaceOnUse">
			<stop  offset="0" style="stop-color:#FFF23A"/>
			<stop  offset="0.0401" style="stop-color:#FEE62D"/>
			<stop  offset="0.1171" style="stop-color:#FED41A"/>
			<stop  offset="0.1964" style="stop-color:#FDC90F"/>
			<stop  offset="0.2809" style="stop-color:#FDC60B"/>
			<stop  offset="0.6685" style="stop-color:#F28F3F"/>
			<stop  offset="0.8876" style="stop-color:#ED693C"/>
			<stop  offset="1" style="stop-color:#E83E39"/>
		</radialGradient>
		<path fill="url(#SVGID_6_)" d="M79.981,68.353c2.28-3.982,5.386-7.443,7.552-11.516C86.433,61.37,83.442,65.318,79.981,68.353z"/>
		<radialGradient id="SVGID_7_" cx="40.4248" cy="31.4028" r="80.2603" gradientUnits="userSpaceOnUse">
			<stop  offset="0" style="stop-color:#FFF23A"/>
			<stop  offset="0.0401" style="stop-color:#FEE62D"/>
			<stop  offset="0.1171" style="stop-color:#FED41A"/>
			<stop  offset="0.1964" style="stop-color:#FDC90F"/>
			<stop  offset="0.2809" style="stop-color:#FDC60B"/>
			<stop  offset="0.6685" style="stop-color:#F28F3F"/>
			<stop  offset="0.8876" style="stop-color:#ED693C"/>
			<stop  offset="1" style="stop-color:#E83E39"/>
		</radialGradient>
		<path fill="url(#SVGID_7_)" d="M79.422,66.418c0.125-0.043,0.338-0.168,0.453-0.211C79.76,66.25,79.547,66.375,79.422,66.418z"/>
		<radialGradient id="SVGID_8_" cx="79.4219" cy="66.418" r="0" gradientUnits="userSpaceOnUse">
			<stop  offset="0" style="stop-color:#FFF23A"/>
			<stop  offset="0.0401" style="stop-color:#FEE62D"/>
			<stop  offset="0.1171" style="stop-color:#FED41A"/>
			<stop  offset="0.1964" style="stop-color:#FDC90F"/>
			<stop  offset="0.2809" style="stop-color:#FDC60B"/>
			<stop  offset="0.6685" style="stop-color:#F28F3F"/>
			<stop  offset="0.8876" style="stop-color:#ED693C"/>
			<stop  offset="1" style="stop-color:#E83E39"/>
		</radialGradient>
		<path fill="url(#SVGID_8_)" d="M79.422,66.418"/>
		<radialGradient id="SVGID_9_" cx="40.8228" cy="30.3159" r="80.9625" gradientUnits="userSpaceOnUse">
			<stop  offset="0" style="stop-color:#FFF23A"/>
			<stop  offset="0.0401" style="stop-color:#FEE62D"/>
			<stop  offset="0.1171" style="stop-color:#FED41A"/>
			<stop  offset="0.1964" style="stop-color:#FDC90F"/>
			<stop  offset="0.2809" style="stop-color:#FDC60B"/>
			<stop  offset="0.6685" style="stop-color:#F28F3F"/>
			<stop  offset="0.8876" style="stop-color:#ED693C"/>
			<stop  offset="1" style="stop-color:#E83E39"/>
		</radialGradient>
		<path fill="url(#SVGID_9_)" d="M50.178,72.63c0.603,0.789,1.197,1.589,1.748,2.413c-0.888,0.151-1.793,0.24-2.69,0.356
			C49.556,74.467,49.857,73.543,50.178,72.63z"/>
	</g>
</g>
</svg>
