<?xml version="1.0" encoding="utf-8"?>
<!-- Generator: Adobe Illustrator 16.0.0, SVG Export Plug-In . SVG Version: 6.00 Build 0)  -->
<!DOCTYPE svg PUBLIC "-//W3C//DTD SVG 1.1//EN" "http://www.w3.org/Graphics/SVG/1.1/DTD/svg11.dtd">
<svg version="1.1" id="Layer_1" xmlns="http://www.w3.org/2000/svg" xmlns:xlink="http://www.w3.org/1999/xlink" x="0px" y="0px"
	 width="100px" height="100px" viewBox="0 0 100 100" enable-background="new 0 0 100 100" xml:space="preserve">
<g>
	<linearGradient id="SVGID_1_" gradientUnits="userSpaceOnUse" x1="49.2476" y1="56.8281" x2="49.2476" y2="80.8528">
		<stop  offset="0.0055" style="stop-color:#3DADDA"/>
		<stop  offset="1" style="stop-color:#7DC9E9"/>
	</linearGradient>
	<path fill="url(#SVGID_1_)" d="M22.565,73.065c2.539,0.365,10.264,0.815,15.167,0.468c4.9-0.351,10.962,1.514,20.997,1.167
		c10.034-0.352,31.613-1.987,34.18-3.271c2.567-1.283,0.117-1.981,0.117-1.981l-0.464-1.518c0,0-4.981-2.344-6.765-2.686
		c-2.271-0.427-9.22-0.346-9.22-0.346c-2.685-9.332-9.22-2.333-9.22-2.333c2.333-3.851-0.902-3.025-1.747-2.919
		c-1.069,0.137-2.904-1.508-4.223-1.063c-0.805,0.264-7.442,0.718-7.442,0.718c-5.017-8.517-13.417,1.048-13.417,1.048
		c-14.115-19.015-24.614-2.801-24.614-2.801c-17.265,2.686-10.74,8.716-7.908,10.314C11.371,69.764,18.74,72.509,22.565,73.065z"/>
	
		<linearGradient id="SVGID_2_" gradientUnits="userSpaceOnUse" x1="-28.5923" y1="64.1963" x2="-27.882" y2="64.6518" gradientTransform="matrix(-0.9966 -0.0824 -0.0824 0.9966 4.6303 -35.3974)">
		<stop  offset="0" style="stop-color:#C3C3C3"/>
		<stop  offset="0.0414" style="stop-color:#D1D1D1"/>
		<stop  offset="0.1153" style="stop-color:#E4E3E3"/>
		<stop  offset="0.1914" style="stop-color:#EFEEEE"/>
		<stop  offset="0.2727" style="stop-color:#F3F2F2"/>
		<stop  offset="0.4559" style="stop-color:#C5C6C6"/>
		<stop  offset="0.6019" style="stop-color:#A8A9AA"/>
		<stop  offset="0.6848" style="stop-color:#9D9E9F"/>
		<stop  offset="1" style="stop-color:#EBEAEA"/>
	</linearGradient>
	<path fill="url(#SVGID_2_)" d="M28.407,31.825c0,0-1.057-1.681-1.51-1.721c-0.453-0.036,0.659,2.333,0.659,2.333L28.407,31.825z"/>
	<g>
		
			<linearGradient id="SVGID_3_" gradientUnits="userSpaceOnUse" x1="-52.5801" y1="59.6133" x2="-51.6718" y2="62.9067" gradientTransform="matrix(-0.9951 -0.0993 -0.0993 0.9951 2.8549 -33.3763)">
			<stop  offset="0" style="stop-color:#209847"/>
			<stop  offset="0.9939" style="stop-color:#63B246"/>
		</linearGradient>
		<path fill="url(#SVGID_3_)" d="M50.711,31.468c0,0-1.009,0.927-1.488,1.737c-0.479,0.81-0.57,1.711-0.57,1.711
			s-1.111-0.907-2.007-1.054c0,0,1.008-2.695,2.801-4.06L50.711,31.468z"/>
		
			<linearGradient id="SVGID_4_" gradientUnits="userSpaceOnUse" x1="-48.7573" y1="65.9688" x2="-44.8386" y2="62.6748" gradientTransform="matrix(-0.9951 -0.0993 -0.0993 0.9951 2.8549 -33.3763)">
			<stop  offset="0" style="stop-color:#067E99"/>
			<stop  offset="0.9939" style="stop-color:#006C86"/>
		</linearGradient>
		<path fill="url(#SVGID_4_)" d="M47.756,35.91c0,0-0.092-0.86-0.214-1.334c-0.122-0.468-0.896-0.713-0.896-0.713
			s-2.822,1.996-6.286,4.105c0,0,1.192,0.061,1.539,1.125c0,0,1.65-0.52,3.433-1.772C47.109,36.073,47.756,35.91,47.756,35.91z"/>
		
			<linearGradient id="SVGID_5_" gradientUnits="userSpaceOnUse" x1="-40.4434" y1="68.3398" x2="-42.4155" y2="71.2979" gradientTransform="matrix(-0.9951 -0.0993 -0.0993 0.9951 2.8549 -33.3763)">
			<stop  offset="0" style="stop-color:#209847"/>
			<stop  offset="0.9939" style="stop-color:#63B246"/>
		</linearGradient>
		<path fill="url(#SVGID_5_)" d="M41.058,39.522c0,0-0.291-1.111-0.698-1.554c0,0-4.869,2.48-6.831,3.826l1.028,1.701
			C34.558,43.495,39.208,40.882,41.058,39.522z"/>
		<path fill="#007D98" d="M34.197,43.689c0,0-0.713-1.442-0.667-1.895c0,0-5.173,2.679-6.563,3.453c0,0,0.525,0.958,1.09,1.584
			c0,0,2.078-1.04,3.152-1.503C32.281,44.866,34.197,43.689,34.197,43.689z"/>
		
			<linearGradient id="SVGID_6_" gradientUnits="userSpaceOnUse" x1="-27.8164" y1="75.9033" x2="-28.8512" y2="79.3886" gradientTransform="matrix(-0.9951 -0.0993 -0.0993 0.9951 2.8549 -33.3763)">
			<stop  offset="0" style="stop-color:#209847"/>
			<stop  offset="0.9939" style="stop-color:#63B246"/>
		</linearGradient>
		<path fill="url(#SVGID_6_)" d="M27.299,46.984c0,0-0.631-1.023-0.333-1.737c0,0-4.582,1.885-7.36,2.292
			c0,0,0.16,1.029,0.407,1.966C20.013,49.505,24.133,48.411,27.299,46.984z"/>
		
			<linearGradient id="SVGID_7_" gradientUnits="userSpaceOnUse" x1="-21.2446" y1="79.25" x2="-23.9435" y2="81.2129" gradientTransform="matrix(-0.9951 -0.0993 -0.0993 0.9951 2.8549 -33.3763)">
			<stop  offset="0" style="stop-color:#065A75"/>
			<stop  offset="0.3002" style="stop-color:#046581"/>
			<stop  offset="1" style="stop-color:#007B98"/>
		</linearGradient>
		<path fill="url(#SVGID_7_)" d="M18.991,49.705c0,0,0.168-1.125,0.614-2.165c0,0-3.019-0.071-4.216-0.652l-0.799,2.078
			C14.59,48.966,14.025,50.576,18.991,49.705z"/>
	</g>
	<g>
		
			<linearGradient id="SVGID_8_" gradientUnits="userSpaceOnUse" x1="-42.834" y1="57.2676" x2="-41.8692" y2="61.7517" gradientTransform="matrix(-0.9951 -0.0993 -0.0993 0.9951 2.8549 -33.3763)">
			<stop  offset="0" style="stop-color:#1A8642"/>
			<stop  offset="0.9939" style="stop-color:#57A045"/>
		</linearGradient>
		<path fill="url(#SVGID_8_)" d="M46.646,33.863c0,0-10.269-4.564-18.073-2.435c0,0,9.414-4.024,17.432-2.022l3.117,0.765
			L46.646,33.863z"/>
		
			<linearGradient id="SVGID_9_" gradientUnits="userSpaceOnUse" x1="-48.6973" y1="66.2129" x2="-42.509" y2="63.2039" gradientTransform="matrix(-0.9951 -0.0993 -0.0993 0.9951 2.8549 -33.3763)">
			<stop  offset="0" style="stop-color:#057892"/>
			<stop  offset="0.9939" style="stop-color:#046078"/>
		</linearGradient>
		<path fill="url(#SVGID_9_)" d="M40.36,37.968c0,0-6.143-5.919-12.544-6.383c0,0,9.029-3.606,18.83,2.277
			C46.646,33.863,44.328,35.91,40.36,37.968z"/>
		
			<linearGradient id="SVGID_10_" gradientUnits="userSpaceOnUse" x1="-39.0352" y1="66.6318" x2="-41.7596" y2="70.3779" gradientTransform="matrix(-0.9951 -0.0993 -0.0993 0.9951 2.8549 -33.3763)">
			<stop  offset="0" style="stop-color:#1A8642"/>
			<stop  offset="0.9939" style="stop-color:#57A045"/>
		</linearGradient>
		<path fill="url(#SVGID_10_)" d="M33.529,41.794l6.831-3.826c0,0-5.41-5.842-12.544-6.383
			C27.816,31.585,30.985,38.116,33.529,41.794z"/>
		
			<linearGradient id="SVGID_11_" gradientUnits="userSpaceOnUse" x1="-35.0024" y1="74.1611" x2="-33.2429" y2="69.5072" gradientTransform="matrix(-0.9951 -0.0993 -0.0993 0.9951 2.8549 -33.3763)">
			<stop  offset="0" style="stop-color:#057892"/>
			<stop  offset="0.9939" style="stop-color:#046078"/>
		</linearGradient>
		<path fill="url(#SVGID_11_)" d="M26.966,45.247l6.563-3.453c0,0-4.253-7.096-5.713-10.208
			C27.816,31.585,24.18,37.153,26.966,45.247z"/>
		
			<linearGradient id="SVGID_12_" gradientUnits="userSpaceOnUse" x1="-28.5078" y1="73.7119" x2="-29.6431" y2="78.4235" gradientTransform="matrix(-0.9951 -0.0993 -0.0993 0.9951 2.8549 -33.3763)">
			<stop  offset="0" style="stop-color:#1D8B44"/>
			<stop  offset="0.9939" style="stop-color:#57A045"/>
		</linearGradient>
		<path fill="url(#SVGID_12_)" d="M19.605,47.54c0,0,1.167-10.554,7.763-15.485c0,0-2.524,4.712-0.402,13.193
			C26.966,45.247,22.871,47.407,19.605,47.54z"/>
		
			<linearGradient id="SVGID_13_" gradientUnits="userSpaceOnUse" x1="-27.085" y1="73.2656" x2="-18.6821" y2="73.2656" gradientTransform="matrix(-0.9951 -0.0993 -0.0993 0.9951 2.8549 -33.3763)">
			<stop  offset="0" style="stop-color:#065A75"/>
			<stop  offset="0.3002" style="stop-color:#046581"/>
			<stop  offset="1" style="stop-color:#007B98"/>
		</linearGradient>
		<path fill="url(#SVGID_13_)" d="M13.531,47.79c0,0,2.078-7.096,9.642-11.991c0,0-2.3,5.308-3.567,11.741
			C19.605,47.54,16.114,48.217,13.531,47.79z"/>
	</g>
	<g>
		<g>
			
				<linearGradient id="SVGID_14_" gradientUnits="userSpaceOnUse" x1="-20.2632" y1="79.8428" x2="-28.7793" y2="77.0042" gradientTransform="matrix(-0.9951 -0.0993 -0.0993 0.9951 2.8549 -33.3763)">
				<stop  offset="0" style="stop-color:#024F61"/>
				<stop  offset="0.9939" style="stop-color:#0093B5"/>
			</linearGradient>
			<path fill="url(#SVGID_14_)" d="M13.602,47.938c-0.025,0.065,1.353,0.361,3.023,0.152c1.669-0.173,2.98-0.556,2.98-0.55
				c0-0.005-1.355,0.087-3.008,0.254C14.947,47.998,13.602,48.008,13.602,47.938z"/>
		</g>
		<g>
			
				<linearGradient id="SVGID_15_" gradientUnits="userSpaceOnUse" x1="-50.2476" y1="62.4365" x2="-51.7241" y2="59.9376" gradientTransform="matrix(-0.9951 -0.0993 -0.0993 0.9951 2.8549 -33.3763)">
				<stop  offset="0" style="stop-color:#4DA046"/>
				<stop  offset="1" style="stop-color:#176935"/>
			</linearGradient>
			<path fill="url(#SVGID_15_)" d="M46.646,33.863c0,0,0.733-0.835,1.497-1.961c0.774-1.121,1.304-2.099,1.304-2.099
				s-0.713,0.851-1.487,1.976C47.196,32.9,46.646,33.863,46.646,33.863z"/>
		</g>
		<g>
			
				<linearGradient id="SVGID_16_" gradientUnits="userSpaceOnUse" x1="-45.8096" y1="62.8877" x2="-49.7417" y2="68.1306" gradientTransform="matrix(-0.9951 -0.0993 -0.0993 0.9951 2.8549 -33.3763)">
				<stop  offset="0" style="stop-color:#024F61"/>
				<stop  offset="0.9939" style="stop-color:#0093B5"/>
			</linearGradient>
			<path fill="url(#SVGID_16_)" d="M40.36,37.968c-0.01-0.005,1.574-0.631,3.311-1.798c1.732-1.151,2.975-2.313,2.975-2.313
				s-1.416,0.927-3.138,2.068C41.787,37.077,40.36,37.963,40.36,37.968z"/>
		</g>
		<g>
			
				<linearGradient id="SVGID_17_" gradientUnits="userSpaceOnUse" x1="-33.4087" y1="71.8174" x2="-37.9463" y2="77.8677" gradientTransform="matrix(-0.9951 -0.0993 -0.0993 0.9951 2.8549 -33.3763)">
				<stop  offset="0" style="stop-color:#024F61"/>
				<stop  offset="0.9939" style="stop-color:#0093B5"/>
			</linearGradient>
			<path fill="url(#SVGID_17_)" d="M26.966,45.247c0.005,0.021,1.421-0.504,3.028-1.406c1.609-0.896,3.535-2.047,3.535-2.047
				s-2.076,0.896-3.68,1.788C28.247,44.483,26.979,45.263,26.966,45.247z"/>
		</g>
		<g>
			
				<linearGradient id="SVGID_18_" gradientUnits="userSpaceOnUse" x1="-40.8228" y1="68.0986" x2="-41.5744" y2="70.9436" gradientTransform="matrix(-0.9951 -0.0993 -0.0993 0.9951 2.8549 -33.3763)">
				<stop  offset="0" style="stop-color:#0F9F49"/>
				<stop  offset="1" style="stop-color:#176935"/>
			</linearGradient>
			<path fill="url(#SVGID_18_)" d="M33.529,41.794c0.005,0.015,1.09-0.433,3.163-1.59c2.073-1.146,3.667-2.236,3.667-2.236
				s-1.742,0.83-3.815,1.976C34.479,41.101,33.537,41.809,33.529,41.794z"/>
		</g>
		<g>
			
				<linearGradient id="SVGID_19_" gradientUnits="userSpaceOnUse" x1="-27.9023" y1="76.6084" x2="-28.769" y2="78.4378" gradientTransform="matrix(-0.9951 -0.0993 -0.0993 0.9951 2.8549 -33.3763)">
				<stop  offset="0" style="stop-color:#4DA046"/>
				<stop  offset="1" style="stop-color:#176935"/>
			</linearGradient>
			<path fill="url(#SVGID_19_)" d="M19.605,47.54c-0.011,0.01,1.861-0.122,3.907-0.841c2.042-0.683,3.456-1.452,3.456-1.452
				s-1.553,0.484-3.567,1.156C21.391,47.106,19.607,47.549,19.605,47.54z"/>
		</g>
	</g>
	<g>
		
			<linearGradient id="SVGID_20_" gradientUnits="userSpaceOnUse" x1="-45.6143" y1="71.1738" x2="-44.8475" y2="71.7276" gradientTransform="matrix(-0.9905 -0.1373 -0.1373 0.9905 1.7294 -28.4512)">
			<stop  offset="0" style="stop-color:#C3C3C3"/>
			<stop  offset="0.0414" style="stop-color:#D1D1D1"/>
			<stop  offset="0.1153" style="stop-color:#E4E3E3"/>
			<stop  offset="0.1914" style="stop-color:#EFEEEE"/>
			<stop  offset="0.2727" style="stop-color:#F3F2F2"/>
			<stop  offset="0.3937" style="stop-color:#DCDCDC"/>
			<stop  offset="0.5791" style="stop-color:#BFBFC0"/>
			<stop  offset="0.6848" style="stop-color:#B4B4B5"/>
			<stop  offset="1" style="stop-color:#EBEAEA"/>
		</linearGradient>
		<path fill="url(#SVGID_20_)" d="M45.271,63.988L28.952,32.666l-0.753,0.392l16.297,31.287
			C44.741,64.19,44.995,64.075,45.271,63.988z"/>
	</g>
	
		<linearGradient id="SVGID_21_" gradientUnits="userSpaceOnUse" x1="-39.6694" y1="62.9424" x2="-38.9047" y2="63.4947" gradientTransform="matrix(-0.9905 -0.1373 -0.1373 0.9905 1.7294 -28.4507)">
		<stop  offset="0" style="stop-color:#A1A1A0"/>
		<stop  offset="0.0112" style="stop-color:#A4A4A3"/>
		<stop  offset="0.0947" style="stop-color:#B7B6B6"/>
		<stop  offset="0.1807" style="stop-color:#C2C1C1"/>
		<stop  offset="0.2727" style="stop-color:#C6C5C5"/>
		<stop  offset="0.3362" style="stop-color:#BCBCBB"/>
		<stop  offset="0.5583" style="stop-color:#9F9F9E"/>
		<stop  offset="0.6848" style="stop-color:#949493"/>
		<stop  offset="1" style="stop-color:#C0C0C0"/>
	</linearGradient>
	<path fill="url(#SVGID_21_)" d="M28.952,32.666l6.599,12.658c-0.214-0.137-0.438-0.239-0.529-0.142
		c-0.205,0.199-0.127,0.606,0.117,1.197l-6.94-13.32L28.952,32.666z"/>
	
		<linearGradient id="SVGID_22_" gradientUnits="userSpaceOnUse" x1="-34.8335" y1="66.7822" x2="-34.1524" y2="67.2505" gradientTransform="matrix(-0.9951 -0.0993 -0.0993 0.9951 2.8549 -33.3763)">
		<stop  offset="0" style="stop-color:#828282"/>
		<stop  offset="0.2" style="stop-color:#8D8D8D"/>
		<stop  offset="0.4328" style="stop-color:#828282"/>
		<stop  offset="0.6" style="stop-color:#777778"/>
		<stop  offset="0.8394" style="stop-color:#747474"/>
		<stop  offset="1" style="stop-color:#6D6D6D"/>
	</linearGradient>
	<path fill="url(#SVGID_22_)" d="M28.952,32.666l3.391,6.5c-0.237,0.041-0.561,0.311-0.13,1.6l-4.014-7.708L28.952,32.666z"/>
	
		<linearGradient id="SVGID_23_" gradientUnits="userSpaceOnUse" x1="-21.7939" y1="70.8271" x2="-24.758" y2="73.5738" gradientTransform="matrix(-0.9951 -0.0993 -0.0993 0.9951 2.8549 -33.3763)">
		<stop  offset="0" style="stop-color:#EEF5E5"/>
		<stop  offset="0.0702" style="stop-color:#E7F1D7"/>
		<stop  offset="0.2271" style="stop-color:#DAEABE"/>
		<stop  offset="0.3212" style="stop-color:#D5E7B4"/>
		<stop  offset="0.6848" style="stop-color:#B8D98F"/>
	</linearGradient>
	<path fill="url(#SVGID_23_)" d="M24.437,33.812c0,0-8.792,4.248-10.979,14.166c0,0,1.037-2.389,8.433-7.605L24.437,33.812z"/>
	
		<linearGradient id="SVGID_24_" gradientUnits="userSpaceOnUse" x1="-43.5137" y1="57.332" x2="-43.5237" y2="61.1828" gradientTransform="matrix(-0.9951 -0.0993 -0.0993 0.9951 2.8549 -33.3763)">
		<stop  offset="0" style="stop-color:#EEF5E5"/>
		<stop  offset="0.0702" style="stop-color:#E7F1D7"/>
		<stop  offset="0.2271" style="stop-color:#DAEABE"/>
		<stop  offset="0.3212" style="stop-color:#D5E7B4"/>
		<stop  offset="0.6848" style="stop-color:#B8D98F"/>
	</linearGradient>
	<path fill="url(#SVGID_24_)" d="M31.051,30.593c0,0,3.645-2.277,9.798-2.328c6.886-0.061,8.598,1.539,8.598,1.539
		s-6.133,0.774-10.014,2.2C39.433,32.003,36.698,30.241,31.051,30.593z"/>
	
		<linearGradient id="SVGID_25_" gradientUnits="userSpaceOnUse" x1="-44.438" y1="61.8496" x2="-52.7841" y2="59.1811" gradientTransform="matrix(-0.9951 -0.0993 -0.0993 0.9951 2.8549 -33.3763)">
		<stop  offset="0" style="stop-color:#5AB947"/>
		<stop  offset="0.0429" style="stop-color:#5EBA4A"/>
		<stop  offset="0.4968" style="stop-color:#8AC863"/>
		<stop  offset="0.7273" style="stop-color:#9BCD6D"/>
		<stop  offset="1" style="stop-color:#BCDB98"/>
	</linearGradient>
	<path fill="url(#SVGID_25_)" d="M39.433,32.003c0,0,1.125,0.851,1.579,1.864c0,0,5.369-1.971,7.457-2.333
		c2.093-0.367,2.242-0.066,2.242-0.066l-1.264-1.665C49.447,29.803,46.146,29.706,39.433,32.003z"/>
	
		<linearGradient id="SVGID_26_" gradientUnits="userSpaceOnUse" x1="-26.8462" y1="72.9824" x2="-18.9552" y2="80.476" gradientTransform="matrix(-0.9951 -0.0993 -0.0993 0.9951 2.8549 -33.3763)">
		<stop  offset="0" style="stop-color:#4FB548"/>
		<stop  offset="0.1758" style="stop-color:#62BA46"/>
		<stop  offset="0.3167" style="stop-color:#6BBD4C"/>
		<stop  offset="0.5458" style="stop-color:#83C55D"/>
		<stop  offset="0.7273" style="stop-color:#9BCD6D"/>
		<stop  offset="1" style="stop-color:#BCDB98"/>
	</linearGradient>
	<path fill="url(#SVGID_26_)" d="M21.89,40.373c0,0,0.626,0.886,1.082,1.452c0.457,0.56,0.322,1.35,0.322,1.35
		s-2.216,0.474-3.836,2.415c-1.62,1.945-3.848,2.643-4.235,3.021c-0.393,0.377-0.341,1.136-0.341,1.136l-1.424-1.768
		C13.457,47.978,14.642,45.263,21.89,40.373z"/>
	
		<linearGradient id="SVGID_27_" gradientUnits="userSpaceOnUse" x1="-31.5913" y1="61.7217" x2="-34.2607" y2="66.2649" gradientTransform="matrix(-0.9951 -0.0993 -0.0993 0.9951 2.8549 -33.3763)">
		<stop  offset="0" style="stop-color:#7DC9E9"/>
		<stop  offset="0.0445" style="stop-color:#77C6E8"/>
		<stop  offset="0.264" style="stop-color:#5EBBE2"/>
		<stop  offset="0.4918" style="stop-color:#4BB3DD"/>
		<stop  offset="0.7309" style="stop-color:#41AFDB"/>
		<stop  offset="1" style="stop-color:#3DADDA"/>
	</linearGradient>
	<path fill="url(#SVGID_27_)" d="M27.355,31.622c0,0,1.748-0.744,2.744-1.177c0.848-0.377,2.666-0.933,4.913-0.199
		c2.771,0.912,4.05,1.778,4.05,1.778s-5.17,1.961-9.747,4.161c-4.572,2.196-7.425,4.188-7.425,4.188s-0.591-1.824,0.672-4.177
		C23.825,33.837,24.684,33.242,27.355,31.622z"/>
	
		<linearGradient id="SVGID_28_" gradientUnits="userSpaceOnUse" x1="-35.5298" y1="68.1123" x2="-33.9398" y2="65.841" gradientTransform="matrix(-0.9951 -0.0993 -0.0993 0.9951 2.8549 -33.3763)">
		<stop  offset="0.0055" style="stop-color:#3DADDA"/>
		<stop  offset="1" style="stop-color:#7DC9E9"/>
	</linearGradient>
	<path fill="url(#SVGID_28_)" d="M39.062,32.024c0,0,0.545,0.907,0.759,2.47c0,0-5.278,2.241-9.115,4.126
		c-3.836,1.885-6.498,3.388-6.498,3.388s-0.089-0.81-0.987-0.953c-0.897-0.147-1.33-0.683-1.33-0.683S29.696,34.851,39.062,32.024z"
		/>
	
		<linearGradient id="SVGID_29_" gradientUnits="userSpaceOnUse" x1="-38.6733" y1="72.4121" x2="-37.715" y2="73.1043" gradientTransform="matrix(-0.9951 -0.0993 -0.0993 0.9951 2.8549 -33.3763)">
		<stop  offset="0" style="stop-color:#A1A1A0"/>
		<stop  offset="0.0112" style="stop-color:#A4A4A3"/>
		<stop  offset="0.0947" style="stop-color:#B7B6B6"/>
		<stop  offset="0.1807" style="stop-color:#C2C1C1"/>
		<stop  offset="0.2727" style="stop-color:#C6C5C5"/>
		<stop  offset="0.3362" style="stop-color:#BCBCBB"/>
		<stop  offset="0.5583" style="stop-color:#9F9F9E"/>
		<stop  offset="0.6848" style="stop-color:#949493"/>
		<stop  offset="1" style="stop-color:#C0C0C0"/>
	</linearGradient>
	<path fill="url(#SVGID_29_)" d="M32.343,39.166l3.208,6.158c-0.214-0.137-0.438-0.239-0.529-0.142
		c-0.205,0.199-0.127,0.606,0.117,1.197l-2.926-5.613C31.782,39.477,32.105,39.206,32.343,39.166z"/>
	<polygon fill="#B3BCC1" points="34.798,62.698 34.703,63.646 32.309,66.933 32.447,65.608 	"/>
	<g>
		
			<linearGradient id="SVGID_30_" gradientUnits="userSpaceOnUse" x1="-82.4546" y1="67.9971" x2="-82.4206" y2="62.1261" gradientTransform="matrix(-1 0 0 1 -36.2695 0)">
			<stop  offset="0.0061" style="stop-color:#718087"/>
			<stop  offset="0.4545" style="stop-color:#B5BCC1"/>
			<stop  offset="0.6545" style="stop-color:#D2D8D9"/>
			<stop  offset="0.8545" style="stop-color:#78848E"/>
			<stop  offset="0.8917" style="stop-color:#808B95"/>
			<stop  offset="0.95" style="stop-color:#97A0A9"/>
			<stop  offset="0.9939" style="stop-color:#ACB3BB"/>
		</linearGradient>
		<path fill="url(#SVGID_30_)" d="M31.413,63.092c0.427,2.862,1.214,3.637,3.125,3.697c2.16,0.071,2.429-0.158,4.101-2.756
			c0.178-0.28,0.341-0.539,0.494-0.778c1.666-2.648,2.21-3.276,6.179-3.276c4.344,0,5.328,0.132,7.131,3.872
			c1.446,2.989,2.171,2.989,3.076,2.989l2.629-0.077c0.128,0,2.262-0.117,2.776-3.621h1.019c-0.274,1.91-1.359,4.722-4.06,4.722
			h-2.364c-1.318,0-2.373-0.254-3.973-3.56c-1.589-3.302-2.119-3.302-6.234-3.302c-3.576,0-3.841,0.429-5.339,2.808
			c-0.152,0.244-0.321,0.505-0.499,0.785c-1.757,2.733-2.333,3.269-4.974,3.269c-2.973,0-3.762-2.384-4.129-4.823L31.413,63.092z"/>
		
			<linearGradient id="SVGID_31_" gradientUnits="userSpaceOnUse" x1="-82.7383" y1="59.8721" x2="-81.7858" y2="68.6212" gradientTransform="matrix(-1 0 0 1 -36.2695 0)">
			<stop  offset="0.0061" style="stop-color:#E7EAED"/>
			<stop  offset="0.2303" style="stop-color:#DBDEE1"/>
			<stop  offset="1" style="stop-color:#CCD0D5"/>
		</linearGradient>
		<path fill="url(#SVGID_31_)" d="M30.977,63.142c0.44,2.979,1.25,3.837,3.191,3.837c2.224,0,2.544-0.22,4.256-2.919
			c0.184-0.291,0.351-0.561,0.509-0.811c1.711-2.756,2.272-3.408,6.347-3.408c4.472,0,5.481,0.138,7.335,4.025
			c1.488,3.112,2.231,3.112,3.169,3.112h2.43c2.186,0,2.898-2.558,3.122-3.837h1.05c-0.285,1.986-1.406,4.9-4.172,4.9h-2.43
			c-1.354,0-2.445-0.27-4.085-3.704c-1.64-3.432-2.181-3.432-6.419-3.432c-3.667,0-3.947,0.448-5.486,2.919
			c-0.158,0.254-0.326,0.523-0.514,0.819c-1.803,2.838-2.395,3.397-5.112,3.397c-3.057,0-3.95-2.368-4.328-4.904L30.977,63.142z"/>
		
			<linearGradient id="SVGID_32_" gradientUnits="userSpaceOnUse" x1="-82.3057" y1="59.665" x2="-82.2255" y2="68.1108" gradientTransform="matrix(-1 0 0 1 -36.2695 0)">
			<stop  offset="0" style="stop-color:#FFFFFF"/>
			<stop  offset="1" style="stop-color:#F3F4F5"/>
		</linearGradient>
		<path fill="url(#SVGID_32_)" d="M41.267,60.422c1.559-0.84,3.963-0.662,6.49-0.638c1.293,0.026,2.562,0.505,3.332,1.386
			c0.784,0.856,1.156,1.851,1.554,2.599c0.789,1.533,1.37,2.429,1.37,2.429c0-0.004-0.52-0.604-1.355-2.113
			c-0.428-0.748-0.937-1.976-1.701-2.781c-0.753-0.825-1.946-1.258-3.199-1.288c-2.526-0.03-4.931-0.25-6.429,0.509
			c-1.375,0.979-1.89,1.981-1.905,1.956C39.443,62.505,39.901,61.477,41.267,60.422z M58.682,66.84
			c-0.636,0.188-3.295,0.102-3.284,0.139c0.005-0.037,1.345,0.202,3.311-0.007c0.958-0.198,1.614-0.916,1.864-1.492
			c0.295-0.565,0.397-0.947,0.402-0.947C60.919,64.391,60.587,66.387,58.682,66.84z M31.015,63.438c0.003,0,0.089,0.468,0.237,1.223
			c0.138,0.713,0.652,1.905,1.824,2.211c1.085,0.274,2.195,0.218,2.903-0.063c0.693-0.3,0.979-0.707,0.984-0.696
			c0-0.011-0.316,0.37-1.009,0.631c-0.683,0.239-1.806,0.28-2.837-0.011c-1.093-0.305-1.627-1.39-1.801-2.088
			C31.138,63.901,31.018,63.438,31.015,63.438z"/>
	</g>
	<polygon fill="#B3BCC1" points="31.73,62.357 31.73,63.157 27.345,67.242 27.33,66.112 	"/>
	<g>
		<path fill="#EFEFF0" d="M68.034,66.112c0.077,0,0.117,0,0.199,0c-2.271-1.514-3.729-2.4-6.082-3.755c-0.066,0-0.097,0-0.163,0
			C64.332,63.712,65.778,64.599,68.034,66.112z"/>
		<path fill="#FFFFFF" d="M65.819,66.112c0.097,0,0.143,0,0.244,0c-2.13-1.503-3.484-2.415-5.686-3.755c-0.08,0-0.121,0-0.197,0
			C62.365,63.697,63.705,64.609,65.819,66.112z"/>
		<path fill="#E5E8EA" d="M67.938,66.112c0.082,0,0.117,0,0.193,0c-2.262-1.514-3.718-2.4-6.061-3.755c-0.066,0-0.097,0-0.163,0
			C64.239,63.712,65.682,64.599,67.938,66.112z"/>
		<path fill="#F3F4F5" d="M66.002,66.112c0.765,0,1.151,0,1.936,0c-2.256-1.514-3.698-2.4-6.03-3.755c-0.647,0-0.964,0-1.574,0
			C62.528,63.697,63.883,64.609,66.002,66.112z"/>
	</g>
	<g>
		<path fill="#748089" d="M65.666,66.112c0.071,0,0.112,0,0.188,0c-2.114-1.503-3.458-2.415-5.644-3.755c-0.062,0-0.092,0-0.148,0
			C62.233,63.697,63.567,64.614,65.666,66.112z"/>
		<path fill="#FFFFFF" d="M63.537,66.112c0.092,0,0.143,0,0.233,0c-1.955-1.493-3.193-2.431-5.216-3.755c-0.07,0-0.106,0-0.183,0
			C60.374,63.677,61.596,64.625,63.537,66.112z"/>
		<path fill="#E5E8EA" d="M65.569,66.112c0.076,0,0.117,0,0.188,0c-2.108-1.503-3.443-2.415-5.623-3.755c-0.062,0-0.093,0-0.153,0
			C62.146,63.697,63.476,64.614,65.569,66.112z"/>
		<path fill="#F3F4F5" d="M63.721,66.112c0.723,0,1.095,0,1.849,0c-2.094-1.498-3.423-2.415-5.588-3.755c-0.602,0-0.896,0-1.467,0
			C60.531,63.682,61.765,64.619,63.721,66.112z"/>
	</g>
	<g>
		<path fill="#748089" d="M63.389,66.112c0.077,0,0.107,0,0.185,0c-1.941-1.487-3.169-2.436-5.171-3.755c-0.061,0-0.087,0-0.143,0
			C60.246,63.677,61.464,64.625,63.389,66.112z"/>
		<path fill="#FFFFFF" d="M61.336,66.112c0.093,0,0.143,0,0.235,0c-1.773-1.479-2.89-2.446-4.718-3.749c-0.071,0-0.107,0-0.178,0
			C58.484,63.662,59.584,64.634,61.336,66.112z"/>
		<path fill="#E5E8EA" d="M63.303,66.112c0.071,0,0.102,0,0.173,0c-1.931-1.487-3.147-2.436-5.145-3.755c-0.056,0-0.086,0-0.143,0
			C60.17,63.677,61.377,64.625,63.303,66.112z"/>
		<path fill="#F3F4F5" d="M61.515,66.112c0.703,0,1.06,0,1.788,0c-1.926-1.487-3.133-2.436-5.114-3.755
			c-0.565,0-0.841,0-1.376,0.006C58.637,63.662,59.747,64.634,61.515,66.112z"/>
	</g>
	<g>
		<path fill="#748089" d="M61.199,66.112c0.07,0,0.106,0,0.178,0c-1.758-1.479-2.862-2.45-4.676-3.749c-0.052,0-0.076,0-0.133,0
			C58.366,63.662,59.462,64.634,61.199,66.112z"/>
		<path fill="#FFFFFF" d="M59.223,66.112c0.087,0,0.133,0,0.219,0c-1.579-1.463-2.566-2.466-4.197-3.749c-0.071,0-0.102,0-0.163,0
			C56.691,63.646,57.658,64.649,59.223,66.112z"/>
		<path fill="#E5E8EA" d="M61.112,66.112c0.071,0,0.102,0,0.173,0c-1.746-1.479-2.843-2.45-4.646-3.749c-0.057,0-0.081,0-0.137,0
			C58.29,63.662,59.38,64.641,61.112,66.112z"/>
		<path fill="#F3F4F5" d="M59.391,66.112c0.683,0,1.023,0,1.722,0c-1.732-1.472-2.822-2.45-4.609-3.749c-0.53,0-0.79,0-1.3,0
			C56.833,63.646,57.812,64.649,59.391,66.112z"/>
	</g>
	<g>
		<path fill="#748089" d="M59.085,66.112c0.071,0,0.102,0,0.173,0c-1.568-1.463-2.542-2.466-4.156-3.749c-0.052,0-0.076,0-0.122,0
			C56.573,63.646,57.536,64.649,59.085,66.112z"/>
		<path fill="#FFFFFF" d="M57.175,66.112c0.087,0,0.127,0,0.209,0c-1.386-1.452-2.241-2.481-3.668-3.744c-0.066,0-0.097,0-0.163,0
			C54.964,63.631,55.805,64.664,57.175,66.112z"/>
		<path fill="#E5E8EA" d="M59.004,66.112c0.065,0,0.102,0,0.167,0c-1.554-1.463-2.525-2.466-4.131-3.749c-0.051,0-0.076,0-0.127,0
			C56.503,63.646,57.46,64.649,59.004,66.112z"/>
		<path fill="#F3F4F5" d="M57.338,66.112c0.657,0,0.993,0,1.666,0c-1.544-1.463-2.501-2.466-4.091-3.749
			c-0.505,0-0.749,0.005-1.237,0.005C55.102,63.631,55.957,64.66,57.338,66.112z"/>
	</g>
	<g>
		<path fill="#748089" d="M57.042,66.112c0.066,0,0.097,0,0.163,0c-1.37-1.448-2.216-2.481-3.626-3.744c-0.047,0-0.072,0-0.117,0
			C54.853,63.631,55.688,64.664,57.042,66.112z"/>
		<path fill="#FFFFFF" d="M55.183,66.112c0.082,0,0.123,0,0.209,0c-1.191-1.438-1.92-2.496-3.143-3.744c-0.061,0-0.092,0-0.153,0
			C53.299,63.616,54.012,64.675,55.183,66.112z"/>
		<path fill="#E5E8EA" d="M56.961,66.112c0.066,0,0.097,0,0.168,0c-1.365-1.448-2.211-2.481-3.612-3.744c-0.045,0-0.07,0-0.116,0
			C54.786,63.631,55.611,64.664,56.961,66.112z"/>
		<path fill="#F3F4F5" d="M55.346,66.112c0.638,0,0.958,0,1.615,0c-1.35-1.448-2.175-2.481-3.561-3.744c-0.483,0-0.724,0-1.192,0
			C53.431,63.616,54.154,64.675,55.346,66.112z"/>
	</g>
	<g>
		<path fill="#748089" d="M55.061,66.112c0.062,0,0.092,0,0.152,0c-1.171-1.438-1.89-2.496-3.097-3.744c-0.046,0-0.071,0-0.111,0
			C53.191,63.616,53.899,64.675,55.061,66.112z"/>
		<path fill="#FFFFFF" d="M53.247,66.112c0.076,0,0.117,0,0.199,0c-0.998-1.422-1.595-2.512-2.624-3.74c-0.056,0-0.086,0-0.143,0
			C51.679,63.601,52.265,64.69,53.247,66.112z"/>
		<path fill="#E5E8EA" d="M54.979,66.112c0.061,0,0.092,0,0.157,0c-1.166-1.438-1.88-2.496-3.076-3.744c-0.046,0-0.071,0-0.117,0
			C53.125,63.61,53.828,64.675,54.979,66.112z"/>
		<path fill="#F3F4F5" d="M53.4,66.112c0.621,0,0.938,0,1.579,0c-1.151-1.438-1.854-2.502-3.036-3.744
			c-0.469,0.004-0.692,0.004-1.151,0.004C51.811,63.601,52.407,64.69,53.4,66.112z"/>
	</g>
	<g>
		<path fill="#748089" d="M53.12,66.112c0.061,0,0.097,0,0.157,0c-0.988-1.422-1.573-2.512-2.577-3.74c-0.045,0-0.071,0-0.111,0
			C51.577,63.595,52.157,64.69,53.12,66.112z"/>
		<path fill="#FFFFFF" d="M51.342,66.112c0.082,0,0.122,0,0.204,0c-0.814-1.411-1.283-2.526-2.114-3.733c-0.056,0-0.086,0-0.147,0
			C50.094,63.586,50.553,64.706,51.342,66.112z"/>
		<path fill="#E5E8EA" d="M53.044,66.112c0.061,0,0.092,0,0.152,0c-0.974-1.422-1.559-2.512-2.557-3.74c-0.041,0-0.066,0-0.112,0
			C51.511,63.595,52.086,64.69,53.044,66.112z"/>
		<path fill="#F3F4F5" d="M51.5,66.112c0.611,0,0.922,0,1.544,0c-0.958-1.422-1.533-2.518-2.517-3.74
			c-0.453,0-0.677,0.007-1.13,0.007C50.221,63.586,50.689,64.701,51.5,66.112z"/>
	</g>
	<g>
		<path fill="#748089" d="M51.221,66.112c0.061,0,0.091,0,0.152,0c-0.795-1.406-1.253-2.526-2.068-3.733c-0.041,0-0.066,0-0.112,0
			C49.993,63.579,50.446,64.706,51.221,66.112z"/>
		<path fill="#FFFFFF" d="M49.479,66.112c0.081,0,0.122,0,0.193,0c-0.632-1.396-0.979-2.542-1.62-3.733c-0.061,0-0.091,0-0.148,0
			C48.526,63.564,48.866,64.717,49.479,66.112z"/>
		<path fill="#E5E8EA" d="M51.148,66.112c0.062,0,0.092,0,0.153,0c-0.79-1.406-1.248-2.533-2.048-3.733c-0.045,0-0.071,0-0.112,0
			C49.926,63.579,50.375,64.706,51.148,66.112z"/>
		<path fill="#F3F4F5" d="M49.631,66.112c0.601,0,0.906,0,1.518,0c-0.774-1.406-1.222-2.533-2.007-3.733c-0.454,0-0.672,0-1.125,0
			C48.653,63.57,48.999,64.717,49.631,66.112z"/>
	</g>
	<g>
		<path fill="#748089" d="M49.355,66.112c0.061,0,0.092,0,0.153,0c-0.617-1.396-0.958-2.548-1.58-3.733c-0.05,0-0.071,0-0.117,0
			C48.424,63.564,48.754,64.721,49.355,66.112z"/>
		<path fill="#FFFFFF" d="M47.634,66.112c0.076,0,0.117,0,0.193,0c-0.469-1.381-0.703-2.558-1.167-3.729c-0.061,0-0.091,0-0.148,0
			C46.961,63.549,47.186,64.731,47.634,66.112z"/>
		<path fill="#E5E8EA" d="M49.285,66.112c0.061,0,0.086,0,0.147,0c-0.605-1.392-0.942-2.548-1.563-3.733c-0.046,0-0.066,0-0.112,0
			C48.357,63.564,48.684,64.721,49.285,66.112z"/>
		<path fill="#F3F4F5" d="M47.782,66.112c0.596,0,0.901,0,1.502,0c-0.601-1.392-0.927-2.548-1.528-3.733
			c-0.448,0.004-0.672,0.004-1.131,0.004C47.088,63.555,47.318,64.731,47.782,66.112z"/>
	</g>
	<g>
		<path fill="#748089" d="M47.512,66.112c0.062,0,0.092,0,0.153,0c-0.453-1.381-0.677-2.563-1.131-3.729c-0.041,0-0.066,0-0.112,0
			C46.86,63.549,47.073,64.731,47.512,66.112z"/>
		<path fill="#FFFFFF" d="M45.8,66.112c0.082,0,0.118,0,0.194,0c-0.315-1.365-0.438-2.572-0.744-3.729c-0.061,0-0.092,0-0.152,0.005
			C45.388,63.533,45.505,64.747,45.8,66.112z"/>
		<path fill="#E5E8EA" d="M47.44,66.112c0.061,0,0.092,0,0.148,0c-0.443-1.381-0.667-2.563-1.111-3.729c-0.046,0-0.066,0-0.117,0
			C46.798,63.549,47.008,64.731,47.44,66.112z"/>
		<path fill="#F3F4F5" d="M45.953,66.112c0.591,0,0.886,0,1.487,0c-0.433-1.381-0.642-2.563-1.08-3.729c-0.454,0-0.683,0-1.151,0
			C45.515,63.533,45.637,64.747,45.953,66.112z"/>
	</g>
	<g>
		<path fill="#748089" d="M45.684,66.112c0.056,0,0.086,0,0.147,0c-0.3-1.365-0.417-2.579-0.712-3.725
			c-0.047,0-0.072-0.005-0.113-0.005C45.28,63.533,45.392,64.747,45.684,66.112z"/>
		<path fill="#FFFFFF" d="M43.977,66.112c0.076,0,0.112,0,0.193,0c-0.183-1.356-0.214-2.594-0.376-3.725c-0.062,0-0.092,0-0.158,0
			C43.788,63.519,43.804,64.756,43.977,66.112z"/>
		<path fill="#E5E8EA" d="M45.606,66.112c0.061,0,0.092,0,0.153,0c-0.296-1.365-0.413-2.579-0.698-3.725c-0.046,0-0.072,0-0.117,0
			C45.219,63.533,45.327,64.747,45.606,66.112z"/>
		<path fill="#F3F4F5" d="M44.125,66.112c0.596,0,0.891,0,1.482,0c-0.28-1.365-0.387-2.579-0.662-3.725c-0.469,0-0.703,0-1.192,0
			C43.916,63.519,43.946,64.756,44.125,66.112z"/>
	</g>
	<g>
		<path fill="#748089" d="M43.854,66.112c0.061,0,0.091,0,0.152,0c-0.173-1.356-0.193-2.594-0.346-3.725c-0.051,0-0.072,0-0.123,0
			C43.681,63.519,43.696,64.756,43.854,66.112z"/>
		<path fill="#FFFFFF" d="M42.143,66.112c0.076,0,0.117,0,0.193,0c-0.071-1.34-0.01-2.609-0.056-3.725c-0.066,0-0.097,0-0.163,0
			C42.153,63.503,42.082,64.772,42.143,66.112z"/>
		<path fill="#E5E8EA" d="M43.783,66.112c0.061,0,0.087,0,0.148,0c-0.168-1.356-0.184-2.594-0.331-3.725c-0.051,0-0.072,0-0.123,0
			C43.62,63.519,43.63,64.762,43.783,66.112z"/>
		<path fill="#F3F4F5" d="M42.291,66.112c0.596,0,0.896,0,1.492,0c-0.152-1.351-0.163-2.594-0.305-3.725c-0.484,0-0.734,0-1.233,0
			C42.286,63.503,42.225,64.772,42.291,66.112z"/>
	</g>
	<g>
		<path fill="#748089" d="M42.021,66.112c0.062,0,0.092,0,0.153,0c-0.061-1.34,0.005-2.609-0.03-3.725c-0.051,0-0.082,0-0.133,0
			C42.041,63.499,41.969,64.772,42.021,66.112z"/>
		<path fill="#FFFFFF" d="M40.299,66.112c0.076,0,0.112,0,0.194,0c0.021-1.33,0.152-2.624,0.199-3.725c-0.066,0-0.107,0-0.174,0
			C40.462,63.483,40.319,64.782,40.299,66.112z"/>
		<path fill="#E5E8EA" d="M41.949,66.112c0.061,0,0.092,0,0.148,0c-0.056-1.34,0.015-2.609-0.021-3.725c-0.051,0-0.076,0-0.127,0
			C41.975,63.499,41.898,64.772,41.949,66.112z"/>
		<path fill="#F3F4F5" d="M40.447,66.112c0.606,0,0.901,0,1.502,0c-0.051-1.34,0.025-2.613,0-3.725c-0.51,0-0.764,0-1.293,0.006
			C40.604,63.488,40.467,64.782,40.447,66.112z"/>
	</g>
	<g>
		<path fill="#748089" d="M40.177,66.112c0.061,0,0.092,0,0.153,0c0.021-1.33,0.163-2.624,0.214-3.725c-0.051,0-0.082,0-0.132,0
			C40.35,63.483,40.208,64.788,40.177,66.112z"/>
		<path fill="#FFFFFF" d="M38.424,66.112c0.082,0,0.122,0,0.204,0c0.071-1.315,0.265-2.645,0.377-3.719c-0.071,0-0.102,0-0.184,0
			C38.709,63.468,38.506,64.797,38.424,66.112z"/>
		<path fill="#E5E8EA" d="M40.1,66.112c0.061,0,0.092,0,0.148,0c0.03-1.324,0.173-2.629,0.229-3.725c-0.051,0-0.076,0-0.132,0
			C40.278,63.483,40.13,64.788,40.1,66.112z"/>
		<path fill="#F3F4F5" d="M38.578,66.112c0.611,0,0.917,0,1.522,0c0.03-1.324,0.178-2.629,0.245-3.725
			c-0.54,0.006-0.81,0.006-1.38,0.006C38.853,63.468,38.659,64.797,38.578,66.112z"/>
	</g>
	<g>
		<g>
			<path fill="#EFEFF0" d="M68.034,66.112c0.077,0,0.117,0,0.199,0l-0.071,1.13c-0.071,0-0.112,0-0.194,0
				C67.968,67.242,68.04,66.112,68.034,66.112z"/>
			<path fill="#D5D9DB" d="M65.819,66.112c0.097,0,0.143,0,0.244,0c0.011,0-0.051,1.13-0.041,1.13c-0.102,0-0.147,0-0.244,0
				C65.769,67.242,65.824,66.112,65.819,66.112z"/>
			<path fill="#BEC4C8" d="M67.938,66.112c0.082,0,0.117,0,0.193,0l-0.061,1.13c-0.082,0-0.122,0-0.193,0L67.938,66.112z"/>
			<path fill="#C9CDD1" d="M66.002,66.112c0.765,0,1.151,0,1.936,0l-0.061,1.13c-0.779,0-1.161,0-1.91,0
				C65.956,67.242,66.013,66.112,66.002,66.112z"/>
		</g>
		<g>
			<path fill="#6E7E85" d="M65.666,66.112c0.071,0,0.112,0,0.188,0c0.005,0-0.046,1.13-0.041,1.13c-0.076,0-0.111,0-0.188,0
				C65.615,67.242,65.676,66.112,65.666,66.112z"/>
			<path fill="#D5D9DB" d="M63.537,66.112c0.092,0,0.143,0,0.233,0c0.016,0-0.034,1.125-0.02,1.13c-0.097,0-0.144,0-0.234,0
				C63.496,67.237,63.547,66.112,63.537,66.112z"/>
			<path fill="#BEC4C8" d="M65.569,66.112c0.076,0,0.117,0,0.188,0c0.011,0-0.046,1.13-0.035,1.13c-0.077,0-0.112,0-0.189,0
				C65.523,67.242,65.579,66.112,65.569,66.112z"/>
			<path fill="#C9CDD1" d="M63.721,66.112c0.723,0,1.095,0,1.849,0c0.01,0-0.046,1.13-0.036,1.13c-0.743,0-1.11,0-1.839,0
				C63.68,67.237,63.73,66.112,63.721,66.112z"/>
		</g>
		<g>
			<path fill="#6E7E85" d="M63.389,66.112c0.077,0,0.107,0,0.185,0c0.015,0-0.036,1.125-0.026,1.13c-0.071,0-0.102,0-0.173,0
				C63.354,67.237,63.404,66.112,63.389,66.112z"/>
			<path fill="#D5D9DB" d="M61.336,66.112c0.093,0,0.143,0,0.235,0c0.015,0-0.031,1.125-0.016,1.125c-0.087,0-0.138,0-0.229,0
				C61.312,67.237,61.356,66.112,61.336,66.112z"/>
			<path fill="#BEC4C8" d="M63.303,66.112c0.071,0,0.102,0,0.173,0c0.021,0-0.03,1.125-0.015,1.13c-0.077,0-0.107,0-0.179,0
				C63.262,67.237,63.313,66.112,63.303,66.112z"/>
			<path fill="#C9CDD1" d="M61.515,66.112c0.703,0,1.06,0,1.788,0c0.01,0-0.041,1.125-0.021,1.13
				c-0.724-0.005-1.079-0.005-1.777-0.005C61.489,67.237,61.53,66.112,61.515,66.112z"/>
		</g>
		<g>
			<path fill="#6E7E85" d="M61.199,66.112c0.07,0,0.106,0,0.178,0c0.016,0-0.031,1.125-0.01,1.125c-0.071,0-0.107,0-0.179,0
				C61.173,67.237,61.214,66.112,61.199,66.112z"/>
			<path fill="#D5D9DB" d="M59.223,66.112c0.087,0,0.133,0,0.219,0c0.021,0-0.021,1.125-0.005,1.125c-0.092,0-0.138,0-0.22,0
				C59.197,67.237,59.237,66.112,59.223,66.112z"/>
			<path fill="#BEC4C8" d="M61.112,66.112c0.071,0,0.102,0,0.173,0c0.021,0-0.025,1.125-0.01,1.125c-0.071,0-0.103,0-0.173,0
				C61.087,67.237,61.133,66.112,61.112,66.112z"/>
			<path fill="#C9CDD1" d="M59.391,66.112c0.683,0,1.023,0,1.722,0c0.021,0-0.025,1.125-0.01,1.125c-0.698,0-1.04,0-1.723,0
				C59.37,67.237,59.41,66.112,59.391,66.112z"/>
		</g>
		<g>
			<path fill="#6E7E85" d="M59.085,66.112c0.071,0,0.102,0,0.173,0c0.016,0-0.025,1.125-0.011,1.125c-0.07,0-0.101,0-0.167,0
				C59.064,67.237,59.105,66.112,59.085,66.112z"/>
			<path fill="#D5D9DB" d="M57.175,66.112c0.087,0,0.127,0,0.209,0c0.021,0-0.021,1.12-0.01,1.12c-0.082,0-0.123,0-0.215,0
				C57.148,67.232,57.19,66.112,57.175,66.112z"/>
			<path fill="#BEC4C8" d="M59.004,66.112c0.065,0,0.102,0,0.167,0c0.016,0-0.024,1.125-0.004,1.125c-0.072,0-0.103,0-0.174,0
				C58.978,67.237,59.023,66.112,59.004,66.112z"/>
			<path fill="#C9CDD1" d="M57.338,66.112c0.657,0,0.993,0,1.666,0c0.02,0-0.026,1.125-0.011,1.125c-0.672,0-1.009,0-1.666-0.005
				C57.312,67.232,57.354,66.112,57.338,66.112z"/>
		</g>
		<g>
			<path fill="#6E7E85" d="M57.042,66.112c0.066,0,0.097,0,0.163,0c0.016,0-0.025,1.12-0.01,1.12c-0.066,0-0.097,0-0.163,0
				C57.017,67.232,57.058,66.112,57.042,66.112z"/>
			<path fill="#D5D9DB" d="M55.183,66.112c0.082,0,0.123,0,0.209,0c0.011,0-0.025,1.12-0.016,1.12c-0.081,0-0.127,0-0.213,0
				C55.158,67.232,55.193,66.112,55.183,66.112z"/>
			<path fill="#BEC4C8" d="M56.961,66.112c0.066,0,0.097,0,0.168,0c0.01,0-0.03,1.12-0.015,1.12c-0.066,0-0.098,0-0.163,0
				C56.936,67.232,56.976,66.112,56.961,66.112z"/>
			<path fill="#C9CDD1" d="M55.346,66.112c0.638,0,0.958,0,1.615,0c0.015,0-0.025,1.12-0.01,1.12c-0.658,0-0.983,0-1.626,0
				C55.315,67.232,55.356,66.112,55.346,66.112z"/>
		</g>
		<g>
			<path fill="#6E7E85" d="M55.061,66.112c0.062,0,0.092,0,0.152,0c0.011,0-0.024,1.12-0.015,1.12c-0.066,0-0.097,0-0.158,0
				C55.03,67.232,55.065,66.112,55.061,66.112z"/>
			<path fill="#D5D9DB" d="M53.247,66.112c0.076,0,0.117,0,0.199,0c0.005,0-0.026,1.114-0.026,1.114c-0.081,0-0.121,0-0.203,0
				L53.247,66.112z"/>
			<path fill="#BEC4C8" d="M54.979,66.112c0.061,0,0.092,0,0.157,0c0.006,0-0.024,1.12-0.021,1.12c-0.066,0-0.097,0-0.157,0
				C54.949,67.232,54.984,66.112,54.979,66.112z"/>
			<path fill="#C9CDD1" d="M53.4,66.112c0.621,0,0.938,0,1.579,0c0.005,0-0.03,1.12-0.021,1.12c-0.642,0-0.958-0.006-1.584-0.006
				C53.369,67.227,53.405,66.112,53.4,66.112z"/>
		</g>
		<g>
			<path fill="#6E7E85" d="M53.12,66.112c0.061,0,0.097,0,0.157,0l-0.03,1.114c-0.061,0-0.091,0-0.152,0L53.12,66.112z"/>
			<path fill="#D5D9DB" d="M51.342,66.112c0.082,0,0.122,0,0.204,0l-0.041,1.114c-0.076-0.005-0.117-0.005-0.193-0.005
				L51.342,66.112z"/>
			<path fill="#BEC4C8" d="M53.044,66.112c0.061,0,0.092,0,0.152,0c0.005,0-0.03,1.114-0.025,1.114c-0.061,0-0.097,0-0.157,0
				L53.044,66.112z"/>
			<path fill="#C9CDD1" d="M51.5,66.112c0.611,0,0.922,0,1.544,0l-0.03,1.114c-0.622,0-0.938,0-1.55-0.005
				C51.464,67.227,51.495,66.112,51.5,66.112z"/>
		</g>
		<g>
			<path fill="#6E7E85" d="M51.221,66.112c0.061,0,0.091,0,0.152,0l-0.031,1.109c-0.061,0-0.091,0-0.152,0L51.221,66.112z"/>
			<path fill="#D5D9DB" d="M49.479,66.112c0.081,0,0.122,0,0.193,0c0,0-0.036,1.109-0.041,1.109c-0.082,0-0.118,0-0.199,0
				C49.437,67.222,49.468,66.112,49.479,66.112z"/>
			<path fill="#BEC4C8" d="M51.148,66.112c0.062,0,0.092,0,0.153,0c-0.005,0-0.036,1.109-0.036,1.109c-0.065,0-0.097,0-0.157,0
				L51.148,66.112z"/>
			<path fill="#C9CDD1" d="M49.631,66.112c0.601,0,0.906,0,1.518,0l-0.035,1.109c-0.617,0-0.922,0-1.528,0
				C49.59,67.222,49.621,66.112,49.631,66.112z"/>
		</g>
		<g>
			<path fill="#6E7E85" d="M49.355,66.112c0.061,0,0.092,0,0.153,0c-0.011,0-0.041,1.109-0.046,1.109c-0.056,0-0.086,0-0.147,0
				C49.32,67.222,49.35,66.112,49.355,66.112z"/>
			<path fill="#D5D9DB" d="M47.634,66.112c0.076,0,0.117,0,0.193,0c-0.011,0-0.041,1.109-0.051,1.105c-0.082,0-0.118,0-0.194,0
				C47.593,67.218,47.624,66.112,47.634,66.112z"/>
			<path fill="#BEC4C8" d="M49.285,66.112c0.061,0,0.086,0,0.147,0c-0.004,0-0.035,1.109-0.045,1.109c-0.061,0-0.091,0-0.152,0
				C49.244,67.222,49.274,66.112,49.285,66.112z"/>
			<path fill="#C9CDD1" d="M47.782,66.112c0.596,0,0.901,0,1.502,0c-0.011,0-0.041,1.109-0.051,1.109c-0.602,0-0.902,0-1.503-0.004
				C47.746,67.222,47.771,66.112,47.782,66.112z"/>
		</g>
		<g>
			<path fill="#6E7E85" d="M47.512,66.112c0.062,0,0.092,0,0.153,0c-0.011,0-0.041,1.105-0.051,1.105c-0.061,0-0.092,0-0.153,0
				C47.471,67.218,47.501,66.112,47.512,66.112z"/>
			<path fill="#D5D9DB" d="M45.8,66.112c0.082,0,0.118,0,0.194,0c-0.01,0-0.041,1.105-0.051,1.105c-0.082,0-0.122,0-0.193,0
				C45.76,67.218,45.79,66.112,45.8,66.112z"/>
			<path fill="#BEC4C8" d="M47.44,66.112c0.061,0,0.092,0,0.148,0c-0.011,0-0.036,1.105-0.051,1.105c-0.062,0-0.087,0-0.148,0
				C47.399,67.218,47.43,66.112,47.44,66.112z"/>
			<path fill="#C9CDD1" d="M45.953,66.112c0.591,0,0.886,0,1.487,0c-0.01,0-0.041,1.105-0.051,1.105c-0.601,0-0.897,0-1.498,0
				C45.912,67.218,45.933,66.112,45.953,66.112z"/>
		</g>
		<g>
			<path fill="#6E7E85" d="M45.684,66.112c0.056,0,0.086,0,0.147,0c-0.015,0-0.041,1.105-0.051,1.105c-0.061,0-0.091,0-0.152,0
				C45.647,67.218,45.667,66.112,45.684,66.112z"/>
			<path fill="#D5D9DB" d="M43.977,66.112c0.076,0,0.112,0,0.193,0c-0.021,0-0.04,1.099-0.056,1.099c-0.077,0-0.117,0-0.189,0
				C43.936,67.211,43.956,66.112,43.977,66.112z"/>
			<path fill="#BEC4C8" d="M45.606,66.112c0.061,0,0.092,0,0.153,0c-0.021,0-0.042,1.105-0.057,1.105c-0.056,0-0.086,0-0.148,0
				C45.566,67.218,45.597,66.112,45.606,66.112z"/>
			<path fill="#C9CDD1" d="M44.125,66.112c0.596,0,0.891,0,1.482,0c-0.01,0-0.041,1.105-0.051,1.105
				c-0.596-0.007-0.891-0.007-1.487-0.007C44.088,67.211,44.109,66.112,44.125,66.112z"/>
		</g>
		<g>
			<path fill="#6E7E85" d="M43.854,66.112c0.061,0,0.091,0,0.152,0c-0.02,0-0.04,1.099-0.056,1.099c-0.056,0-0.087,0-0.147,0
				C43.819,67.211,43.844,66.112,43.854,66.112z"/>
			<path fill="#D5D9DB" d="M42.143,66.112c0.076,0,0.117,0,0.193,0c-0.01,0-0.03,1.099-0.045,1.099c-0.077,0-0.118,0-0.189,0
				C42.112,67.211,42.132,66.112,42.143,66.112z"/>
			<path fill="#BEC4C8" d="M43.783,66.112c0.061,0,0.087,0,0.148,0c-0.015,0-0.036,1.099-0.056,1.099c-0.056,0-0.086,0-0.143,0
				C43.743,67.211,43.768,66.112,43.783,66.112z"/>
			<path fill="#C9CDD1" d="M42.291,66.112c0.596,0,0.896,0,1.492,0c-0.015,0-0.04,1.099-0.051,1.099c-0.596,0-0.891,0-1.488,0
				C42.265,67.211,42.275,66.112,42.291,66.112z"/>
		</g>
		<g>
			<path fill="#6E7E85" d="M42.021,66.112c0.062,0,0.092,0,0.153,0c-0.015,0-0.03,1.099-0.045,1.099c-0.057,0-0.087,0-0.148,0
				C41.995,67.211,42.01,66.112,42.021,66.112z"/>
			<path fill="#D5D9DB" d="M40.299,66.112c0.076,0,0.112,0,0.194,0c-0.01,0-0.021,1.099-0.031,1.095c-0.076,0-0.112,0-0.193,0
				C40.278,67.211,40.289,66.112,40.299,66.112z"/>
			<path fill="#BEC4C8" d="M41.949,66.112c0.061,0,0.092,0,0.148,0c-0.015,0-0.026,1.099-0.041,1.099c-0.061,0-0.091,0-0.148,0
				C41.919,67.211,41.934,66.112,41.949,66.112z"/>
			<path fill="#C9CDD1" d="M40.447,66.112c0.606,0,0.901,0,1.502,0c-0.015,0-0.03,1.099-0.041,1.099
				c-0.596,0-0.896-0.004-1.487-0.004C40.432,67.211,40.441,66.112,40.447,66.112z"/>
		</g>
		<g>
			<path fill="#6E7E85" d="M40.177,66.112c0.061,0,0.092,0,0.153,0c-0.01,0-0.021,1.099-0.031,1.095c-0.061,0-0.091,0-0.148,0
				C40.156,67.211,40.167,66.112,40.177,66.112z"/>
			<path fill="#D5D9DB" d="M38.424,66.112c0.082,0,0.122,0,0.204,0v1.095c-0.082,0-0.122,0-0.204,0V66.112z"/>
			<path fill="#BEC4C8" d="M40.1,66.112c0.061,0,0.092,0,0.148,0c-0.005,0-0.016,1.099-0.025,1.095c-0.056,0-0.087,0-0.148,0
				C40.085,67.211,40.096,66.112,40.1,66.112z"/>
			<path fill="#C9CDD1" d="M38.578,66.112c0.611,0,0.917,0,1.522,0c-0.004,0-0.015,1.099-0.025,1.095c-0.596,0-0.897,0-1.497,0
				V66.112z"/>
		</g>
	</g>
	<rect x="25.036" y="66.112" fill="#CCD0D5" width="13.389" height="1.13"/>
	<polygon fill="#F3F4F5" points="30.121,62.357 25.036,66.112 27.33,66.112 31.73,62.357 	"/>
	<polygon fill="#F3F4F5" points="38.424,66.112 27.33,66.112 27.969,65.566 38.465,65.566 	"/>
	<polygon fill="#F3F4F5" points="38.821,62.394 31.73,62.357 31.364,62.673 38.791,62.673 	"/>
	<polygon fill="#CCD0D5" points="31.364,62.673 31.364,63.533 38.684,63.533 38.791,62.673 	"/>
	<polygon fill="#FFFFFF" points="68.254,66.087 25.061,66.087 25.412,66.243 67.897,66.243 	"/>
	<rect x="25.036" y="67.11" fill="#74818A" width="43.126" height="0.132"/>
	<polygon fill="#F3F4F5" points="33.72,62.652 31.094,65.608 32.447,65.608 34.798,62.698 	"/>
	<g>
		
			<linearGradient id="SVGID_33_" gradientUnits="userSpaceOnUse" x1="-66.6909" y1="58.4512" x2="-51.2034" y2="47.0183" gradientTransform="matrix(-1.0834 -0.0034 -0.0874 1.0539 -28.3026 1.1624)">
			<stop  offset="0.0061" style="stop-color:#718087"/>
			<stop  offset="0.4545" style="stop-color:#B5BCC1"/>
			<stop  offset="0.9939" style="stop-color:#8C979E"/>
		</linearGradient>
		<path fill="url(#SVGID_33_)" d="M24.827,53.932c0,0,0.619-0.941,3.667,0.927c3.051,1.866,8.948,7.209,9.62,8.192l0.321,0.524
			l0.021-2.033c0,0-6.247-5.831-9.258-7.314C26.186,52.751,25.336,53.025,24.827,53.932z"/>
		
			<linearGradient id="SVGID_34_" gradientUnits="userSpaceOnUse" x1="-66.6768" y1="58.9951" x2="-64.8936" y2="58.9951" gradientTransform="matrix(-1.0834 -0.0034 -0.0874 1.0539 -28.3026 1.1624)">
			<stop  offset="0.0061" style="stop-color:#718087"/>
			<stop  offset="0.3818" style="stop-color:#8E99A0"/>
			<stop  offset="0.7547" style="stop-color:#A4ACB4"/>
			<stop  offset="0.9939" style="stop-color:#ACB3BB"/>
		</linearGradient>
		<polygon fill="url(#SVGID_34_)" points="38.088,61.589 38.888,62.246 38.027,65.536 36.764,64.554 		"/>
		
			<linearGradient id="SVGID_35_" gradientUnits="userSpaceOnUse" x1="-65.252" y1="57.8613" x2="-63.9878" y2="57.8613" gradientTransform="matrix(-1.0834 -0.0034 -0.0874 1.0539 -28.3026 1.1624)">
			<stop  offset="0.0061" style="stop-color:#718087"/>
			<stop  offset="0.3818" style="stop-color:#8E99A0"/>
			<stop  offset="0.7547" style="stop-color:#A4ACB4"/>
			<stop  offset="0.9939" style="stop-color:#ACB3BB"/>
		</linearGradient>
		<polygon fill="url(#SVGID_35_)" points="37.426,61.252 36.876,61.73 35.872,63.473 36.301,63.473 		"/>
		
			<linearGradient id="SVGID_36_" gradientUnits="userSpaceOnUse" x1="-61.5493" y1="54.5488" x2="-59.5806" y2="54.5488" gradientTransform="matrix(-1.0834 -0.0034 -0.0874 1.0539 -28.3026 1.1624)">
			<stop  offset="0.0061" style="stop-color:#718087"/>
			<stop  offset="0.3818" style="stop-color:#8E99A0"/>
			<stop  offset="0.7547" style="stop-color:#A4ACB4"/>
			<stop  offset="0.9939" style="stop-color:#ACB3BB"/>
		</linearGradient>
		<polygon fill="url(#SVGID_36_)" points="33.69,57.921 33.254,58.476 31.446,59.795 31.428,59.465 		"/>
		
			<linearGradient id="SVGID_37_" gradientUnits="userSpaceOnUse" x1="-63.8687" y1="56.4814" x2="-62.3042" y2="56.4814" gradientTransform="matrix(-1.0834 -0.0034 -0.0874 1.0539 -28.3026 1.1624)">
			<stop  offset="0.0061" style="stop-color:#718087"/>
			<stop  offset="0.3818" style="stop-color:#8E99A0"/>
			<stop  offset="0.7547" style="stop-color:#A4ACB4"/>
			<stop  offset="0.9939" style="stop-color:#ACB3BB"/>
		</linearGradient>
		<polygon fill="url(#SVGID_37_)" points="36.035,59.947 35.475,60.422 34.181,61.858 34.495,61.807 		"/>
		
			<linearGradient id="SVGID_38_" gradientUnits="userSpaceOnUse" x1="-56.2109" y1="50.5879" x2="-54.3516" y2="50.5879" gradientTransform="matrix(-1.0834 -0.0034 -0.0874 1.0539 -28.3026 1.1624)">
			<stop  offset="0.0061" style="stop-color:#718087"/>
			<stop  offset="0.3818" style="stop-color:#8E99A0"/>
			<stop  offset="0.7547" style="stop-color:#A4ACB4"/>
			<stop  offset="0.9939" style="stop-color:#ACB3BB"/>
		</linearGradient>
		<polygon fill="url(#SVGID_38_)" points="28.234,53.947 27.998,54.564 26.1,55.385 26.273,54.732 		"/>
		
			<linearGradient id="SVGID_39_" gradientUnits="userSpaceOnUse" x1="-59.8003" y1="53.1338" x2="-57.7168" y2="53.1338" gradientTransform="matrix(-1.0834 -0.0034 -0.0874 1.0539 -28.3026 1.1624)">
			<stop  offset="0.0061" style="stop-color:#718087"/>
			<stop  offset="0.3818" style="stop-color:#8E99A0"/>
			<stop  offset="0.7547" style="stop-color:#A4ACB4"/>
			<stop  offset="0.9939" style="stop-color:#ACB3BB"/>
		</linearGradient>
		<polygon fill="url(#SVGID_39_)" points="31.912,56.505 31.892,56.54 31.555,57.075 29.512,58.216 29.668,57.529 		"/>
		
			<linearGradient id="SVGID_40_" gradientUnits="userSpaceOnUse" x1="-58.0933" y1="51.8857" x2="-55.9248" y2="51.8857" gradientTransform="matrix(-1.0834 -0.0034 -0.0874 1.0539 -28.3026 1.1624)">
			<stop  offset="0.0061" style="stop-color:#718087"/>
			<stop  offset="0.3818" style="stop-color:#8E99A0"/>
			<stop  offset="0.7547" style="stop-color:#A4ACB4"/>
			<stop  offset="0.9939" style="stop-color:#ACB3BB"/>
		</linearGradient>
		<polygon fill="url(#SVGID_40_)" points="30.167,55.236 29.833,55.796 27.684,56.842 27.987,56.067 		"/>
		
			<linearGradient id="SVGID_41_" gradientUnits="userSpaceOnUse" x1="-53.124" y1="49.7651" x2="-66.1191" y2="61.0863" gradientTransform="matrix(-1.0834 -0.0034 -0.0874 1.0539 -28.3026 1.1624)">
			<stop  offset="0.0061" style="stop-color:#E7EAED"/>
			<stop  offset="0.2303" style="stop-color:#DBDEE1"/>
			<stop  offset="0.6788" style="stop-color:#D0D6D8"/>
			<stop  offset="1" style="stop-color:#A9AFB6"/>
		</linearGradient>
		<path fill="url(#SVGID_41_)" d="M37.66,66.489c0,0-9.138-7.503-10.947-9.47c-1.803-1.967-2.249-2.822-1.91-3.388
			c0.168-0.28,0.746-0.887,0.746-0.887s-0.55,0.841,0.813,2.338c1.281,1.406,12.286,11.06,12.286,11.06S38.923,66.917,37.66,66.489z
			"/>
		
			<linearGradient id="SVGID_42_" gradientUnits="userSpaceOnUse" x1="-74.9814" y1="64.0693" x2="-61.946" y2="52.8961" gradientTransform="matrix(-1 0 0 1 -36.2695 0)">
			<stop  offset="0.0061" style="stop-color:#E7EAED"/>
			<stop  offset="1" style="stop-color:#F3F4F5"/>
		</linearGradient>
		<path fill="url(#SVGID_42_)" d="M25.433,54.426c0.795,1.3,13.001,11.88,13.001,11.88l0.897-3.948c0,0-0.897-1.141-6.159-5.455
			c-6.005-4.926-7.442-4.33-7.717-4.019C25.175,53.199,24.905,53.561,25.433,54.426z M29.103,54.493l-1.928,0.691
			c-0.224-0.208-0.425-0.396-0.601-0.565l1.628-0.661C28.479,54.11,28.779,54.289,29.103,54.493z M34.472,61.833
			c-0.273-0.244-0.55-0.494-0.833-0.748l1.801-1.677c0.214,0.188,0.428,0.372,0.621,0.546L34.472,61.833z M36.876,60.687
			c0.208,0.183,0.397,0.361,0.571,0.52l-1.151,2.272c-0.229-0.209-0.479-0.434-0.744-0.674L36.876,60.687z M32.551,60.102
			c-0.298-0.27-0.594-0.535-0.881-0.8l2.02-1.381c0.298,0.245,0.585,0.489,0.863,0.724L32.551,60.102z M30.626,58.359
			c-0.281-0.256-0.55-0.504-0.805-0.734l2.101-1.125c0.242,0.188,0.489,0.381,0.742,0.585L30.626,58.359z M37.91,64.93
			c0,0-0.239-0.213-0.637-0.576l0.927-2.444c0.306,0.296,0.474,0.459,0.474,0.459L37.91,64.93z M28.41,56.326
			c-0.082-0.076-0.158-0.147-0.237-0.219l2.002-0.901c0.234,0.163,0.481,0.342,0.733,0.529l-2.093,0.963
			C28.667,56.565,28.529,56.439,28.41,56.326z M26.104,53.275c0.273-0.041,0.655,0.03,1.151,0.229l-1.291,0.47
			C25.631,53.55,25.649,53.336,26.104,53.275z"/>
		
			<linearGradient id="SVGID_43_" gradientUnits="userSpaceOnUse" x1="-65.3833" y1="60.8965" x2="-66.4759" y2="57.7077" gradientTransform="matrix(-1.0834 -0.0034 -0.0874 1.0539 -28.3026 1.1624)">
			<stop  offset="0.0061" style="stop-color:#718087"/>
			<stop  offset="0.3818" style="stop-color:#8E99A0"/>
			<stop  offset="0.7547" style="stop-color:#A4ACB4"/>
			<stop  offset="0.9939" style="stop-color:#ACB3BB"/>
		</linearGradient>
		<polygon fill="url(#SVGID_43_)" points="38.047,62.673 38.674,62.368 37.91,64.93 37.411,64.478 		"/>
		<g>
			<path fill="#FFFFFF" d="M25.318,52.954c0.027,0-0.258,0.219-0.197,0.708c0.056,0.479,0.458,1.055,1.007,1.671
				c1.107,1.248,2.793,2.659,4.625,4.412c3.729,3.453,7.101,6.041,7.091,6.046c0.01-0.005-3.107-2.813-6.936-6.185
				c-1.834-1.758-3.502-3.128-4.633-4.335c-0.558-0.606-1.06-1.146-1.128-1.613C25.07,53.184,25.343,52.954,25.318,52.954z"/>
		</g>
	</g>
	<g>
		
			<linearGradient id="SVGID_44_" gradientUnits="userSpaceOnUse" x1="-82.4756" y1="73.3076" x2="-82.4331" y2="65.976" gradientTransform="matrix(-1 0 0 1 -36.2695 0)">
			<stop  offset="0.0061" style="stop-color:#718087"/>
			<stop  offset="0.4545" style="stop-color:#B5BCC1"/>
			<stop  offset="0.6545" style="stop-color:#D2D8D9"/>
			<stop  offset="0.8545" style="stop-color:#78848E"/>
			<stop  offset="0.8917" style="stop-color:#808B95"/>
			<stop  offset="0.95" style="stop-color:#97A0A9"/>
			<stop  offset="0.9939" style="stop-color:#ACB3BB"/>
		</linearGradient>
		<path fill="url(#SVGID_44_)" d="M27.07,67.176c0.555,3.576,1.576,4.544,4.047,4.62c2.799,0.087,3.15-0.198,5.315-3.443
			c0.229-0.346,0.443-0.672,0.637-0.972c2.16-3.306,2.863-4.087,8.002-4.087c5.629,0,6.902,0.163,9.24,4.83
			c1.869,3.734,2.807,3.734,3.989,3.734l3.397-0.098c0.168,0,2.934-0.142,3.602-4.519h1.318c-0.356,2.379-1.762,5.895-5.256,5.895
			h-3.062c-1.712,0-3.077-0.321-5.145-4.447c-2.068-4.116-2.751-4.116-8.085-4.116c-4.63,0-4.976,0.535-6.912,3.499
			c-0.204,0.307-0.417,0.633-0.651,0.983c-2.272,3.407-3.016,4.081-6.441,4.081c-3.849,0-4.87-2.975-5.344-6.021L27.07,67.176z"/>
		
			<linearGradient id="SVGID_45_" gradientUnits="userSpaceOnUse" x1="-82.8291" y1="63.1494" x2="-81.6329" y2="74.1363" gradientTransform="matrix(-1 0 0 1 -36.2695 0)">
			<stop  offset="0.0061" style="stop-color:#E7EAED"/>
			<stop  offset="0.2303" style="stop-color:#DBDEE1"/>
			<stop  offset="1" style="stop-color:#CCD0D5"/>
		</linearGradient>
		<path fill="url(#SVGID_45_)" d="M26.505,67.242c0.573,3.718,1.622,4.783,4.136,4.783c2.878,0,3.291-0.27,5.512-3.643
			c0.239-0.36,0.458-0.697,0.662-1.009c2.221-3.438,2.944-4.252,8.222-4.252c5.792,0,7.1,0.168,9.504,5.021
			c1.921,3.882,2.883,3.882,4.101,3.882h3.143c2.833,0,3.76-3.188,4.045-4.783h1.365c-0.377,2.477-1.824,6.112-5.41,6.112h-3.143
			c-1.757,0-3.168-0.33-5.292-4.619c-2.119-4.284-2.827-4.284-8.313-4.284c-4.758,0-5.115,0.555-7.111,3.643
			c-0.204,0.315-0.417,0.657-0.662,1.022c-2.338,3.547-3.103,4.238-6.622,4.238c-3.958,0-5.117-2.949-5.605-6.122L26.505,67.242z"/>
		
			<linearGradient id="SVGID_46_" gradientUnits="userSpaceOnUse" x1="-82.2827" y1="62.8975" x2="-82.1825" y2="73.4501" gradientTransform="matrix(-1 0 0 1 -36.2695 0)">
			<stop  offset="0" style="stop-color:#FFFFFF"/>
			<stop  offset="1" style="stop-color:#F3F4F5"/>
		</linearGradient>
		<path fill="url(#SVGID_46_)" d="M39.84,63.851c2.012-1.061,5.13-0.837,8.405-0.8c1.67,0.03,3.316,0.626,4.31,1.727
			c1.019,1.07,1.497,2.312,2.017,3.249c1.02,1.911,1.772,3.027,1.769,3.027c0.004,0-0.668-0.755-1.758-2.64
			c-0.55-0.932-1.202-2.46-2.2-3.469c-0.974-1.029-2.517-1.574-4.142-1.609c-3.275-0.035-6.388-0.312-8.323,0.631
			c-1.778,1.229-2.451,2.48-2.47,2.446C37.466,66.447,38.063,65.164,39.84,63.851z M62.396,71.858
			c-0.825,0.232-4.27,0.126-4.259,0.167c0.01-0.041,1.747,0.26,4.289,0c1.243-0.245,2.093-1.146,2.419-1.87
			c0.382-0.702,0.515-1.181,0.521-1.176C65.289,68.801,64.861,71.293,62.396,71.858z M26.556,67.609
			c0.005,0,0.117,0.586,0.306,1.528c0.178,0.892,0.846,2.379,2.361,2.756c1.406,0.346,2.845,0.274,3.76-0.072
			c0.904-0.376,1.273-0.886,1.278-0.87c-0.002-0.016-0.412,0.464-1.306,0.79c-0.886,0.295-2.341,0.346-3.675-0.011
			c-1.416-0.383-2.109-1.738-2.333-2.614C26.713,68.189,26.561,67.609,26.556,67.609z"/>
	</g>
	<g>
		
			<linearGradient id="SVGID_47_" gradientUnits="userSpaceOnUse" x1="-89.2856" y1="66.3447" x2="-89.146" y2="67.1263" gradientTransform="matrix(-1 0 0 1 -36.2695 0)">
			<stop  offset="0.0061" style="stop-color:#748089"/>
			<stop  offset="0.4545" style="stop-color:#B1BAC0"/>
			<stop  offset="0.6545" style="stop-color:#D1D5D7"/>
			<stop  offset="0.8545" style="stop-color:#79858E"/>
			<stop  offset="0.8933" style="stop-color:#818D95"/>
			<stop  offset="0.9541" style="stop-color:#98A1A9"/>
			<stop  offset="0.9939" style="stop-color:#AAB2B9"/>
		</linearGradient>
		<circle fill="url(#SVGID_47_)" cx="52.954" cy="66.693" r="0.405"/>
		
			<linearGradient id="SVGID_48_" gradientUnits="userSpaceOnUse" x1="-89.2764" y1="66.418" x2="-89.1655" y2="67.0383" gradientTransform="matrix(-1 0 0 1 -36.2695 0)">
			<stop  offset="0" style="stop-color:#FFFFFF"/>
			<stop  offset="1" style="stop-color:#D5D9DB"/>
			<stop  offset="1" style="stop-color:#9CA6AB"/>
		</linearGradient>
		<path fill="url(#SVGID_48_)" d="M52.636,66.697c0,0.179,0.143,0.32,0.326,0.32c0.174,0,0.315-0.142,0.315-0.32
			c0-0.174-0.142-0.321-0.315-0.321C52.778,66.376,52.636,66.523,52.636,66.697z"/>
	</g>
	<g>
		
			<linearGradient id="SVGID_49_" gradientUnits="userSpaceOnUse" x1="-102.9507" y1="66.3438" x2="-102.8112" y2="67.1244" gradientTransform="matrix(-1 0 0 1 -36.2695 0)">
			<stop  offset="0.0061" style="stop-color:#748089"/>
			<stop  offset="0.4545" style="stop-color:#B1BAC0"/>
			<stop  offset="0.6545" style="stop-color:#D1D5D7"/>
			<stop  offset="0.8545" style="stop-color:#79858E"/>
			<stop  offset="0.8933" style="stop-color:#818D95"/>
			<stop  offset="0.9541" style="stop-color:#98A1A9"/>
			<stop  offset="0.9939" style="stop-color:#AAB2B9"/>
		</linearGradient>
		<path fill="url(#SVGID_49_)" d="M66.216,66.693c0,0.224,0.185,0.406,0.408,0.406c0.219,0,0.397-0.183,0.397-0.406
			c0-0.226-0.179-0.402-0.397-0.402C66.4,66.291,66.216,66.468,66.216,66.693z"/>
		
			<linearGradient id="SVGID_50_" gradientUnits="userSpaceOnUse" x1="-102.9453" y1="66.4189" x2="-102.8346" y2="67.0384" gradientTransform="matrix(-1 0 0 1 -36.2695 0)">
			<stop  offset="0" style="stop-color:#FFFFFF"/>
			<stop  offset="1" style="stop-color:#D5D9DB"/>
			<stop  offset="1" style="stop-color:#9CA6AB"/>
		</linearGradient>
		<path fill="url(#SVGID_50_)" d="M66.303,66.697c0,0.179,0.147,0.32,0.321,0.32c0.179,0,0.326-0.142,0.326-0.32
			c0-0.174-0.147-0.321-0.326-0.321C66.45,66.376,66.303,66.523,66.303,66.697z"/>
	</g>
	<g>
		
			<linearGradient id="SVGID_51_" gradientUnits="userSpaceOnUse" x1="-74.3975" y1="66.3438" x2="-74.2578" y2="67.1254" gradientTransform="matrix(-1 0 0 1 -36.2695 0)">
			<stop  offset="0.0061" style="stop-color:#748089"/>
			<stop  offset="0.4545" style="stop-color:#B1BAC0"/>
			<stop  offset="0.6545" style="stop-color:#D1D5D7"/>
			<stop  offset="0.8545" style="stop-color:#79858E"/>
			<stop  offset="0.8933" style="stop-color:#818D95"/>
			<stop  offset="0.9541" style="stop-color:#98A1A9"/>
			<stop  offset="0.9939" style="stop-color:#AAB2B9"/>
		</linearGradient>
		<path fill="url(#SVGID_51_)" d="M37.66,66.693c0,0.224,0.184,0.406,0.408,0.406c0.224,0,0.402-0.183,0.402-0.406
			c0-0.226-0.179-0.402-0.402-0.402C37.844,66.291,37.66,66.468,37.66,66.693z"/>
		
			<linearGradient id="SVGID_52_" gradientUnits="userSpaceOnUse" x1="-74.3926" y1="66.4189" x2="-74.2819" y2="67.0384" gradientTransform="matrix(-1 0 0 1 -36.2695 0)">
			<stop  offset="0" style="stop-color:#FFFFFF"/>
			<stop  offset="1" style="stop-color:#D5D9DB"/>
			<stop  offset="1" style="stop-color:#9CA6AB"/>
		</linearGradient>
		<path fill="url(#SVGID_52_)" d="M37.752,66.697c0,0.179,0.142,0.32,0.321,0.32c0.178,0,0.321-0.142,0.321-0.32
			c0-0.174-0.143-0.321-0.321-0.321C37.895,66.376,37.752,66.523,37.752,66.697z"/>
	</g>
	<g>
		
			<linearGradient id="SVGID_53_" gradientUnits="userSpaceOnUse" x1="-62.1377" y1="66.3438" x2="-61.9982" y2="67.1244" gradientTransform="matrix(-1 0 0 1 -36.2695 0)">
			<stop  offset="0.0061" style="stop-color:#718087"/>
			<stop  offset="0.4545" style="stop-color:#B5BCC1"/>
			<stop  offset="0.6545" style="stop-color:#D2D8D9"/>
			<stop  offset="0.8545" style="stop-color:#78848E"/>
			<stop  offset="0.8917" style="stop-color:#808B95"/>
			<stop  offset="0.95" style="stop-color:#97A0A9"/>
			<stop  offset="0.9939" style="stop-color:#ACB3BB"/>
		</linearGradient>
		<circle fill="url(#SVGID_53_)" cx="25.805" cy="66.693" r="0.404"/>
		
			<linearGradient id="SVGID_54_" gradientUnits="userSpaceOnUse" x1="-62.1304" y1="66.418" x2="-62.0197" y2="67.0374" gradientTransform="matrix(-1 0 0 1 -36.2695 0)">
			<stop  offset="0" style="stop-color:#FFFFFF"/>
			<stop  offset="1" style="stop-color:#D7DADC"/>
			<stop  offset="1" style="stop-color:#9CA7AC"/>
		</linearGradient>
		<path fill="url(#SVGID_54_)" d="M25.489,66.697c0,0.179,0.145,0.32,0.323,0.32s0.321-0.142,0.321-0.32
			c0-0.174-0.143-0.321-0.321-0.321S25.489,66.523,25.489,66.697z"/>
	</g>
	<g>
		<g>
			
				<radialGradient id="SVGID_55_" cx="-192.0581" cy="40.9038" r="16.102" gradientTransform="matrix(-0.9997 -0.0262 -0.0262 0.9997 -151.4865 -15.2804)" gradientUnits="userSpaceOnUse">
				<stop  offset="0" style="stop-color:#F6EC46"/>
				<stop  offset="0.3261" style="stop-color:#F6EA46"/>
				<stop  offset="0.473" style="stop-color:#F6E345"/>
				<stop  offset="0.5838" style="stop-color:#F5D644"/>
				<stop  offset="0.6767" style="stop-color:#F4C442"/>
				<stop  offset="0.7583" style="stop-color:#F3AC40"/>
				<stop  offset="0.832" style="stop-color:#F28F3D"/>
				<stop  offset="0.8997" style="stop-color:#F06D3A"/>
				<stop  offset="0.9609" style="stop-color:#EE4637"/>
				<stop  offset="1" style="stop-color:#ED2934"/>
			</radialGradient>
			<path fill="url(#SVGID_55_)" d="M39.662,50.407c-0.321,0.27-1.054,0.378-0.983-1.014c0.082-1.391-0.616-1.65-1.324-1.905
				c-0.708-0.26-1.131-0.907-0.81-2.368c0.132,0.917,0.597,1.37,1.391,1.426c0.795,0.061,1.437-0.041,2.048,0.81
				c0.061-0.754-0.209-1.156-0.907-2.006c-0.693-0.856-0.938-2.522,0.845-3.24c-1.116,1.569,0.239,2.909,2.083,3.831
				c-1.023-1.895-1.167-4.004,0.342-5.516c1.508-1.508,1.915-1.896,1.711-3.209c0.657,0.85,0.795,1.609-0.489,3.601
				c-1.283,1.991-0.814,3.443,0.795,4.67c-1.116-1.543-0.234-3.81,1.202-4.936c-1.253,2.231-0.239,4.482,0.841,5.74
				c1.08,1.264,1.92,2.593,2.215,3.358L39.662,50.407z"/>
			<path fill="#FFFFFF" d="M43.278,39.797c-0.193,0.249-0.631,0.667-0.824,0.84c-0.199,0.183-0.362,0.402-0.525,0.621
				c-0.254,0.356-0.499,0.938-0.433,1.528c0.158-0.469,0.52-0.957,0.825-1.339c0.31-0.387,0.596-0.978,0.662-1.095
				C43.05,40.235,43.278,39.797,43.278,39.797z"/>
			<path fill="#FFFFFF" d="M39.229,42.69c-0.326,0.235-0.846,1.29-0.311,1.646c0.128,0.082-0.086-0.271,0.005-0.744
				c0.046-0.209,0.072-0.301,0.153-0.52L39.229,42.69z"/>
			<path fill="#FFFFFF" d="M36.738,46.551c0.026-0.168,0.25,0.265,0.403,0.372c0.178,0.123,0.733,0.352,0.519,0.418
				C37.253,47.443,36.688,46.974,36.738,46.551z"/>
			<path fill="#FFFFFF" d="M44.817,41.691c-0.545,0.362-0.932,1.85-0.575,2.593c-0.005-0.866,0.101-1.233,0.158-1.417
				C44.598,42.242,44.817,41.691,44.817,41.691z"/>
		</g>
		<g>
			
				<radialGradient id="SVGID_56_" cx="-61.7134" cy="-51.584" r="16.1079" gradientTransform="matrix(0.0262 -0.9997 -0.9997 -0.0262 14.6183 -15.1203)" gradientUnits="userSpaceOnUse">
				<stop  offset="0" style="stop-color:#F6EC46"/>
				<stop  offset="0.3261" style="stop-color:#F6EA46"/>
				<stop  offset="0.473" style="stop-color:#F6E345"/>
				<stop  offset="0.5838" style="stop-color:#F5D644"/>
				<stop  offset="0.6767" style="stop-color:#F4C442"/>
				<stop  offset="0.7583" style="stop-color:#F3AC40"/>
				<stop  offset="0.832" style="stop-color:#F28F3D"/>
				<stop  offset="0.8997" style="stop-color:#F06D3A"/>
				<stop  offset="0.9609" style="stop-color:#EE4637"/>
				<stop  offset="1" style="stop-color:#ED2934"/>
			</radialGradient>
			<path fill="url(#SVGID_56_)" d="M44.796,48.146c-0.27-0.326-0.372-1.055,1.014-0.984c1.386,0.077,1.65-0.616,1.905-1.324
				c0.26-0.708,0.906-1.131,2.368-0.81c-0.922,0.132-1.37,0.596-1.431,1.391c-0.056,0.794,0.041,1.431-0.805,2.047
				c0.754,0.056,1.157-0.209,2.007-0.901c0.856-0.693,2.516-0.938,3.24,0.84c-1.569-1.116-2.909,0.239-3.831,2.083
				c1.894-1.024,4.003-1.167,5.511,0.342c1.514,1.512,1.9,1.92,3.22,1.716c-0.856,0.652-1.609,0.789-3.607-0.494
				c-1.991-1.283-3.442-0.815-4.666,0.794c1.539-1.115,3.81-0.229,4.931,1.198c-2.231-1.248-4.482-0.234-5.74,0.845
				c-1.259,1.08-2.593,1.922-3.358,2.216L44.796,48.146z"/>
			<path fill="#FFFFFF" d="M55.407,51.762c-0.249-0.193-0.662-0.631-0.841-0.824c-0.188-0.198-0.402-0.361-0.621-0.524
				c-0.356-0.256-0.942-0.5-1.528-0.433c0.469,0.161,0.958,0.518,1.34,0.824c0.388,0.311,0.978,0.596,1.096,0.661
				C54.969,51.533,55.407,51.762,55.407,51.762z"/>
			<path fill="#FFFFFF" d="M52.515,47.712c-0.235-0.331-1.29-0.84-1.641-0.31c-0.087,0.127,0.265-0.092,0.733,0.01
				c0.213,0.041,0.306,0.066,0.524,0.148L52.515,47.712z"/>
			<path fill="#FFFFFF" d="M48.653,45.222c0.168,0.025-0.265,0.249-0.372,0.402c-0.123,0.178-0.352,0.733-0.418,0.514
				C47.756,45.742,48.23,45.171,48.653,45.222z"/>
			<path fill="#FFFFFF" d="M53.513,53.301c-0.362-0.55-1.854-0.933-2.594-0.576c0.861-0.004,1.238,0.103,1.417,0.159
				C52.962,53.082,53.513,53.301,53.513,53.301z"/>
		</g>
		<g>
			
				<radialGradient id="SVGID_57_" cx="128.6416" cy="69.1504" r="17.5084" gradientTransform="matrix(-0.9886 0.1505 0.1505 0.9886 165.8592 -13.8556)" gradientUnits="userSpaceOnUse">
				<stop  offset="0" style="stop-color:#F6EC46"/>
				<stop  offset="0.3261" style="stop-color:#F6EA46"/>
				<stop  offset="0.473" style="stop-color:#F6E345"/>
				<stop  offset="0.5838" style="stop-color:#F5D644"/>
				<stop  offset="0.6767" style="stop-color:#F4C442"/>
				<stop  offset="0.7583" style="stop-color:#F3AC40"/>
				<stop  offset="0.832" style="stop-color:#F28F3D"/>
				<stop  offset="0.8997" style="stop-color:#F06D3A"/>
				<stop  offset="0.9609" style="stop-color:#EE4637"/>
				<stop  offset="1" style="stop-color:#ED2934"/>
			</radialGradient>
			<path fill="url(#SVGID_57_)" d="M41.16,63.138c1.247-2.231,0.234-4.484-0.841-5.741c-1.085-1.264-1.925-2.593-2.221-3.357
				l8.96-0.759c0.326-0.271,1.055-0.377,0.983,1.013c-0.076,1.377,0.856,1.605,1.584,2.068c0.912,0.581,1.789,2.109,1.789,2.109
				l-0.296,1.533c-0.764-0.8-2.201-2.542-2.812-2.745c0,0-1.039-0.143-1.569-0.928c-0.056,0.754,0.214,1.156,0.907,2.007
				c0.693,0.856,0.938,2.522-0.846,3.24c1.116-1.569-0.239-2.909-2.078-3.831c1.019,1.896,1.161,4.005-0.346,5.517
				c-1.508,1.509-1.916,1.896-1.711,3.21c-0.658-0.851-0.794-1.609,0.489-3.602c1.284-1.992,0.815-3.444-0.79-4.671
				C43.472,59.738,42.591,62.011,41.16,63.138z"/>
			<path fill="#FFFFFF" d="M43.441,63.891c0.194-0.249,0.637-0.668,0.825-0.84c0.199-0.184,0.362-0.402,0.525-0.622
				c0.254-0.356,0.499-0.941,0.433-1.528c-0.158,0.469-0.52,0.958-0.825,1.34c-0.311,0.387-0.596,0.978-0.662,1.096
				C43.671,63.453,43.441,63.891,43.441,63.891z"/>
			<path fill="#FFFFFF" d="M47.491,60.998c0.326-0.235,0.846-1.29,0.316-1.646c-0.132-0.081,0.082,0.27-0.01,0.739
				c-0.046,0.214-0.072,0.305-0.153,0.524L47.491,60.998z"/>
			<path fill="#FFFFFF" d="M41.908,61.996c0.546-0.361,0.928-1.849,0.571-2.593c0.005,0.866-0.102,1.233-0.158,1.416
				C42.123,61.445,41.908,61.996,41.908,61.996z"/>
		</g>
		<g>
			
				<radialGradient id="SVGID_58_" cx="-99.0371" cy="171.207" r="16.1064" gradientTransform="matrix(-0.0262 0.9997 0.9997 0.0262 -151.6466 150.8244)" gradientUnits="userSpaceOnUse">
				<stop  offset="0" style="stop-color:#F6EC46"/>
				<stop  offset="0.3261" style="stop-color:#F6EA46"/>
				<stop  offset="0.473" style="stop-color:#F6E345"/>
				<stop  offset="0.5838" style="stop-color:#F5D644"/>
				<stop  offset="0.6767" style="stop-color:#F4C442"/>
				<stop  offset="0.7583" style="stop-color:#F3AC40"/>
				<stop  offset="0.832" style="stop-color:#F28F3D"/>
				<stop  offset="0.8997" style="stop-color:#F06D3A"/>
				<stop  offset="0.9609" style="stop-color:#EE4637"/>
				<stop  offset="1" style="stop-color:#ED2934"/>
			</radialGradient>
			<path fill="url(#SVGID_58_)" d="M41.929,55.542c0.266,0.325,0.372,1.059-1.019,0.982c-1.385-0.076-1.65,0.617-1.905,1.324
				c-0.26,0.709-0.907,1.127-2.364,0.812c0.917-0.133,1.366-0.597,1.427-1.392c0.061-0.794-0.041-1.432,0.805-2.047
				c-0.754-0.057-1.156,0.209-2.006,0.9c-0.856,0.693-2.52,0.938-3.24-0.84c1.569,1.116,2.909-0.239,3.831-2.083
				c-1.895,1.024-4.004,1.166-5.514-0.342c-1.51-1.513-1.897-1.92-3.214-1.716c0.853-0.652,1.612-0.79,3.604,0.494
				c1.992,1.283,3.443,0.815,4.666-0.79c-1.538,1.109-3.807,0.225-4.931-1.202c2.231,1.248,4.482,0.234,5.746-0.846
				c1.253-1.08,2.588-1.92,3.352-2.216L41.929,55.542z"/>
			<path fill="#FFFFFF" d="M31.311,51.925c0.252,0.193,0.668,0.633,0.846,0.826c0.183,0.198,0.399,0.361,0.619,0.524
				c0.356,0.254,0.939,0.5,1.528,0.433c-0.469-0.163-0.957-0.52-1.339-0.824c-0.387-0.312-0.978-0.596-1.095-0.663
				C31.751,52.155,31.311,51.925,31.311,51.925z"/>
			<path fill="#FFFFFF" d="M34.207,55.975c0.235,0.332,1.289,0.841,1.641,0.311c0.091-0.126-0.265,0.092-0.734-0.005
				c-0.214-0.045-0.306-0.071-0.524-0.152L34.207,55.975z"/>
			<path fill="#FFFFFF" d="M38.068,58.466c-0.168-0.025,0.265-0.25,0.372-0.402c0.122-0.178,0.352-0.734,0.423-0.515
				C38.965,57.946,38.491,58.517,38.068,58.466z"/>
			<path fill="#FFFFFF" d="M33.21,50.387c0.36,0.55,1.852,0.933,2.59,0.576c-0.86,0.005-1.235-0.102-1.416-0.158
				C33.761,50.606,33.21,50.387,33.21,50.387z"/>
		</g>
		
			<radialGradient id="SVGID_59_" cx="80.0283" cy="17.6372" r="5.7975" gradientTransform="matrix(-0.7469 0.6649 0.6649 0.7469 91.2323 -14.4849)" gradientUnits="userSpaceOnUse">
			<stop  offset="0" style="stop-color:#F6EC46"/>
			<stop  offset="0.3783" style="stop-color:#F6EA46"/>
			<stop  offset="0.5486" style="stop-color:#F6E344"/>
			<stop  offset="0.6773" style="stop-color:#F6D642"/>
			<stop  offset="0.785" style="stop-color:#F5C43E"/>
			<stop  offset="0.8795" style="stop-color:#F5AC3A"/>
			<stop  offset="0.9636" style="stop-color:#F49034"/>
			<stop  offset="1" style="stop-color:#F48131"/>
		</radialGradient>
		<path fill="url(#SVGID_59_)" d="M37.559,51.799c-0.026,3.198,2.552,5.817,5.756,5.842c3.199,0.03,5.817-2.547,5.848-5.746
			c0.025-3.204-2.547-5.822-5.756-5.853C40.208,46.016,37.589,48.594,37.559,51.799z"/>
	</g>
	<g>
		
			<radialGradient id="SVGID_60_" cx="143.5537" cy="216.7178" r="1.1791" gradientTransform="matrix(-0.5065 -0.8623 -0.8623 0.5065 305.5927 67.1012)" gradientUnits="userSpaceOnUse">
			<stop  offset="0" style="stop-color:#F6EC46"/>
			<stop  offset="0.3783" style="stop-color:#F6EA46"/>
			<stop  offset="0.5486" style="stop-color:#F6E344"/>
			<stop  offset="0.6773" style="stop-color:#F6D642"/>
			<stop  offset="0.785" style="stop-color:#F5C43E"/>
			<stop  offset="0.8795" style="stop-color:#F5AC3A"/>
			<stop  offset="0.9636" style="stop-color:#F49034"/>
			<stop  offset="1" style="stop-color:#F48131"/>
		</radialGradient>
		<path fill="url(#SVGID_60_)" d="M45.377,53.855c0.148,0.25,0.372,0.407,0.565,0.418c-0.295,0.117-0.642,0.005-0.805-0.28
			c-0.173-0.28-0.101-0.642,0.148-0.84C45.199,53.325,45.23,53.602,45.377,53.855z"/>
		
			<radialGradient id="SVGID_61_" cx="127.9746" cy="49.3193" r="1.031" gradientTransform="matrix(-0.9886 0.1505 0.1505 0.9886 165.8592 -13.8556)" gradientUnits="userSpaceOnUse">
			<stop  offset="0" style="stop-color:#F6EC46"/>
			<stop  offset="0.3261" style="stop-color:#F6EA46"/>
			<stop  offset="0.473" style="stop-color:#F6E345"/>
			<stop  offset="0.5838" style="stop-color:#F5D644"/>
			<stop  offset="0.6767" style="stop-color:#F4C442"/>
			<stop  offset="0.7583" style="stop-color:#F3AC40"/>
			<stop  offset="0.832" style="stop-color:#F28F3D"/>
			<stop  offset="0.8997" style="stop-color:#F06D3A"/>
			<stop  offset="0.9609" style="stop-color:#EE4637"/>
			<stop  offset="1" style="stop-color:#ED2934"/>
		</radialGradient>
		<path fill="url(#SVGID_61_)" d="M45.779,53.673c0.031,0.193,0.214,0.326,0.408,0.296c0.189-0.026,0.321-0.209,0.296-0.397
			c-0.031-0.194-0.214-0.326-0.408-0.296C45.887,53.301,45.754,53.484,45.779,53.673z"/>
	</g>
	<g>
		
			<radialGradient id="SVGID_62_" cx="133.3096" cy="46.9106" r="4.9376" fx="130.5137" fy="46.422" gradientTransform="matrix(-0.9886 0.1505 0.1505 0.9886 165.8592 -13.8556)" gradientUnits="userSpaceOnUse">
			<stop  offset="0" style="stop-color:#F6EC46"/>
			<stop  offset="0.1834" style="stop-color:#F6E845"/>
			<stop  offset="0.352" style="stop-color:#F6DD43"/>
			<stop  offset="0.5149" style="stop-color:#F5CB3F"/>
			<stop  offset="0.6742" style="stop-color:#F5B03A"/>
			<stop  offset="0.8295" style="stop-color:#F48F34"/>
			<stop  offset="0.8848" style="stop-color:#F48131"/>
			<stop  offset="1" style="stop-color:#FCB633"/>
		</radialGradient>
		<path fill="url(#SVGID_62_)" d="M45.597,50.428c0,0,0.876,1.055,0.846,1.257c-0.031,0.204-0.576,0.642-0.917,0.713
			c-0.346,0.072-1.273-0.004-1.711-0.137c-0.433-0.133,0.163-2.46,0.744-2.527C45.148,49.664,45.184,49.913,45.597,50.428z"/>
		<path fill="#FFFFFF" d="M45.555,50.606c0.245,0.138,0.774,1.31,0.194,1.4C45.892,51.432,45.428,50.535,45.555,50.606z"/>
	</g>
	
		<linearGradient id="SVGID_63_" gradientUnits="userSpaceOnUse" x1="124.3574" y1="55.5078" x2="125.874" y2="54.5211" gradientTransform="matrix(-0.9886 0.1505 0.1505 0.9886 165.8592 -13.8556)">
		<stop  offset="0" style="stop-color:#F6EC46"/>
		<stop  offset="0.3556" style="stop-color:#F5C13E"/>
		<stop  offset="0.7846" style="stop-color:#F49335"/>
		<stop  offset="1" style="stop-color:#F48131"/>
	</linearGradient>
	<path fill="url(#SVGID_63_)" d="M51.989,59.316c-0.352-0.188-0.545-0.057-1.091-0.015c-0.549,0.041-0.585,0.417-1.364-0.439
		c0.015,0.77,0.555,1.473,1.538,1.07C52.05,59.53,51.989,59.316,51.989,59.316z"/>
	
		<linearGradient id="SVGID_64_" gradientUnits="userSpaceOnUse" x1="119.2793" y1="67.7539" x2="120.6221" y2="65.2578" gradientTransform="matrix(-0.9999 -0.0124 -0.0124 0.9999 172.2367 -1.2025)">
		<stop  offset="0" style="stop-color:#FDDFCB"/>
		<stop  offset="0.373" style="stop-color:#FBDFCB"/>
		<stop  offset="0.5073" style="stop-color:#F4DDCC"/>
		<stop  offset="0.6031" style="stop-color:#E9DACD"/>
		<stop  offset="0.6806" style="stop-color:#D8D5CE"/>
		<stop  offset="0.747" style="stop-color:#C2D0D0"/>
		<stop  offset="0.8057" style="stop-color:#A6C8D2"/>
		<stop  offset="0.8588" style="stop-color:#86C0D4"/>
		<stop  offset="0.906" style="stop-color:#62B7D7"/>
		<stop  offset="0.9455" style="stop-color:#3DADDA"/>
		<stop  offset="0.9591" style="stop-color:#6EA1AD"/>
		<stop  offset="0.9873" style="stop-color:#CE8A54"/>
		<stop  offset="1" style="stop-color:#F48131"/>
	</linearGradient>
	<path fill="url(#SVGID_64_)" d="M49.361,63.238c-0.005,0.316,0.81,0.587,1.829,0.598c1.009,0.015,1.834-0.235,1.839-0.551
		c0.005-0.321-1.828-0.598-1.828-0.598S49.366,62.923,49.361,63.238z"/>
	
		<radialGradient id="SVGID_65_" cx="119.9268" cy="68.9014" r="3.7123" gradientTransform="matrix(-0.9999 -0.0124 -0.0124 0.9999 172.2367 -1.2025)" gradientUnits="userSpaceOnUse">
		<stop  offset="0.7394" style="stop-color:#FFFFFF"/>
		<stop  offset="0.8134" style="stop-color:#FDFEFF"/>
		<stop  offset="0.84" style="stop-color:#F6FBFD"/>
		<stop  offset="0.859" style="stop-color:#EBF6FB"/>
		<stop  offset="0.8744" style="stop-color:#DAEFF8"/>
		<stop  offset="0.8875" style="stop-color:#C4E6F4"/>
		<stop  offset="0.8992" style="stop-color:#A8DAEE"/>
		<stop  offset="0.9097" style="stop-color:#88CDE8"/>
		<stop  offset="0.9191" style="stop-color:#64BDE1"/>
		<stop  offset="0.9273" style="stop-color:#3DADDA"/>
		<stop  offset="1" style="stop-color:#F6EC46"/>
	</radialGradient>
	<path fill="url(#SVGID_65_)" d="M49.631,63.157c0,0.27,0.662,0.443,1.527,0.453c0.867,0.01,1.6-0.143,1.6-0.412
		c0.006-0.275-1.558-0.511-1.558-0.511S49.636,62.888,49.631,63.157z"/>
	
		<linearGradient id="SVGID_66_" gradientUnits="userSpaceOnUse" x1="119.9688" y1="64.1016" x2="120.5049" y2="64.1016" gradientTransform="matrix(-0.9999 -0.0124 -0.0124 0.9999 172.2367 -1.2025)">
		<stop  offset="0" style="stop-color:#52B6DF"/>
		<stop  offset="0.007" style="stop-color:#5CBAE1"/>
		<stop  offset="0.0369" style="stop-color:#82CAE8"/>
		<stop  offset="0.07" style="stop-color:#A4D9EE"/>
		<stop  offset="0.1062" style="stop-color:#C1E5F3"/>
		<stop  offset="0.1466" style="stop-color:#D8EEF8"/>
		<stop  offset="0.1928" style="stop-color:#E9F6FB"/>
		<stop  offset="0.2486" style="stop-color:#F6FBFD"/>
		<stop  offset="0.3235" style="stop-color:#FDFEFF"/>
		<stop  offset="0.5" style="stop-color:#FFFFFF"/>
		<stop  offset="0.6718" style="stop-color:#FDFEFF"/>
		<stop  offset="0.7448" style="stop-color:#F6FBFD"/>
		<stop  offset="0.7991" style="stop-color:#E9F6FB"/>
		<stop  offset="0.8441" style="stop-color:#D8EEF7"/>
		<stop  offset="0.8833" style="stop-color:#C1E5F3"/>
		<stop  offset="0.9186" style="stop-color:#A4D9EE"/>
		<stop  offset="0.9509" style="stop-color:#82CAE7"/>
		<stop  offset="0.9799" style="stop-color:#5CBAE0"/>
		<stop  offset="1" style="stop-color:#3DADDA"/>
	</linearGradient>
	<rect x="50.95" y="59.691" fill="url(#SVGID_66_)" width="0.534" height="3.423"/>
	
		<radialGradient id="SVGID_67_" cx="121.1689" cy="57.5723" r="5.1265" fx="121.357" fy="56.9797" gradientTransform="matrix(-0.9999 -0.0124 -0.0124 0.9999 172.2367 -1.2025)" gradientUnits="userSpaceOnUse">
		<stop  offset="0.015" style="stop-color:#FFFFFF"/>
		<stop  offset="0.2307" style="stop-color:#FDFEFF"/>
		<stop  offset="0.3547" style="stop-color:#F4FBFD"/>
		<stop  offset="0.4555" style="stop-color:#E6F5FA"/>
		<stop  offset="0.5438" style="stop-color:#D2ECF7"/>
		<stop  offset="0.624" style="stop-color:#B9E1F2"/>
		<stop  offset="0.6983" style="stop-color:#99D4EC"/>
		<stop  offset="0.768" style="stop-color:#73C4E4"/>
		<stop  offset="0.8324" style="stop-color:#49B2DC"/>
		<stop  offset="0.8485" style="stop-color:#3DADDA"/>
		<stop  offset="0.9394" style="stop-color:#CAE7F4"/>
		<stop  offset="1" style="stop-color:#FFFFFF"/>
	</radialGradient>
	<polygon fill="url(#SVGID_67_)" points="48.357,56.918 51.23,60.208 54.185,56.988 	"/>
	
		<linearGradient id="SVGID_68_" gradientUnits="userSpaceOnUse" x1="122.377" y1="51.9932" x2="125.0114" y2="53.238" gradientTransform="matrix(-0.9886 0.1505 0.1505 0.9886 165.8592 -13.8556)">
		<stop  offset="0" style="stop-color:#3DADDA"/>
		<stop  offset="0.1038" style="stop-color:#46B1DC"/>
		<stop  offset="0.2731" style="stop-color:#5EBBE0"/>
		<stop  offset="0.487" style="stop-color:#86CCE8"/>
		<stop  offset="0.7369" style="stop-color:#BDE3F2"/>
		<stop  offset="1" style="stop-color:#FFFFFF"/>
	</linearGradient>
	<path fill="url(#SVGID_68_)" d="M48.357,56.888c0,0.243,1.304,0.457,2.913,0.479c1.61,0.02,2.914-0.163,2.914-0.402
		c0.005-0.25-1.294-0.464-2.903-0.479C49.672,56.464,48.363,56.642,48.357,56.888z"/>
	<g>
		
			<linearGradient id="SVGID_69_" gradientUnits="userSpaceOnUse" x1="123.7813" y1="51.8379" x2="125.2728" y2="51.6302" gradientTransform="matrix(-0.9886 0.1505 0.1505 0.9886 165.8592 -13.8556)">
			<stop  offset="0" style="stop-color:#F6EC46"/>
			<stop  offset="0.2485" style="stop-color:#F48131"/>
			<stop  offset="0.2959" style="stop-color:#EB8137"/>
			<stop  offset="0.372" style="stop-color:#D48146"/>
			<stop  offset="0.4672" style="stop-color:#AE8160"/>
			<stop  offset="0.5778" style="stop-color:#798284"/>
			<stop  offset="0.6998" style="stop-color:#3682B0"/>
			<stop  offset="0.7515" style="stop-color:#1782C5"/>
			<stop  offset="0.9191" style="stop-color:#0B70B5"/>
			<stop  offset="1" style="stop-color:#0465AB"/>
		</linearGradient>
		<path fill="url(#SVGID_69_)" d="M50.227,54.823c0,0,0.418,1.423,0.708,2.41c-0.183-0.005-0.366-0.016-0.535-0.026
			c-0.279-0.957-0.651-2.246-0.651-2.246L50.227,54.823z"/>
		
			<linearGradient id="SVGID_70_" gradientUnits="userSpaceOnUse" x1="126.7461" y1="49.0864" x2="127.0257" y2="49.7504" gradientTransform="matrix(-0.9886 0.1505 0.1505 0.9886 165.8592 -13.8556)">
			<stop  offset="0" style="stop-color:#F6EC46"/>
			<stop  offset="0.2485" style="stop-color:#F48131"/>
			<stop  offset="0.2959" style="stop-color:#EB8137"/>
			<stop  offset="0.372" style="stop-color:#D48146"/>
			<stop  offset="0.4672" style="stop-color:#AE8160"/>
			<stop  offset="0.5778" style="stop-color:#798284"/>
			<stop  offset="0.6998" style="stop-color:#3682B0"/>
			<stop  offset="0.7515" style="stop-color:#1782C5"/>
			<stop  offset="0.9191" style="stop-color:#0B70B5"/>
			<stop  offset="1" style="stop-color:#0465AB"/>
		</linearGradient>
		<path fill="url(#SVGID_70_)" d="M46.075,53.316c0.127,0.051,3.836,1.264,3.836,1.264l-0.123,0.479c0,0-3.632-1.177-3.886-1.269
			C45.637,53.697,45.953,53.265,46.075,53.316z"/>
		
			<linearGradient id="SVGID_71_" gradientUnits="userSpaceOnUse" x1="125.167" y1="50.1045" x2="124.8148" y2="50.6914" gradientTransform="matrix(-0.9886 0.1505 0.1505 0.9886 165.8592 -13.8556)">
			<stop  offset="0" style="stop-color:#2CABE1"/>
			<stop  offset="0.511" style="stop-color:#1782C5"/>
			<stop  offset="0.8409" style="stop-color:#0B70B5"/>
			<stop  offset="1" style="stop-color:#0465AB"/>
		</linearGradient>
		<polygon fill="url(#SVGID_71_)" points="50.318,55.135 50.466,54.956 50.242,54.915 50.365,54.717 50.13,54.743 50.181,54.519 
			49.967,54.615 49.926,54.426 49.794,54.539 49.615,55.007 49.621,55.115 49.697,55.032 49.661,55.146 49.784,55.078 
			49.702,55.181 49.809,55.17 49.722,55.23 49.824,55.268 		"/>
		
			<linearGradient id="SVGID_72_" gradientUnits="userSpaceOnUse" x1="124.5371" y1="50.6074" x2="125.1522" y2="50.7944" gradientTransform="matrix(-0.9886 0.1505 0.1505 0.9886 165.8592 -13.8556)">
			<stop  offset="0" style="stop-color:#FDBB35"/>
			<stop  offset="0.047" style="stop-color:#F7BC41"/>
			<stop  offset="0.2956" style="stop-color:#D7C07D"/>
			<stop  offset="0.5239" style="stop-color:#BFC4AC"/>
			<stop  offset="0.7246" style="stop-color:#ADC6CE"/>
			<stop  offset="0.8902" style="stop-color:#A2C7E2"/>
			<stop  offset="1" style="stop-color:#9EC8EA"/>
		</linearGradient>
		<polygon fill="url(#SVGID_72_)" points="50.375,54.961 50.211,54.937 49.845,55.16 49.773,55.222 		"/>
		
			<linearGradient id="SVGID_73_" gradientUnits="userSpaceOnUse" x1="124.6445" y1="50.4077" x2="125.2053" y2="50.7247" gradientTransform="matrix(-0.9886 0.1505 0.1505 0.9886 165.8592 -13.8556)">
			<stop  offset="0" style="stop-color:#FDBB35"/>
			<stop  offset="0.047" style="stop-color:#F7BC41"/>
			<stop  offset="0.2956" style="stop-color:#D7C07D"/>
			<stop  offset="0.5239" style="stop-color:#BFC4AC"/>
			<stop  offset="0.7246" style="stop-color:#ADC6CE"/>
			<stop  offset="0.8902" style="stop-color:#A2C7E2"/>
			<stop  offset="1" style="stop-color:#9EC8EA"/>
		</linearGradient>
		<polygon fill="url(#SVGID_73_)" points="50.242,54.752 50.12,54.773 49.824,55.059 49.752,55.146 		"/>
		
			<linearGradient id="SVGID_74_" gradientUnits="userSpaceOnUse" x1="124.7969" y1="50.2397" x2="125.2418" y2="50.6505" gradientTransform="matrix(-0.9886 0.1505 0.1505 0.9886 165.8592 -13.8556)">
			<stop  offset="0" style="stop-color:#FDBB35"/>
			<stop  offset="0.047" style="stop-color:#F7BC41"/>
			<stop  offset="0.2956" style="stop-color:#D7C07D"/>
			<stop  offset="0.5239" style="stop-color:#BFC4AC"/>
			<stop  offset="0.7246" style="stop-color:#ADC6CE"/>
			<stop  offset="0.8902" style="stop-color:#A2C7E2"/>
			<stop  offset="1" style="stop-color:#9EC8EA"/>
		</linearGradient>
		<polygon fill="url(#SVGID_74_)" points="50.074,54.595 49.967,54.641 49.722,55.013 49.692,55.089 		"/>
		
			<linearGradient id="SVGID_75_" gradientUnits="userSpaceOnUse" x1="124.9795" y1="50.1216" x2="125.2727" y2="50.6298" gradientTransform="matrix(-0.9886 0.1505 0.1505 0.9886 165.8592 -13.8556)">
			<stop  offset="0" style="stop-color:#FDBB35"/>
			<stop  offset="0.047" style="stop-color:#F7BC41"/>
			<stop  offset="0.2956" style="stop-color:#D7C07D"/>
			<stop  offset="0.5239" style="stop-color:#BFC4AC"/>
			<stop  offset="0.7246" style="stop-color:#ADC6CE"/>
			<stop  offset="0.8902" style="stop-color:#A2C7E2"/>
			<stop  offset="1" style="stop-color:#9EC8EA"/>
		</linearGradient>
		<polygon fill="url(#SVGID_75_)" points="49.87,54.502 49.804,54.559 49.641,54.991 49.641,55.059 		"/>
	</g>
	
		<linearGradient id="SVGID_76_" gradientUnits="userSpaceOnUse" x1="127.6162" y1="10.9263" x2="126.7669" y2="10.2032" gradientTransform="matrix(-0.9999 -0.0153 -0.0153 0.9999 161.7982 40.9909)">
		<stop  offset="0" style="stop-color:#8B5433"/>
		<stop  offset="0.2122" style="stop-color:#865131"/>
		<stop  offset="0.4487" style="stop-color:#79462A"/>
		<stop  offset="0.6968" style="stop-color:#633620"/>
		<stop  offset="0.9514" style="stop-color:#441E11"/>
		<stop  offset="1" style="stop-color:#3D190E"/>
	</linearGradient>
	<path fill="url(#SVGID_76_)" d="M36.234,48.778c-0.377-0.005-1.498,0.412-1.793,0.738l-0.416-0.005l0.002-0.184
		c0,0,1.391-0.886,2.073-0.718L36.234,48.778z"/>
	
		<linearGradient id="SVGID_77_" gradientUnits="userSpaceOnUse" x1="127.5117" y1="8.8418" x2="122.4219" y2="10.5315" gradientTransform="matrix(-0.9999 -0.0153 -0.0153 0.9999 161.7982 40.9909)">
		<stop  offset="0" style="stop-color:#F48131"/>
		<stop  offset="0.703" style="stop-color:#8B5433"/>
		<stop  offset="0.7901" style="stop-color:#885232"/>
		<stop  offset="0.8515" style="stop-color:#7F4B2D"/>
		<stop  offset="0.9051" style="stop-color:#6F3F26"/>
		<stop  offset="0.9538" style="stop-color:#5A2F1C"/>
		<stop  offset="0.9994" style="stop-color:#3D190E"/>
		<stop  offset="1" style="stop-color:#3D190E"/>
	</linearGradient>
	<path fill="url(#SVGID_77_)" d="M39.286,49.583c-0.989-0.387-2.176-1.269-2.736-1.381c-0.555-0.112-0.764-0.112-1.472,0.372
		l1.116-0.127l2.914,1.68L39.286,49.583z"/>
	
		<linearGradient id="SVGID_78_" gradientUnits="userSpaceOnUse" x1="128.2783" y1="8.8828" x2="124.5248" y2="10.8371" gradientTransform="matrix(-0.9999 -0.0153 -0.0153 0.9999 161.7982 40.9909)">
		<stop  offset="0" style="stop-color:#EEE6E4"/>
		<stop  offset="0.0151" style="stop-color:#EFD0BC"/>
		<stop  offset="0.0341" style="stop-color:#F1B892"/>
		<stop  offset="0.0535" style="stop-color:#F2A46F"/>
		<stop  offset="0.0729" style="stop-color:#F39554"/>
		<stop  offset="0.0926" style="stop-color:#F38A40"/>
		<stop  offset="0.1126" style="stop-color:#F48335"/>
		<stop  offset="0.1333" style="stop-color:#F48131"/>
		<stop  offset="1" style="stop-color:#3D190E"/>
	</linearGradient>
	<path fill="url(#SVGID_78_)" d="M38.791,49.71c0,0-1.503-1.019-2.078-1.254c-0.581-0.239-0.738-0.529-2.763,0.785l0.076,0.27
		c0,0,0.924-0.565,1.525-0.723c0.626-0.163,0.784-0.066,1.396,0.688c0.611,0.753,0.947,1.441,2.302,2.042L38.791,49.71z"/>
	<path fill="#3D190E" d="M48.378,47.917c0,0-2.909-0.27-9.796,1.655c0,0,0.087,0.974,0.454,1.752
		c0.285,0.592,2.863,0.51,4.645,0.551c0,0,0.174-0.948,0.444-1.655c0.27-0.714,0.683-1.009,1.289-0.2
		c0.601,0.811,0.831,1.065,1.044,1.222c0,0,1.401-0.713,2.093-1.385C49.187,49.236,48.8,48.895,48.378,47.917z"/>
	
		<radialGradient id="SVGID_79_" cx="130.3799" cy="54.2529" r="11.6116" gradientTransform="matrix(-0.9886 0.1505 0.1505 0.9886 165.8592 -13.8556)" gradientUnits="userSpaceOnUse">
		<stop  offset="0.5758" style="stop-color:#8CCEEA"/>
		<stop  offset="0.67" style="stop-color:#8FCFEB"/>
		<stop  offset="0.7471" style="stop-color:#99D4EC"/>
		<stop  offset="0.8182" style="stop-color:#ABDBF0"/>
		<stop  offset="0.8857" style="stop-color:#C3E5F4"/>
		<stop  offset="0.95" style="stop-color:#E1F2FA"/>
		<stop  offset="1" style="stop-color:#FFFFFF"/>
	</radialGradient>
	<path fill="url(#SVGID_79_)" d="M43.508,51.65c0.061-0.315,0.204-0.974,0.408-1.513c0.188-0.494,0.438-0.769,0.744-0.814
		c0.306-0.046,0.611,0.137,0.927,0.565c0.469,0.621,0.713,0.921,0.897,1.09c0.356-0.189,1.37-0.754,1.915-1.279
		c0.397-0.392,0.305-0.576,0.01-1.187c-0.051-0.118-0.112-0.245-0.178-0.382c-0.351-0.016-1.452-0.021-3.408,0.275
		c-1.772,0.27-3.739,0.693-5.944,1.299c0.045,0.311,0.158,0.957,0.412,1.498c0.021,0.035,0.072,0.255,1.105,0.351
		c0.688,0.067,1.543,0.076,2.374,0.087C43.024,51.645,43.269,51.645,43.508,51.65z"/>
	<g>
		
			<radialGradient id="SVGID_80_" cx="136.3047" cy="53.8096" r="6.5495" gradientTransform="matrix(-0.9886 0.1505 0.1505 0.9886 165.8592 -13.8556)" gradientUnits="userSpaceOnUse">
			<stop  offset="0" style="stop-color:#8CCEEA"/>
			<stop  offset="0.4078" style="stop-color:#8ACDEA"/>
			<stop  offset="0.5913" style="stop-color:#83CAE8"/>
			<stop  offset="0.73" style="stop-color:#76C5E6"/>
			<stop  offset="0.8461" style="stop-color:#64BDE2"/>
			<stop  offset="0.9469" style="stop-color:#4DB4DD"/>
			<stop  offset="1" style="stop-color:#3DADDA"/>
		</radialGradient>
		<path fill="url(#SVGID_80_)" d="M46.625,65.399c-0.336-1.631-0.993-3.756-4.818-6.73c-3.826-2.974-8.477-4.38-10.02-4.36
			l0.367,0.789L46.625,65.399z"/>
		
			<radialGradient id="SVGID_81_" cx="695.498" cy="2.1387" r="11.4782" gradientTransform="matrix(0.5968 -0.8024 -0.8024 -0.5968 -372.7285 623.6381)" gradientUnits="userSpaceOnUse">
			<stop  offset="0" style="stop-color:#2CABE1"/>
			<stop  offset="0.511" style="stop-color:#1782C5"/>
			<stop  offset="0.8409" style="stop-color:#0B70B5"/>
			<stop  offset="1" style="stop-color:#0465AB"/>
		</radialGradient>
		<path fill="url(#SVGID_81_)" d="M31.751,54.3c2.504,0.341,7.671,3.086,9.994,4.818c2.919,2.164,5.711,5.964,4.697,7.329
			c-1.019,1.366-5.456-0.219-8.375-2.388c-2.323-1.733-6.209-5.521-7.256-7.82L31.751,54.3z"/>
		
			<linearGradient id="SVGID_82_" gradientUnits="userSpaceOnUse" x1="143.8809" y1="53.2881" x2="139.3548" y2="48.4681" gradientTransform="matrix(-0.9886 0.1505 0.1505 0.9886 165.8592 -13.8556)">
			<stop  offset="0" style="stop-color:#D0ECF6"/>
			<stop  offset="1" style="stop-color:#FFFFFF"/>
		</linearGradient>
		<path fill="url(#SVGID_82_)" d="M30.949,56.083c1.271,0.121,3.899,2.133,3.981,5.011c-0.448-0.483-0.901-0.866-1.314-1.34
			C33.451,58.277,32.62,56.82,30.949,56.083z"/>
		
			<linearGradient id="SVGID_83_" gradientUnits="userSpaceOnUse" x1="142.4541" y1="54.6201" x2="137.934" y2="49.8065" gradientTransform="matrix(-0.9886 0.1505 0.1505 0.9886 165.8592 -13.8556)">
			<stop  offset="0" style="stop-color:#D0ECF6"/>
			<stop  offset="1" style="stop-color:#FFFFFF"/>
		</linearGradient>
		<path fill="url(#SVGID_83_)" d="M31.181,55.857c0.306-0.005,0.644,0.021,1.046,0.188c0.364,0.057,0.599,0.158,0.965,0.424
			c0.352,0.085,0.78,0.3,1.032,0.661c0.466,0.107,0.898,0.489,1.046,0.918c0.535,0.27,0.871,0.646,1.07,1.298
			c0.586,0.531,0.841,1.003,0.912,1.723c0.652,0.718,0.509,1.69,0.54,2.638c-0.753-0.718-1.452-1.176-2.144-1.894
			C35.404,59.082,33.914,56.779,31.181,55.857z"/>
		
			<linearGradient id="SVGID_84_" gradientUnits="userSpaceOnUse" x1="137.3496" y1="59.4209" x2="132.8226" y2="54.6" gradientTransform="matrix(-0.9886 0.1505 0.1505 0.9886 165.8592 -13.8556)">
			<stop  offset="0" style="stop-color:#D0ECF6"/>
			<stop  offset="1" style="stop-color:#FFFFFF"/>
		</linearGradient>
		<path fill="url(#SVGID_84_)" d="M39.188,63.192c0.438,0.108,0.662-0.081,0.754-0.487c-0.184,0.324-0.652,0.315-0.947,0.126
			c0.479,0.071,0.795-0.289,0.938-0.596c0.025-0.057,0.051-0.106,0.081-0.158c-0.081-0.07-0.168-0.077-0.26-0.07
			c-0.143,0-0.265-0.098-0.321-0.413c0.092,0.174,0.209,0.224,0.357,0.178c0.132-0.045,0.234-0.106,0.392-0.011
			c0.005-0.004,0.011-0.015,0.015-0.024c-0.051-0.123-0.132-0.188-0.295-0.295c-0.188-0.117-0.356-0.433-0.092-0.725
			c-0.082,0.407,0.255,0.57,0.662,0.633c-0.326-0.321-0.509-0.739-0.351-1.172c0.163-0.433,0.209-0.546,0.076-0.805
			c0.184,0.127,0.265,0.274,0.174,0.789c-0.082,0.514,0.112,0.779,0.494,0.927c-0.321-0.243-0.326-0.789-0.148-1.126
			c-0.061,0.561,0.291,0.963,0.581,1.161c0.051,0.037,0.102,0.071,0.147,0.113c0.061-0.083,0.061-0.189,0.057-0.291
			c0-0.168,0.091-0.301,0.376-0.32c-0.152,0.087-0.204,0.213-0.163,0.387c0.046,0.168,0.102,0.29,0.021,0.459
			c0.005,0.005,0.01,0.009,0.021,0.02c0.112-0.041,0.167-0.122,0.265-0.3c0.107-0.198,0.397-0.342,0.652,0.011
			c-0.367-0.163-0.52,0.202-0.561,0.656c0.275-0.332,0.652-0.469,1.029-0.208c0.377,0.259,0.469,0.33,0.693,0.232
			c-0.112,0.179-0.239,0.241-0.683,0.052c-0.448-0.183-0.682-0.006-0.795,0.407c0.204-0.326,0.678-0.244,0.973,0.016
			c-0.484-0.168-0.82,0.169-0.973,0.469c-0.03,0.057-0.056,0.107-0.086,0.152c0.076,0.081,0.167,0.098,0.254,0.107
			c0.143,0.021,0.26,0.137,0.3,0.474c-0.082-0.193-0.194-0.27-0.341-0.239c-0.138,0.026-0.24,0.076-0.387-0.046
			c-0.005,0.011-0.011,0.02-0.015,0.026c0.041,0.131,0.122,0.202,0.285,0.335c0.173,0.147,0.331,0.494,0.071,0.739
			c0.087-0.394-0.244-0.611-0.631-0.713c0.315,0.352,0.479,0.794,0.325,1.187c-0.152,0.392-0.198,0.494-0.071,0.76
			c-0.173-0.148-0.25-0.302-0.168-0.781c0.087-0.489-0.097-0.768-0.469-0.941c0.306,0.266,0.311,0.789,0.148,1.096
			c0.057-0.53-0.285-0.948-0.565-1.152c-0.046-0.035-0.097-0.071-0.143-0.106c-0.061,0.076-0.056,0.179-0.056,0.274
			c0.011,0.163-0.071,0.28-0.346,0.302c0.148-0.082,0.194-0.199,0.143-0.363c-0.041-0.156-0.102-0.273-0.021-0.437
			c-0.01-0.005-0.02-0.011-0.031-0.016c-0.102,0.035-0.152,0.117-0.245,0.29c-0.097,0.193-0.366,0.341-0.621,0.041
			c0.356,0.117,0.489-0.235,0.509-0.668c-0.254,0.326-0.611,0.495-0.988,0.311c-0.367-0.178-0.469-0.224-0.672-0.08
			C38.633,63.188,38.75,63.097,39.188,63.192z"/>
	</g>
	<g>
		
			<radialGradient id="SVGID_85_" cx="123.9404" cy="55.0488" r="2.438" gradientTransform="matrix(-0.9886 0.1505 0.1505 0.9886 165.8592 -13.8556)" gradientUnits="userSpaceOnUse">
			<stop  offset="0" style="stop-color:#F6EC46"/>
			<stop  offset="0.3556" style="stop-color:#F5C13E"/>
			<stop  offset="0.7846" style="stop-color:#F49335"/>
			<stop  offset="1" style="stop-color:#F48131"/>
		</radialGradient>
		<path fill="url(#SVGID_85_)" d="M52.01,59.465c0.377,0.289,0.382,1.461-0.143,2.047c-0.138,0.117-1.411-0.031-1.105-0.59
			c-0.152-0.122-0.163-0.429-0.03-0.562c-0.092-0.091-0.011-0.468,0.36-0.631C51.464,59.566,52.01,59.465,52.01,59.465z"/>
		<path fill="#FFFFFF" d="M52.157,59.923c-0.076-0.174-0.092-0.302-0.315-0.302c-0.163-0.004-0.438,0.094-0.561,0.204
			c0.193-0.015,0.377-0.076,0.57-0.034c0.132,0.03,0.214,0.111,0.326,0.167L52.157,59.923z"/>
		
			<linearGradient id="SVGID_86_" gradientUnits="userSpaceOnUse" x1="123.9248" y1="55.4121" x2="124.4835" y2="56.7198" gradientTransform="matrix(-0.9886 0.1505 0.1505 0.9886 165.8592 -13.8556)">
			<stop  offset="0" style="stop-color:#F6EC46"/>
			<stop  offset="0.3556" style="stop-color:#F5C13E"/>
			<stop  offset="0.7846" style="stop-color:#F49335"/>
			<stop  offset="1" style="stop-color:#F48131"/>
		</linearGradient>
		<path fill="url(#SVGID_86_)" d="M50.731,60.36c-0.052-0.05-0.052-0.188,0.03-0.33c-0.021,0.08-0.006,0.167,0.051,0.259
			c0.03,0.057,0.092,0.098,0.092,0.163c0,0.067-0.062,0.144-0.071,0.209c-0.021,0.174,0.152,0.158,0.193,0.295
			c0.016,0.067-0.021,0.122,0.021,0.194c0.051,0.091,0.143,0.121,0.244,0.128c0.133,0.009,0.29,0.024,0.429,0.009
			c0.152-0.016,0.285-0.092,0.402-0.198c-0.066,0.159-0.148,0.301-0.255,0.423c-0.138,0.117-1.411-0.031-1.105-0.59
			C50.609,60.8,50.599,60.493,50.731,60.36z"/>
	</g>
	<g>
		
			<radialGradient id="SVGID_87_" cx="141.416" cy="44.7695" r="12.6558" fx="148.9874" fy="41.4938" gradientTransform="matrix(-0.9886 0.1505 0.1505 0.9886 165.8592 -13.8556)" gradientUnits="userSpaceOnUse">
			<stop  offset="0.0121" style="stop-color:#F6EC46"/>
			<stop  offset="0.5024" style="stop-color:#F48131"/>
			<stop  offset="0.5596" style="stop-color:#F47B31"/>
			<stop  offset="0.6336" style="stop-color:#F26B32"/>
			<stop  offset="0.7167" style="stop-color:#F05133"/>
			<stop  offset="0.806" style="stop-color:#ED2C34"/>
			<stop  offset="0.8121" style="stop-color:#ED2934"/>
			<stop  offset="1" style="stop-color:#FFE53D"/>
		</radialGradient>
		<path fill="url(#SVGID_87_)" d="M35.979,55.206c-0.626,0.427-1.818,1.579-1.604,2.96c0.216,1.375,0.331,2.938,0.226,3.245
			c-0.163,0.482,0.115,0.559,0.268,0.569c0.102,0.372,0.336,0.483,0.55,0.524c0.173,0.22,0.571,0.397,0.734,0.026
			c0.02,0.011,0.122,0.305,0.234,0.452c0.275,0.356,0.79,0.606,1.416,0.239c-0.468-0.046-0.968-0.285-1.069-1.068
			c-0.082-0.652-0.683-0.785-1.024-0.984c-0.341-0.203-0.453-2.398-0.377-3.151c0.077-0.755,1.146-1.575,1.87-2.166L35.979,55.206z"
			/>
		<path fill="#FFFFFF" d="M35.506,55.837c-0.489,0.562-1.07,0.964-0.89,2.364C34.828,57.453,34.925,56.709,35.506,55.837z"/>
	</g>
</g>
</svg>
