<?xml version="1.0" encoding="utf-8"?>
<!-- Generator: Adobe Illustrator 16.0.0, SVG Export Plug-In . SVG Version: 6.00 Build 0)  -->
<!DOCTYPE svg PUBLIC "-//W3C//DTD SVG 1.1//EN" "http://www.w3.org/Graphics/SVG/1.1/DTD/svg11.dtd">
<svg version="1.1" id="Layer_1" xmlns="http://www.w3.org/2000/svg" xmlns:xlink="http://www.w3.org/1999/xlink" x="0px" y="0px"
	 width="100px" height="100px" viewBox="0 0 100 100" enable-background="new 0 0 100 100" xml:space="preserve">
<g>
	<g>
		<g>
			<radialGradient id="SVGID_1_" cx="49.2075" cy="41.2104" r="44.2257" gradientUnits="userSpaceOnUse">
				<stop  offset="0" style="stop-color:#FFF23A"/>
				<stop  offset="0.0401" style="stop-color:#FEE62D"/>
				<stop  offset="0.1171" style="stop-color:#FED41A"/>
				<stop  offset="0.1964" style="stop-color:#FDC90F"/>
				<stop  offset="0.2809" style="stop-color:#FDC60B"/>
				<stop  offset="0.6685" style="stop-color:#F28F3F"/>
				<stop  offset="0.8876" style="stop-color:#ED693C"/>
				<stop  offset="1" style="stop-color:#E83E39"/>
			</radialGradient>
			<path fill="url(#SVGID_1_)" d="M45.587,46.068c0.14-2.768,2.581-4.569,5.026-5.33c2.695-0.953,6.306-1.118,8.154,1.488
				c-0.327,0.139-0.963,0.417-1.28,0.558c-2.325-1.931-5.7-1.208-8.117,0.14c-1.184,0.587-1.901,1.718-2.406,2.893
				C46.627,45.88,45.934,46.006,45.587,46.068z"/>
		</g>
		<g>
			<g>
				<radialGradient id="SVGID_2_" cx="49.2075" cy="41.21" r="44.2177" gradientUnits="userSpaceOnUse">
					<stop  offset="0" style="stop-color:#FFF23A"/>
					<stop  offset="0.0401" style="stop-color:#FEE62D"/>
					<stop  offset="0.1171" style="stop-color:#FED41A"/>
					<stop  offset="0.1964" style="stop-color:#FDC90F"/>
					<stop  offset="0.2809" style="stop-color:#FDC60B"/>
					<stop  offset="0.6685" style="stop-color:#F28F3F"/>
					<stop  offset="0.8876" style="stop-color:#ED693C"/>
					<stop  offset="1" style="stop-color:#E83E39"/>
				</radialGradient>
				<path fill="url(#SVGID_2_)" d="M38.777,49.548c8.297-2.676,16.756-4.891,25.108-7.424c1.228-0.288,2.613-1.02,3.836-0.298
					c1.127,0.535,1.339,1.858,1.686,2.917c1.588,5.633,3.288,11.231,4.871,16.864c0.54,1.512-0.577,3.191-2.127,3.441
					c-8.218,2.412-16.455,4.771-24.677,7.193c-1.03,0.264-2.18,0.75-3.201,0.201c-1.247-0.577-1.498-2.045-1.868-3.215
					c-1.55-5.474-3.199-10.913-4.742-16.389C37.25,51.661,37.618,50.16,38.777,49.548z M41.153,54.088
					c-0.797,0.925,0.265,1.906,0.698,2.724c8.107-2.275,16.175-4.668,24.253-7.027c1.078-0.218,1.56-1.29,2.186-2.069
					c-0.938-0.453-1.95-0.901-3.014-0.718c-3.466,0.418-6.624,2.03-9.714,3.562c-1.83,1.166-4.063,0.505-6.086,0.746
					C46.579,51.502,43.18,51.747,41.153,54.088z M41.89,59.553c1.925-0.314,3.765-1.021,5.7-1.311
					c-1.455,1.256-3.414,1.604-5.151,2.292l0.145,0.51c1.665-0.376,3.331-0.756,4.997-1.122c0.039,0.145,0.105,0.434,0.14,0.583
					c-1.719,0.496-3.447,0.969-5.122,1.598c1.998,0.862,4-0.395,5.945-0.828c1.251-0.26,2.041-1.328,3.089-1.959
					c5.45-2.753,11.94-1.965,17.321-4.915c0.896-0.659,0.491-2.219-0.645-2.277c-6.278,0.41-11.473,4.651-17.735,5.233
					c-1.039-0.266-2.142-0.505-3.187-0.106C45.52,57.886,43.305,58.011,41.89,59.553z M45.279,64.707
					c-0.925,0.996-0.809,2.816,0.496,3.433c3.11,1.502,7.504-0.077,8.631-3.437c5.286-1.405,10.783-2.162,15.857-4.275
					c1.055-0.328,0.486-2.138-0.558-1.791c-5.421,0.882-10.428,3.279-15.646,4.882C51.441,61.425,47.358,62.262,45.279,64.707z"/>
			</g>
		</g>
	</g>
	<g>
		<radialGradient id="SVGID_3_" cx="49.4141" cy="36.2622" r="85.0726" gradientUnits="userSpaceOnUse">
			<stop  offset="0" style="stop-color:#929497"/>
			<stop  offset="0.6727" style="stop-color:#404041"/>
			<stop  offset="1" style="stop-color:#231F20"/>
		</radialGradient>
		<path fill="url(#SVGID_3_)" d="M21.449,50.16c-5.678,0.576-11.606,0.702-17.015-1.407c6.275,4.569,14.563,6.125,22.06,4.107
			c3.077-0.935,6.432-0.838,9.207,0.904c-1.77-1.338-3.447-2.95-5.649-3.538C27.255,49.346,24.297,49.818,21.449,50.16z"/>
		<radialGradient id="SVGID_4_" cx="49.4111" cy="36.2603" r="85.0855" gradientUnits="userSpaceOnUse">
			<stop  offset="0" style="stop-color:#929497"/>
			<stop  offset="0.6727" style="stop-color:#404041"/>
			<stop  offset="1" style="stop-color:#231F20"/>
		</radialGradient>
		<path fill="url(#SVGID_4_)" d="M32.537,54.366c-7.086,1.85-14.445,0.627-21.565-0.346C17.416,58.193,25.828,57.568,32.537,54.366z
			"/>
		<radialGradient id="SVGID_5_" cx="49.4111" cy="36.2729" r="85.0543" gradientUnits="userSpaceOnUse">
			<stop  offset="0" style="stop-color:#929497"/>
			<stop  offset="0.6727" style="stop-color:#404041"/>
			<stop  offset="1" style="stop-color:#231F20"/>
		</radialGradient>
		<path fill="url(#SVGID_5_)" d="M32.709,56.086c-5.081,2.16-10.653,2.325-16.093,2.29c2.549,1.118,5.355,1.85,8.147,1.431
			C27.749,59.475,30.404,57.919,32.709,56.086z"/>
		<radialGradient id="SVGID_6_" cx="49.4155" cy="36.2524" r="85.1097" gradientUnits="userSpaceOnUse">
			<stop  offset="0" style="stop-color:#929497"/>
			<stop  offset="0.6727" style="stop-color:#404041"/>
			<stop  offset="1" style="stop-color:#231F20"/>
		</radialGradient>
		<path fill="url(#SVGID_6_)" d="M34.701,57.197c-3.457,2.836-7.89,3.856-12.151,4.795c2.352,0.399,4.853,0.525,7.084-0.458
			C31.778,60.721,33.352,58.974,34.701,57.197z"/>
	</g>
	<g>
		<radialGradient id="SVGID_7_" cx="49.4097" cy="36.2588" r="85.1007" gradientUnits="userSpaceOnUse">
			<stop  offset="0" style="stop-color:#929497"/>
			<stop  offset="0.6727" style="stop-color:#404041"/>
			<stop  offset="1" style="stop-color:#231F20"/>
		</radialGradient>
		<path fill="url(#SVGID_7_)" d="M80.508,32.974c5.104-2.562,10.172-5.637,13.604-10.317c-2.84,7.221-9.002,12.979-16.41,15.304
			c-3.096,0.857-5.878,2.744-7.284,5.704c0.774-2.08,1.328-4.342,2.869-6.022C75.174,35.4,77.928,34.216,80.508,32.974z"/>
		<radialGradient id="SVGID_8_" cx="49.4165" cy="36.2554" r="85.0867" gradientUnits="userSpaceOnUse">
			<stop  offset="0" style="stop-color:#929497"/>
			<stop  offset="0.6727" style="stop-color:#404041"/>
			<stop  offset="1" style="stop-color:#231F20"/>
		</radialGradient>
		<path fill="url(#SVGID_8_)" d="M73.412,42.472c6.971-2.244,12.526-7.226,18.01-11.867C88.226,37.585,80.788,41.571,73.412,42.472z
			"/>
		<radialGradient id="SVGID_9_" cx="49.4097" cy="36.2583" r="85.1069" gradientUnits="userSpaceOnUse">
			<stop  offset="0" style="stop-color:#929497"/>
			<stop  offset="0.6727" style="stop-color:#404041"/>
			<stop  offset="1" style="stop-color:#231F20"/>
		</radialGradient>
		<path fill="url(#SVGID_9_)" d="M74.188,44.012c5.449-0.9,10.239-3.75,14.813-6.696c-1.555,2.311-3.533,4.434-6.113,5.574
			C80.19,44.209,77.119,44.325,74.188,44.012z"/>
		<radialGradient id="SVGID_10_" cx="49.4131" cy="36.2617" r="85.0904" gradientUnits="userSpaceOnUse">
			<stop  offset="0" style="stop-color:#929497"/>
			<stop  offset="0.6727" style="stop-color:#404041"/>
			<stop  offset="1" style="stop-color:#231F20"/>
		</radialGradient>
		<path fill="url(#SVGID_10_)" d="M73.104,46.021c4.438,0.538,8.728-0.978,12.825-2.471c-1.772,1.594-3.814,3.043-6.221,3.414
			C77.466,47.425,75.193,46.794,73.104,46.021z"/>
	</g>
</g>
</svg>
